<svg width="300" height="100" viewBox="0 0 300 100" fill="none" xmlns="http://www.w3.org/2000/svg">
<path d="M55.8428 36.8774L64.2733 41.7721L64.543 70.7712L57.9713 66.9626L51.9175 79.7776L38.9177 87.2829L30.4872 82.3882L43.8577 54.0842L37.1761 47.6546L55.8428 36.8774Z" fill="#275ADE"/>
<path opacity="0.8" d="M55.8428 36.8774L64.2733 41.7721L64.543 70.7712L57.9713 66.9626L51.9175 79.7776L38.9177 87.2829L30.4872 82.3882L43.8577 54.0842L37.1761 47.6546L55.8428 36.8774Z" fill="white"/>
<path d="M64.2733 41.7722L45.607 52.5498L52.2882 58.979L38.9177 87.283L51.9174 79.7776L58.7881 65.2334L64.543 70.7712L64.2733 41.7722Z" fill="#275ADE"/>
<path opacity="0.6" d="M64.2733 41.7722L45.607 52.5498L52.2882 58.979L38.9177 87.283L51.9174 79.7776L58.7881 65.2334L64.543 70.7712L64.2733 41.7722Z" fill="white"/>
<path opacity="0.6" d="M52.2882 58.9788L45.607 52.5496L37.1761 47.6545L43.8577 54.0841L52.2882 58.9788Z" fill="#275ADE"/>
<path opacity="0.6" d="M57.9713 66.9627L58.7881 65.2334L64.5431 70.7713L57.9713 66.9627Z" fill="#275ADE"/>
<path d="M40.491 64.2015C42.1569 65.1604 43.1877 67.2198 43.1877 70.1531C43.1873 76.016 39.071 83.1448 33.993 86.0759C31.445 87.5466 29.1402 87.6795 27.4755 86.7071C27.0421 86.454 25.2421 85.4612 24.8026 85.208C23.1383 84.2483 22.1082 82.1901 22.1082 79.2583C22.1086 73.3962 26.2253 66.2673 31.3029 63.3355C33.8401 61.8705 36.1365 61.7326 37.7993 62.6916" fill="#275ADE"/>
<path opacity="0.65" d="M33.993 86.0758C31.445 87.5465 29.1402 87.6794 27.4755 86.707C27.0421 86.4538 25.2421 85.461 24.8026 85.2078C23.1383 84.2485 22.1086 82.1903 22.1082 79.2593L33.993 86.0758Z" fill="black"/>
<path opacity="0.55" d="M38.7771 81.7649C37.3832 83.5518 35.7454 85.0636 33.9931 86.0752L22.1082 79.2587V79.2576C22.1082 77.2348 22.5988 75.061 23.4498 72.9609L38.7771 81.7649Z" fill="black"/>
<path opacity="0.4" d="M23.4503 72.9615C25.065 68.9758 27.9777 65.2556 31.3033 63.3358C33.8406 61.8708 36.1369 61.7329 37.7997 62.6918L40.4911 64.2017C42.1569 65.1607 43.1878 67.22 43.1878 70.1534C43.1874 73.9927 41.422 78.3749 38.7775 81.7654L23.4503 72.9615Z" fill="black"/>
<path d="M40.4964 68.6432C40.4945 74.5061 36.3797 81.6349 31.3017 84.5656C26.2241 87.4962 22.1082 85.12 22.1082 79.2578C22.1086 73.3957 26.2226 66.2623 31.3025 63.3351C36.3824 60.409 40.4983 62.7853 40.4964 68.6432Z" fill="#275ADE"/>
<path opacity="0.2" d="M40.4964 68.6432C40.4945 74.5061 36.3797 81.6349 31.3017 84.5656C26.2241 87.4962 22.1082 85.12 22.1082 79.2578C22.1086 73.3957 26.2226 66.2623 31.3025 63.3351C36.3824 60.409 40.4983 62.7853 40.4964 68.6432Z" fill="black"/>
<path d="M38.1993 69.9695C38.1989 74.3678 35.1111 79.7155 31.3017 81.9139C27.4928 84.1126 24.405 82.3296 24.4053 77.932C24.4057 73.5345 27.4935 68.1868 31.3025 65.9876C35.1118 63.7885 38.1996 65.5712 38.1993 69.9695Z" fill="#FAFAFA"/>
<path d="M36.1084 71.1761C36.1084 74.2408 33.9565 77.9672 31.3021 79.4994C28.6477 81.0316 26.4961 79.7891 26.4965 76.7247C26.4965 73.6603 28.6484 69.934 31.3029 68.4014C33.9569 66.8692 36.1084 68.1113 36.1084 71.1761Z" fill="#275ADE"/>
<path opacity="0.2" d="M36.1084 71.1761C36.1084 74.2408 33.9565 77.9672 31.3021 79.4994C28.6477 81.0316 26.4961 79.7891 26.4965 76.7247C26.4965 73.6603 28.6484 69.934 31.3029 68.4014C33.9569 66.8692 36.1084 68.1113 36.1084 71.1761Z" fill="black"/>
<path d="M33.9627 72.4146C33.9627 74.1109 32.7713 76.1736 31.3021 77.0216C29.8329 77.8695 28.6419 77.1818 28.6419 75.4859C28.6419 73.7897 29.8333 71.7269 31.3021 70.879C32.7721 70.0307 33.9627 70.7184 33.9627 72.4146Z" fill="#FAFAFA"/>
<path d="M32.4247 73.3027C32.4247 74.0184 31.9222 74.8886 31.3025 75.2463C30.6828 75.604 30.1802 75.3139 30.1802 74.5986C30.1802 73.8832 30.6828 73.013 31.3025 72.6549C31.9222 72.2972 32.4247 72.5873 32.4247 73.3027Z" fill="#455A64"/>
<path d="M13.2459 63.6277C13.2459 63.6277 10.8043 64.791 9.55872 64.0718C8.31314 63.3526 9.86493 61.6755 10.6725 62.142L13.2459 63.6277Z" fill="#275ADE"/>
<path d="M13.2459 63.6278C13.2459 63.6278 13.0327 60.9315 11.7871 60.2122C10.5415 59.493 9.86493 61.6757 10.6729 62.1417L13.2459 63.6278Z" fill="#275ADE"/>
<path opacity="0.5" d="M13.2459 63.6278C13.2459 63.6278 13.0327 60.9315 11.7871 60.2122C10.5415 59.493 9.86493 61.6757 10.6729 62.1417L13.2459 63.6278Z" fill="white"/>
<path d="M27.749 72.3106L8.56555 61.2395L8.8441 60.7673L28.3403 72.0186L27.749 72.3106Z" fill="#37474F"/>
<path d="M9.61249 61.0203C9.61249 61.4656 9.25134 61.8267 8.80644 61.8267C8.36115 61.8267 8 61.4656 8 61.0203C8 60.575 8.36115 60.2139 8.80644 60.2139C9.25134 60.2143 9.61249 60.575 9.61249 61.0203Z" fill="#263238"/>
<path d="M27.545 71.876C26.4601 71.74 25.7527 73.5292 25.7527 73.5292L31.193 73.9822L27.545 71.876Z" fill="#275ADE"/>
<path d="M27.545 71.876C26.4601 71.74 25.7527 73.5292 25.7527 73.5292L31.193 73.9822L27.545 71.876Z" fill="#275ADE"/>
<path d="M28.0806 69.4976C28.0806 69.4976 26.8846 71.0048 27.545 71.8761L31.193 73.9823L28.0806 69.4976Z" fill="#275ADE"/>
<path opacity="0.5" d="M28.0806 69.4976C28.0806 69.4976 26.8846 71.0048 27.545 71.8761L31.193 73.9823L28.0806 69.4976Z" fill="white"/>
<path d="M68.1914 86.7629L68.9318 82.4849L63.7501 82.7911C63.7501 82.7911 63.6813 85.0459 63.508 86.5973C63.4239 87.3511 62.5725 88.6985 62.5725 88.6985C62.5725 88.6985 65.2504 89.9218 66.486 89.4577C67.7216 88.9936 68.3332 87.4768 68.3048 87.1517C68.2763 86.8263 68.1914 86.7629 68.1914 86.7629Z" fill="#FFA8A7"/>
<path d="M56.4487 93.691C56.3703 93.6926 56.2647 94.4714 56.6961 94.7937C57.1941 95.1656 58.6475 95.7646 60.55 95.5076C62.453 95.2505 63.4765 94.7011 64.2299 94.1133C64.9833 93.5251 66.0391 92.696 66.8986 92.5089C67.6969 92.3352 68.5618 91.9929 68.8142 91.7654C69.067 91.538 69.0147 90.5491 69.0147 90.5491L56.4487 93.691Z" fill="#263238"/>
<path d="M68.1922 86.7551C68.1922 86.7551 68.4315 86.7532 68.4846 86.9814C68.5479 87.253 68.6244 88.0449 68.7577 88.4902C68.9429 89.1091 69.0816 90.382 68.9848 90.891C68.8883 91.4001 67.5878 91.7766 66.7583 92.0778C65.9108 92.3856 64.9349 93.0053 64.0801 93.6627C63.1953 94.3431 61.3223 95.0688 60.0794 95.0838C58.6091 95.1015 56.9467 94.7042 56.5571 94.0983C56.0753 93.3488 55.7188 92.4743 57.8833 91.5261C58.2933 91.3467 59.7298 90.5487 60.2193 90.2598C61.5432 89.4787 62.4722 88.7676 63.065 87.4179C63.1342 87.2603 63.2068 87.0855 63.3716 87.0029C63.498 86.9395 63.6517 86.9453 63.795 86.9607C64.1589 86.9999 65.6104 87.1524 65.9438 87.288C66.2385 87.4079 66.6558 87.5462 66.6554 87.8831C66.655 88.0003 66.6193 88.1152 66.5789 88.227C66.554 88.2962 66.5351 88.388 66.6024 88.4275C66.6661 88.4648 66.7495 88.4195 66.8056 88.3726C67.0307 88.1847 67.194 87.9461 67.3827 87.7279C67.4837 87.6111 67.594 87.4989 67.7223 87.4056C67.8387 87.3211 67.9889 87.2769 68.0919 87.1812C68.2225 87.0594 68.1883 86.913 68.1922 86.7551Z" fill="#455A64"/>
<path d="M64.0802 93.6622C64.4559 93.3733 64.8547 93.0936 65.2562 92.8423V92.8404C65.2562 92.8404 62.7159 94.2889 61.6693 93.6722C60.995 93.275 61.3043 92.7713 61.3178 92.6118C61.3312 92.4524 58.9565 91.3735 58.3072 91.3159C58.1281 91.4089 57.9779 91.4842 57.8838 91.5253C55.7188 92.4735 56.0754 93.3483 56.5575 94.0975C56.9471 94.7034 58.1539 95.1591 60.0541 95.1237C61.2966 95.1014 63.1954 94.3426 64.0802 93.6622Z" fill="#37474F"/>
<path d="M61.4891 92.1451C60.1417 92.6572 60.7237 92.8743 61.1041 92.9158C61.4844 92.9577 63.7462 91.7174 65.1217 90.702C66.5563 89.6428 67.4526 88.4975 67.9855 88.1087C68.1841 87.9634 68.3977 87.7859 68.5875 87.6203C68.5476 87.3529 68.5145 87.109 68.4846 86.9814C68.4315 86.7532 68.1922 86.7551 68.1922 86.7551L68.1346 87.099C68.0312 87.1946 67.8391 87.3207 67.7223 87.4052C67.594 87.4985 67.4833 87.6107 67.3827 87.7275C67.194 87.9458 67.0308 88.1844 66.8056 88.3722C65.6438 89.7442 62.8368 91.6325 61.4891 92.1451Z" fill="#37474F"/>
<path d="M61.1974 92.7348C61.2274 92.7344 61.2574 92.7248 61.282 92.706C61.3388 92.6629 61.3461 92.5869 61.2981 92.5358C60.9085 92.1216 59.0786 91.1561 58.0831 91.2729C58.0094 91.2814 57.9571 91.3421 57.9663 91.4078C57.9752 91.4735 58.0347 91.5188 58.1158 91.5119C59.0455 91.4047 60.7844 92.364 61.0929 92.6922C61.1198 92.7213 61.1586 92.7356 61.1974 92.7348Z" fill="#263238"/>
<path d="M62.3693 92.059C62.3992 92.0586 62.4292 92.049 62.4538 92.0302C62.5106 91.9872 62.5176 91.9107 62.4699 91.86C62.0807 91.4462 60.2516 90.4815 59.2549 90.5975C59.1812 90.606 59.1289 90.6667 59.1381 90.7324C59.147 90.7984 59.2123 90.8449 59.2876 90.8365C60.2177 90.7304 61.9562 91.6882 62.2648 92.0164C62.2913 92.0452 62.3301 92.0598 62.3693 92.059Z" fill="#263238"/>
<path d="M63.5418 91.4174C63.5718 91.4171 63.6017 91.4075 63.6263 91.3886C63.6832 91.3456 63.6901 91.2695 63.6425 91.2184C63.2529 90.8043 61.4233 89.838 60.4275 89.9559C60.3537 89.9644 60.3015 90.0251 60.3107 90.0908C60.3195 90.1565 60.3837 90.2034 60.4601 90.1949C61.3903 90.0877 63.1288 91.0463 63.4373 91.3748C63.4638 91.404 63.5026 91.4182 63.5418 91.4174Z" fill="#263238"/>
<path d="M64.6257 90.6898C64.6556 90.6891 64.6856 90.6799 64.7102 90.661C64.7671 90.618 64.774 90.5419 64.7263 90.4912C64.3371 90.077 62.5033 89.1119 61.5113 89.2287C61.4376 89.2372 61.3853 89.2979 61.3945 89.3636C61.4034 89.4297 61.4679 89.4758 61.544 89.4677C62.473 89.3613 64.2127 90.3191 64.5212 90.6476C64.5481 90.676 64.5869 90.6906 64.6257 90.6898Z" fill="#263238"/>
<path d="M65.6876 89.9621C65.7168 89.9617 65.746 89.9525 65.7702 89.9344C65.8278 89.8922 65.8359 89.8157 65.789 89.7646C65.253 89.1772 63.3405 88.3777 62.345 88.4941C62.2713 88.5025 62.219 88.5632 62.2282 88.6289C62.2371 88.695 62.302 88.7396 62.3777 88.733C63.274 88.6285 65.1055 89.3973 65.5811 89.9179C65.6088 89.9483 65.6484 89.9629 65.6876 89.9621Z" fill="#263238"/>
<path d="M79.2771 88.0557L78.2179 84.0861L83.2897 83.4226L83.4438 87.2496C83.4438 87.2496 83.9559 88.6235 83.6374 89.1211C83.3189 89.6186 79.9468 90.1288 79.6394 89.7953C79.3321 89.4618 79.2771 88.0557 79.2771 88.0557Z" fill="#FFA8A7"/>
<path d="M79.6325 96.6791C79.7743 97.9058 80.0378 98.7 80.5865 99.3665C81.1351 100.033 82.1179 100.151 83.0926 99.8268C84.0673 99.5029 85.2376 98.6754 85.5346 97.6941C85.86 96.6195 85.6767 95.8711 85.4001 94.75L79.6325 96.6791Z" fill="#263238"/>
<path d="M83.4438 87.2502C83.8507 87.2313 83.7389 88.9111 84.0493 90.5466C84.3824 92.2997 85.0413 92.9659 85.3329 94.4009C85.666 96.0406 85.5976 96.7979 84.9575 97.8848C84.3175 98.9717 81.9316 100.237 80.6664 98.9275C79.6352 97.8602 79.5342 96.5582 79.5461 94.8819C79.5584 93.1488 79.5834 91.9282 79.44 90.6303C79.3033 89.3898 78.9325 88.2848 79.2783 88.1058C79.314 88.2863 79.3513 88.5161 79.3882 88.6928C79.4166 88.8288 79.4885 89.5004 79.7159 89.4812C79.7293 89.3195 79.7186 89.1712 79.6986 89.0098C79.6813 88.8696 79.6879 88.714 79.7912 88.5941C79.8949 88.4731 80.2837 88.3236 80.4466 88.2771C80.8428 88.1646 81.5501 88.0255 81.9542 87.9486C82.1556 87.9102 82.3577 87.8791 82.5609 87.858C82.7253 87.8411 82.9197 87.8307 83.0776 87.8622C83.1748 87.8814 83.2659 87.9294 83.3051 88.0066C83.3339 88.0639 83.332 88.1307 83.3351 88.1949C83.3404 88.3102 83.3627 88.4239 83.4019 88.5318C83.4188 88.5795 83.4619 88.6352 83.5191 88.6164C83.5656 88.6014 83.5821 88.5491 83.5806 88.508C83.5729 88.3063 83.536 88.1634 83.5141 87.9306C83.5041 87.823 83.4764 87.6778 83.4695 87.569C83.4634 87.4626 83.4572 87.3558 83.4438 87.2502Z" fill="#455A64"/>
<path d="M85.2192 93.9363C85.2699 94.1726 85.583 95.7393 85.0862 96.0843C84.5487 96.4578 84.188 95.2391 84.188 95.2391C84.188 95.2391 82.8779 95.0482 81.0264 95.9637C81.1351 96.2111 80.8839 97.0971 80.3587 96.9757C79.8369 96.855 79.5495 95.0497 79.5461 95.0263C79.5415 96.633 79.6656 97.8912 80.6668 98.9274C81.932 100.237 84.3178 98.9716 84.9579 97.8847C85.598 96.7978 85.6664 96.0405 85.3333 94.4008C85.2999 94.2363 85.261 94.083 85.2192 93.9363Z" fill="#37474F"/>
<path d="M84.0451 95.3629C84.0812 95.9653 84.7716 95.6821 84.7624 94.8269C84.7535 93.9717 84.1119 92.0123 84.0493 90.5461C83.9409 88.5337 83.8507 87.2309 83.4438 87.2497C83.4465 87.2701 83.4469 87.2904 83.4488 87.3108L83.5414 88.1491C83.5587 88.2705 83.5759 88.3781 83.5809 88.508C83.6482 89.7374 83.6532 92.1252 83.8299 93.2359C84.0066 94.3474 84.0093 94.7604 84.0451 95.3629Z" fill="#37474F"/>
<path d="M81.2442 95.9221C81.0837 95.3446 80.953 94.957 80.7598 93.8493C80.5681 92.7501 79.8946 90.5475 79.5615 89.3634C79.4527 89.1686 79.4089 88.7906 79.3886 88.6922C79.354 88.527 79.3194 88.3172 79.286 88.1432C79.2825 88.1309 79.2795 88.119 79.2768 88.1067C79.0274 88.2396 79.1085 89.1924 79.238 89.6861C79.3674 90.1798 79.5257 90.7089 79.6871 91.4173C80.1013 92.8131 80.1316 94.9063 80.399 95.71C80.666 96.5137 81.4048 96.4995 81.2442 95.9221Z" fill="#37474F"/>
<path d="M80.9888 96.0171C81.0076 96.0133 81.0256 96.0068 81.0429 95.9972C81.0571 95.9887 82.4998 95.1811 84.1549 95.3674C84.2364 95.3763 84.3167 95.326 84.3347 95.2556C84.3532 95.185 84.3017 95.1204 84.2206 95.1112C82.4499 94.9118 80.9561 95.7501 80.8927 95.7862C80.8209 95.8273 80.7955 95.9076 80.8374 95.966C80.8689 96.0098 80.93 96.0287 80.9888 96.0171Z" fill="#263238"/>
<path d="M80.5896 94.7459C80.6065 94.7424 80.623 94.7367 80.6392 94.7286C80.6553 94.7202 82.2801 93.8718 84.1235 94.0248C84.2049 94.0305 84.2837 93.9794 84.2994 93.9083C84.3148 93.8373 84.261 93.7743 84.1796 93.7673C82.2297 93.6067 80.5685 94.4754 80.4985 94.5119C80.4252 94.5511 80.3967 94.631 80.4355 94.691C80.4659 94.7378 80.5285 94.7582 80.5896 94.7459Z" fill="#263238"/>
<path d="M83.9675 92.7922C84.0239 92.7811 84.0735 92.7427 84.0912 92.6916C84.1142 92.6213 84.0689 92.5533 83.9894 92.5394C82.1464 92.2213 80.3863 93.2118 80.3118 93.2544C80.2396 93.2955 80.2146 93.3758 80.2565 93.4342C80.2983 93.4923 80.3909 93.5045 80.462 93.465C80.4789 93.4557 82.189 92.4949 83.9037 92.793C83.9248 92.7972 83.9467 92.7965 83.9675 92.7922Z" fill="#263238"/>
<path d="M83.8088 91.6311C83.8645 91.62 83.9133 91.5827 83.9314 91.5328C83.9564 91.4625 83.9126 91.3941 83.8334 91.3791C81.8048 90.9957 80.1505 92.048 80.0813 92.0925C80.0121 92.1375 79.9929 92.2186 80.039 92.2743C80.0852 92.33 80.18 92.3384 80.2477 92.2939C80.263 92.2839 81.8552 91.2754 83.7427 91.6319C83.765 91.6357 83.7873 91.6353 83.8088 91.6311Z" fill="#263238"/>
<path d="M83.6244 90.3275C83.6789 90.3163 83.7277 90.2802 83.7462 90.2307C83.7723 90.1611 83.7296 90.092 83.6505 90.0758C81.7483 89.6909 79.9487 90.7808 79.873 90.8281C79.8023 90.8711 79.7816 90.9526 79.8258 91.009C79.8696 91.0659 79.9626 91.0774 80.0333 91.0329C80.0509 91.0221 81.7894 89.9698 83.5556 90.3275C83.579 90.3321 83.6021 90.3321 83.6244 90.3275Z" fill="#263238"/>
<path d="M81.129 46.358C81.8958 56.0618 82.081 69.3459 82.081 69.3459C82.1498 70.0828 82.6769 71.3456 83.0346 74.9809C83.4115 78.8156 83.322 84.229 83.322 84.229C83.322 84.229 80.641 85.6605 78.4376 84.9363C78.4376 84.9363 76.3952 76.4209 75.2691 71.9016C74.2034 67.6246 72.7626 60.4693 72.7626 60.4693L70.716 69.6832C70.716 69.6832 70.8651 72.449 70.7798 74.3843C70.6806 76.6349 68.7412 83.9289 68.7412 83.9289C68.7412 83.9289 65.8851 85.5902 63.5975 83.8617C63.5975 83.8617 63.785 71.2319 63.7232 68.5241C63.6021 63.2129 63.9168 52.0519 64.12 45.1951L81.129 46.358Z" fill="#275ADE"/>
<path opacity="0.3" d="M81.129 46.358C81.8958 56.0618 82.081 69.3459 82.081 69.3459C82.1498 70.0828 82.6769 71.3456 83.0346 74.9809C83.4115 78.8156 83.322 84.229 83.322 84.229C83.322 84.229 80.641 85.6605 78.4376 84.9363C78.4376 84.9363 76.3952 76.4209 75.2691 71.9016C74.2034 67.6246 72.7626 60.4693 72.7626 60.4693L70.716 69.6832C70.716 69.6832 70.8651 72.449 70.7798 74.3843C70.6806 76.6349 68.7412 83.9289 68.7412 83.9289C68.7412 83.9289 65.8851 85.5902 63.5975 83.8617C63.5975 83.8617 63.785 71.2319 63.7232 68.5241C63.6021 63.2129 63.9168 52.0519 64.12 45.1951L81.129 46.358Z" fill="black"/>
<path opacity="0.2" d="M72.7622 60.469L71.5824 54.2035C71.5824 54.2035 68.9114 53.8201 67.5433 52.6079C67.5433 52.6079 68.425 54.2104 70.9438 54.8386L72.0661 61.1241L70.7156 69.6833L72.7622 60.469Z" fill="black"/>
<path d="M83.3819 84.3364C82.8279 85.058 80.3725 85.7776 78.3992 85.1168L78.0588 83.6238C79.5488 84.0886 82.1379 83.6522 83.3558 82.7117L83.3819 84.3364Z" fill="#275ADE"/>
<path d="M68.6978 84.3521C68.0009 84.94 65.3695 85.2008 63.5845 84.1382L63.5568 82.3843C64.9115 83.1531 67.705 83.4105 69.0978 82.7485L68.6978 84.3521Z" fill="#275ADE"/>
<path d="M50.9658 44.958C50.0902 44.7424 49.9108 44.7205 49.2554 44.6145C48.8181 44.5434 48.5684 44.7232 47.5422 45.326C46.4749 45.9527 46.2909 46.232 46.2037 46.5658C46.1011 46.9604 46.3666 47.2928 46.5103 47.3512C46.1779 47.574 46.2259 48.1991 46.7146 48.4115C46.4273 48.7235 46.5952 49.1888 46.9678 49.3286C46.808 49.5207 46.9041 50.2361 47.5518 50.3771C48.2415 50.5269 49.2465 50.5561 49.2465 50.5561L50.9658 44.958Z" fill="#F28F8F"/>
<path d="M53.3893 91.035L44.5462 4.6212L45.2827 4.5459L54.1266 90.9647C54.1454 91.2556 53.4124 91.3174 53.3893 91.035Z" fill="#455A64"/>
<path d="M49.2469 50.5556C49.4548 50.5548 49.7126 50.2125 49.9016 49.9866C50.0906 49.761 50.3304 49.4883 50.3062 49.2992C50.2724 49.0338 49.897 49.0403 49.897 49.0403C49.897 49.0403 49.9373 49.0161 50.078 48.8716C50.3073 48.6365 49.872 48.336 49.4963 48.487C49.4963 48.487 49.6561 48.3871 49.6573 48.2792C49.6596 48.0736 49.4617 47.7955 49.1194 47.8197C49.3856 47.6798 49.2823 47.3018 49.0909 47.0144C49.0222 47.0144 48.9542 47.0186 48.8869 47.0267C48.6568 48.1071 48.822 49.2969 49.2469 50.5556Z" fill="#F28F8F"/>
<path d="M46.9678 49.3281C47.2145 49.421 47.4746 49.4671 47.7305 49.5236C47.9875 49.5739 48.2457 49.6266 48.5043 49.6496C48.7578 49.7007 48.9945 49.5682 49.2254 49.4521C49.4551 49.3281 49.678 49.1878 49.8966 49.0403C49.6995 49.2159 49.4897 49.3784 49.2619 49.5163C49.0398 49.6454 48.7774 49.7914 48.4946 49.7449C48.2292 49.713 47.9698 49.6615 47.7136 49.5951C47.4592 49.5259 47.2014 49.4537 46.9678 49.3281Z" fill="#B16668"/>
<path d="M49.4962 48.487C49.2815 48.598 49.0694 48.714 48.8392 48.7985C48.7248 48.8416 48.6041 48.8769 48.4712 48.8735C48.3421 48.8619 48.2276 48.8343 48.1077 48.8101C47.6375 48.6963 47.171 48.5723 46.7142 48.4109C47.191 48.495 47.6586 48.6141 48.1289 48.7167C48.2449 48.7436 48.3651 48.7743 48.4762 48.7866C48.5857 48.7939 48.7021 48.7601 48.8154 48.729C49.0433 48.6591 49.2676 48.5657 49.4962 48.487Z" fill="#B16668"/>
<path d="M49.1193 47.8194C48.9107 47.8948 48.6979 48.0165 48.4543 47.9839C48.2199 47.9574 48.0078 47.8782 47.7885 47.8183C47.357 47.6777 46.9275 47.5325 46.5106 47.3503C46.9528 47.4568 47.3835 47.5966 47.8169 47.7265C48.0317 47.7933 48.2484 47.8713 48.4631 47.9105C48.6794 47.9555 48.8969 47.8632 49.1193 47.8194Z" fill="#B16668"/>
<path d="M45.7165 4.66467C45.6681 5.11226 45.2658 5.43614 44.8178 5.38773C44.3699 5.33933 44.0464 4.93707 44.0948 4.48909C44.1432 4.04111 44.5454 3.71762 44.9934 3.76603C45.4414 3.81444 45.7653 4.21669 45.7165 4.66467Z" fill="#37474F"/>
<path d="M45.5348 3.13488C45.5866 3.58209 45.2662 3.98703 44.8186 4.03928C44.371 4.09115 43.9665 3.77073 43.9142 3.32314C43.7805 2.17323 44.4244 0.645264 44.4244 0.645264C44.4244 0.645264 45.4014 1.98458 45.5348 3.13488Z" fill="#37474F"/>
<path d="M44.6204 5.33398C40.0015 12.1612 32.2407 10.1296 26.0409 10.3985C19.3231 10.6897 15.4838 13.2646 13.763 16.4032C15.6367 15.6912 21.0962 15.6186 22.9477 16.8554C22.9477 16.8554 16.6045 22.0052 17.3503 29.2908C19.0104 26.0001 22.2135 23.3195 29.0192 23.9999C34.9966 24.5974 42.6848 26.5234 46.2824 21.5975L44.6204 5.33398Z" fill="#275ADE"/>
<path opacity="0.1" d="M39.7995 22.2794C34.5893 24.4666 19.1891 18.8335 17.3503 29.2906C19.0104 25.9999 22.2135 23.3194 29.0192 23.9998C34.9966 24.5972 42.6848 26.5232 46.2824 21.5974L44.6204 5.33423C45.2589 11.7365 45.0092 20.0921 39.7995 22.2794Z" fill="black"/>
<path opacity="0.7" d="M33.2773 12.7786L34.4867 15.4826L37.4474 15.5744C37.6253 15.5798 37.7056 15.7992 37.5738 15.9187L35.3758 17.9042L36.2033 20.7481C36.2529 20.919 36.0693 21.0635 35.9152 20.9747L33.3476 19.4983L30.8987 21.1642C30.7515 21.2644 30.5575 21.1342 30.594 20.9601L31.2049 18.0617L28.8636 16.2472C28.723 16.1381 28.7868 15.9133 28.9635 15.8945L31.9088 15.5798L32.9108 12.7924C32.9711 12.6249 33.2047 12.6161 33.2773 12.7786Z" fill="white"/>
<path d="M58.3533 46.4729C58.3533 46.4729 55.65 47.6589 53.9254 48.4377C52.6041 49.0316 52.5922 49.2295 52.165 49.7036C51.6897 50.2311 49.9766 50.4198 49.9766 50.4198L49.9274 49.9541C50.1122 49.7347 50.3281 49.4812 50.3047 49.3002C50.2712 49.0343 49.8982 49.0389 49.8982 49.0389C49.8982 49.0389 49.937 49.0167 50.078 48.8734C50.2505 48.692 50.0469 48.4807 49.7745 48.4488L49.7157 47.8867C49.5155 47.6908 49.3503 47.4879 49.2274 47.282V47.2782C49.1713 47.1925 49.1271 47.1033 49.0902 47.0142C49.0633 47.0138 48.4832 47.0069 48.0002 47.3435C47.7847 47.7661 47.4485 48.2863 46.8488 48.3059C46.3605 48.3197 46.3532 48.093 46.5741 47.5859C46.8714 46.892 46.9736 46.5559 47.2222 46.2032C47.467 45.8466 48.8385 45.2419 49.2689 45.0502C49.6992 44.8585 50.0484 44.8612 50.8579 44.9491C51.6632 45.0333 51.9075 44.9188 52.3021 44.7839C52.6928 44.6529 54.7333 43.3997 54.7333 43.3997L58.3533 46.4729Z" fill="#FFA8A7"/>
<path d="M49.718 47.886C50.1625 48.4415 51.1614 48.6867 51.921 48.6233C50.6712 48.9306 49.7817 48.5103 49.7817 48.5103L49.718 47.886Z" fill="#F28F8F"/>
<path d="M66.5601 27.835C63.3186 28.6863 62.8318 29.9239 61.3531 34.2311C60.0279 38.0908 59.3133 40.2435 59.3133 40.2435L53.8335 43.9149C53.8335 43.9149 55.0011 44.701 55.2708 47.8756C55.2708 47.8756 58.2833 46.5728 61.146 45.3556C62.8007 44.6522 63.1811 44.1492 63.9376 42.39C64.8032 40.3775 66.5313 36.1302 66.5313 36.1302L66.5601 27.835Z" fill="#37474F"/>
<path d="M78.8971 24.5637C80.2979 23.5067 81.4982 26.0194 81.9711 27.8071C82.4437 29.5948 82.2992 31.9584 81.2446 36.3137C81.0064 37.2984 80.8055 39.5436 80.966 42.4167C81.1339 45.4242 81.1693 46.9145 81.323 49.0683C81.323 49.0683 77.5674 51.7873 70.676 51.1392C65.2653 50.6301 63.9886 48.1493 63.9886 48.1493C63.9886 48.1493 64.0812 40.2605 64.2964 36.2676C64.5792 31.0228 65.3733 28.7296 66.5601 27.8348C66.5601 27.8348 68.9906 27.0398 72.6324 26.2123C75.9995 25.447 77.4445 25.6598 78.8971 24.5637Z" fill="#455A64"/>
<path d="M68.4515 15.3145C68.4515 15.3145 67.6489 15.4366 67.1963 16.4943C66.9689 17.0257 66.8486 17.9727 67.7772 20.5841C68.375 22.265 68.994 22.9708 69.281 23.4295C69.568 23.8883 70.0924 23.9832 70.0924 23.9832L69.8849 21.9377L69.7013 20.5154C69.7013 20.5154 70.774 19.3835 70.7959 18.35C70.8239 17.0199 70.2522 16.3107 70.2522 16.3107L68.4515 15.3145Z" fill="#37474F"/>
<path d="M68.1776 15.4042C68.2905 14.237 69.6483 12.7525 72.4556 12.3898C74.7558 12.0928 76.1662 12.7851 77.0718 14.0711C77.9773 15.357 77.5785 17.1408 77.5785 17.1408L70.2864 17.213L68.1776 15.4042Z" fill="#37474F"/>
<path d="M68.0569 22.6788C69.1581 23.1152 69.5791 22.2385 69.5791 22.2385L69.9906 26.971C68.211 29.6866 72.3607 30.3643 75.0225 26.9945C75.2119 26.7547 75.3122 26.4554 75.2926 26.1508L75.205 24.7926C75.205 24.7926 75.5611 24.7665 76.1178 24.6336C77.0464 24.4142 77.5805 23.6231 77.7837 22.5839C78.0945 20.9898 78.063 18.443 77.217 15.8216C77.0753 15.382 76.7575 15.0047 76.3195 14.8584C75.1977 14.4834 74.2291 15.3332 72.7522 16.0409C72.1202 16.3437 70.55 16.5742 70.1186 16.4102C70.7129 16.9742 70.7071 18.8671 70.1923 19.6924C70.0141 19.9782 69.8442 20.1734 69.737 20.2825C69.4159 20.6075 69.0758 19.8568 68.7643 19.5763C68.45 19.2986 67.3462 19.1099 66.9539 20.1392C66.5586 21.1869 67.0369 22.2746 68.0569 22.6788Z" fill="#FFA8A7"/>
<path d="M75.205 24.793C73.9709 24.8786 72.8648 24.8087 72.1137 24.5567C71.3626 24.3046 70.643 23.3684 70.3579 22.4075C70.4171 23.1935 70.867 24.5617 72.0142 25.0577C73.1614 25.5537 74.4485 25.488 75.2572 25.4446L75.205 24.793Z" fill="#F28F8F"/>
<path d="M72.8625 17.4951L72.0172 18.2519C71.8105 18.0068 71.8321 17.6384 72.0657 17.4294C72.2989 17.2204 72.6558 17.2499 72.8625 17.4951Z" fill="#37474F"/>
<path d="M76.7571 17.3333L75.6649 17.0263C75.7609 16.7201 76.0833 16.5406 76.3849 16.6256C76.6868 16.7105 76.8532 17.0274 76.7571 17.3333Z" fill="#37474F"/>
<path d="M72.481 18.9478C72.509 19.2013 72.738 19.3842 72.9916 19.3562C73.2456 19.3277 73.4281 19.0991 73.4 18.8456C73.3716 18.592 73.143 18.4091 72.8894 18.4372C72.6354 18.4656 72.4526 18.6942 72.481 18.9478Z" fill="#263238"/>
<path d="M75.8773 18.3975C75.9053 18.651 76.1343 18.8339 76.3879 18.8059C76.6415 18.7774 76.8243 18.5488 76.7963 18.2953C76.7679 18.0417 76.5393 17.8588 76.2857 17.8869C75.9937 17.9195 75.8446 18.1059 75.8773 18.3975Z" fill="#263238"/>
<path d="M74.1346 17.8972L74.7359 20.8029L76.2427 20.1137C75.613 19.1205 74.9103 18.3817 74.1346 17.8972Z" fill="#F28F8F"/>
<path d="M73.6102 21.5452L74.8392 21.8514C74.7616 22.2025 74.4235 22.4184 74.0843 22.3339C73.7447 22.2494 73.5326 21.8963 73.6102 21.5452Z" fill="#B16668"/>
<path d="M73.7531 21.7521C73.7008 21.7448 73.6497 21.7452 73.5998 21.749C73.6236 22.0237 73.8111 22.2662 74.0843 22.3342C74.1527 22.3511 74.2207 22.353 74.2868 22.3469C74.3148 22.0625 74.0812 21.7986 73.7531 21.7521Z" fill="#F28F8F"/>
<path d="M88.8122 0.000534145C89.1587 -0.0194442 89.6102 0.524198 89.3628 1.0955C89.838 0.586439 89.9867 0.463494 90.417 0.774312C90.7078 0.984469 90.616 1.46626 90.616 1.46626C90.616 1.46626 90.9341 1.16735 91.2649 1.45588C91.5957 1.74403 91.4809 2.10979 91.4809 2.10979C91.4809 2.10979 91.7256 1.9223 91.9899 2.23274C92.2185 2.50167 92.275 2.8075 92.2339 3.10986L91.9469 2.96079C91.9469 2.96079 91.8839 3.08912 91.736 3.194C91.588 3.29889 91.452 3.64006 91.3337 3.91745C91.2154 4.19484 91.1139 4.53409 90.8308 4.57635C90.5476 4.61862 90.3452 4.44265 90.3386 4.26093C90.3321 4.0792 90.3901 3.90324 90.3901 3.90324C90.3901 3.90324 90.1961 4.30933 89.8165 4.20944C89.4369 4.10955 89.4749 3.76262 89.4834 3.53709C89.2502 3.60433 89.0085 3.64313 88.9017 3.45756C88.7949 3.27238 88.8756 2.52319 88.8756 2.52319L88.2663 2.33801C88.2663 2.33801 87.7176 2.21698 87.751 1.80358C87.8106 1.06054 88.4357 0.0220493 88.8122 0.000534145Z" fill="#FFA8A7"/>
<path d="M86.8124 7.17667C86.8455 6.56272 86.7414 6.03906 86.5231 5.43548C86.1996 4.54106 86.4859 3.84028 86.57 3.49104C86.7437 2.77182 87.1033 1.75715 87.2331 1.58925C87.4387 1.32416 87.9597 1.23694 87.9597 1.23694C88.4218 1.18047 88.599 1.24655 88.599 1.24655L89.589 2.11907C89.589 2.11907 89.5502 2.46485 89.2878 2.54361C89.025 2.62237 88.8629 2.55782 88.8629 2.55782C88.8629 2.55782 88.7642 3.25169 88.9059 3.40882C89.0477 3.56596 89.1626 3.62052 89.4392 3.43034C89.4523 3.68929 89.458 4.08617 89.7569 4.1607C90.0559 4.23524 90.3897 3.90291 90.3897 3.90291C90.3897 3.90291 90.3801 4.59216 90.606 4.62712C90.8316 4.66247 91.6188 2.54399 91.6188 2.54399L92.2331 3.10953C92.0637 3.68122 91.578 5.452 91.2615 6.14394C90.9449 6.83589 90.6867 7.1759 90.588 8.39228C90.4892 9.60866 90.0374 16.8785 90.0374 16.8785L85.724 15.4139C85.724 15.4139 86.7798 7.79024 86.8124 7.17667Z" fill="#FFA8A7"/>
<path d="M87.6923 2.76163C87.6923 2.76163 88.2812 3.06361 88.8057 3.63261C89.4277 4.30765 89.7243 5.17171 89.7243 5.17171C89.672 4.5958 89.4323 4.09634 89.1507 3.69408C89.226 3.69562 89.3051 3.67756 89.3866 3.63069C89.3524 3.95226 89.3735 4.26154 89.7773 4.30842C90.0267 4.33761 90.1569 4.26193 90.2702 4.14167C90.2568 4.31264 90.2852 4.47324 90.4689 4.59618C90.6329 4.70568 90.8769 4.69761 91.0067 4.5397C91.0329 4.5082 91.0559 4.47439 91.0759 4.43904C91.0794 4.4329 91.0824 4.42675 91.0832 4.41983C91.0836 4.41676 91.0824 4.4133 91.0721 4.41215C91.0555 4.42483 91.0386 4.43712 91.0221 4.4498C90.9226 4.52434 90.7244 4.60809 90.6018 4.54547C90.4988 4.49283 90.462 4.36105 90.4447 4.25616C90.4166 4.0852 90.4781 3.90001 90.5088 3.73096C90.51 3.72366 90.5115 3.71598 90.5077 3.70983C90.4988 3.69331 90.4735 3.70368 90.4596 3.71636C90.3813 3.78706 90.3233 3.87734 90.2503 3.95303C90.1473 4.05984 90.0201 4.10479 89.873 4.08673C89.5852 4.05177 89.5529 3.69101 89.5856 3.4601C89.5963 3.38365 89.6121 3.30796 89.6198 3.23073C89.6209 3.21998 89.6186 3.20499 89.6075 3.20461C89.604 3.20461 89.601 3.20615 89.5979 3.20768C89.5526 3.23189 89.5226 3.273 89.4911 3.31218C89.4561 3.35522 89.4162 3.39133 89.372 3.42514C89.3159 3.46779 89.251 3.50198 89.1806 3.50582C89.025 3.51466 88.9759 3.36828 88.9359 3.24495C88.8706 3.04209 88.8667 2.82617 88.9113 2.61832C88.9129 2.61179 88.9121 2.60526 88.9132 2.59873C88.9321 2.60334 88.9478 2.60756 88.9678 2.61217C89.5164 2.74587 89.7685 2.22106 89.6056 2.06123C89.4427 1.9014 88.7484 1.24942 88.5602 1.19985C88.4234 1.16374 88.3369 1.17988 87.9597 1.23751L88.5237 1.27132C88.5237 1.27132 89.5318 2.08736 89.5057 2.21107C89.4784 2.34016 89.3405 2.52419 89.0512 2.50076C88.7619 2.47732 88.2532 2.25756 88.2532 2.25756C88.2086 2.47386 87.6923 2.76163 87.6923 2.76163ZM88.0538 2.59719C88.179 2.56107 88.2655 2.42007 88.2655 2.42007C88.2655 2.42007 88.3923 2.46733 88.8137 2.57337C88.7565 2.65405 88.7234 2.74972 88.6766 2.83731C88.6508 2.88572 88.6186 2.93221 88.5775 2.96871C88.5652 2.97985 88.5513 2.98485 88.5383 2.99215C88.2655 2.73665 88.0538 2.59719 88.0538 2.59719Z" fill="#F28F8F"/>
<path d="M78.8971 24.5636C80.1293 23.038 81.1566 22.537 81.7809 21.7613C82.7979 20.4972 84.9929 17.0852 84.9929 17.0852L86.4032 9.82764C86.7721 11.1147 89.6217 12.177 90.4243 11.5246C90.4243 11.5246 90.3509 14.0761 90.0597 18.4007C89.9563 19.9352 89.9041 20.2145 87.9162 23.1448C86.9772 24.5287 86.0356 26.0201 84.5314 28.333C83.4449 30.0039 82.4614 31.5595 81.9193 33.2131C81.7733 33.9158 80.3018 33.9008 79.3105 31.644C78.2167 29.1544 78.6908 25.4296 78.8971 24.5636Z" fill="#37474F"/>
<path d="M154.151 36.4707L162.636 41.397L162.907 70.5829L156.293 66.7497L150.201 79.6473L137.117 87.201L128.632 82.2748L142.089 53.7884L135.364 47.3173L154.151 36.4707Z" fill="#275ADE"/>
<path opacity="0.8" d="M154.151 36.4707L162.636 41.397L162.907 70.5829L156.293 66.7497L150.201 79.6473L137.117 87.201L128.632 82.2748L142.089 53.7884L135.364 47.3173L154.151 36.4707Z" fill="white"/>
<path d="M162.636 41.397L143.849 52.244L150.574 58.7146L137.117 87.201L150.201 79.6473L157.115 65.0093L162.907 70.5829L162.636 41.397Z" fill="#275ADE"/>
<path opacity="0.6" d="M162.636 41.397L143.849 52.244L150.574 58.7146L137.117 87.201L150.201 79.6473L157.115 65.0093L162.907 70.5829L162.636 41.397Z" fill="white"/>
<path opacity="0.6" d="M150.574 58.7146L143.849 52.244L135.364 47.3174L142.089 53.7884L150.574 58.7146Z" fill="#275ADE"/>
<path opacity="0.6" d="M156.293 66.7497L157.115 65.0093L162.907 70.5828L156.293 66.7497Z" fill="#275ADE"/>
<path d="M138.7 63.9708C140.377 64.9359 141.414 67.0085 141.414 69.9608C141.414 75.8614 137.271 83.0362 132.161 85.9862C129.596 87.4664 127.276 87.6001 125.601 86.6215C125.165 86.3667 123.353 85.3675 122.911 85.1127C121.236 84.1467 120.199 82.0753 120.199 79.1246C120.199 73.2247 124.343 66.0499 129.453 63.0992C132.007 61.6248 134.318 61.486 135.991 62.4511" fill="#275ADE"/>
<path opacity="0.65" d="M132.161 85.9861C129.596 87.4663 127.276 87.6001 125.601 86.6214C125.165 86.3666 123.353 85.3675 122.911 85.1126C121.236 84.1471 120.199 82.0757 120.199 79.1257L132.161 85.9861Z" fill="black"/>
<path opacity="0.55" d="M136.975 81.6475C135.573 83.446 133.924 84.9675 132.161 85.9857L120.199 79.1253V79.1241C120.199 77.0883 120.693 74.9004 121.549 72.7869L136.975 81.6475Z" fill="black"/>
<path opacity="0.4" d="M121.55 72.7872C123.175 68.7759 126.106 65.0317 129.453 63.0995C132.007 61.6251 134.318 61.4862 135.992 62.4514L138.7 63.971C140.377 64.9362 141.414 67.0087 141.414 69.961C141.414 73.8251 139.637 78.2355 136.976 81.6479L121.55 72.7872Z" fill="black"/>
<path d="M138.706 68.4411C138.704 74.3417 134.563 81.5165 129.452 84.4661C124.342 87.4156 120.199 85.0241 120.199 79.1242C120.199 73.2242 124.34 66.0448 129.453 63.0988C134.565 60.1538 138.708 62.5454 138.706 68.4411Z" fill="#275ADE"/>
<path opacity="0.2" d="M138.706 68.4411C138.704 74.3417 134.563 81.5165 129.452 84.4661C124.342 87.4156 120.199 85.0241 120.199 79.1242C120.199 73.2242 124.34 66.0448 129.453 63.0988C134.565 60.1538 138.708 62.5454 138.706 68.4411Z" fill="black"/>
<path d="M136.394 69.7759C136.393 74.2025 133.286 79.5847 129.452 81.7972C125.618 84.0102 122.511 82.2156 122.511 77.7897C122.511 73.3638 125.619 67.9817 129.453 65.7684C133.287 63.555 136.394 65.3492 136.394 69.7759Z" fill="#FAFAFA"/>
<path d="M134.29 70.9904C134.29 74.0749 132.124 77.8253 129.452 79.3674C126.781 80.9094 124.615 79.6589 124.616 76.5748C124.616 73.4907 126.781 69.7403 129.453 68.1978C132.124 66.6558 134.29 67.9059 134.29 70.9904Z" fill="#275ADE"/>
<path opacity="0.2" d="M134.29 70.9904C134.29 74.0749 132.124 77.8253 129.452 79.3674C126.781 80.9094 124.615 79.6589 124.616 76.5748C124.616 73.4907 126.781 69.7403 129.453 68.1978C132.124 66.6558 134.29 67.9059 134.29 70.9904Z" fill="black"/>
<path d="M132.13 72.2369C132.13 73.9441 130.931 76.0202 129.452 76.8736C127.974 77.7269 126.775 77.0348 126.775 75.328C126.775 73.6208 127.974 71.5448 129.452 70.6914C130.932 69.8376 132.13 70.5297 132.13 72.2369Z" fill="#FAFAFA"/>
<path d="M130.582 73.1306C130.582 73.851 130.076 74.7268 129.453 75.0868C128.829 75.4468 128.323 75.1548 128.323 74.4348C128.323 73.7148 128.829 72.839 129.453 72.4786C130.076 72.1186 130.582 72.4106 130.582 73.1306Z" fill="#455A64"/>
<path d="M111.28 63.3934C111.28 63.3934 108.822 64.5642 107.569 63.8404C106.315 63.1165 107.877 61.4287 108.69 61.8981L111.28 63.3934Z" fill="#275ADE"/>
<path d="M111.28 63.3934C111.28 63.3934 111.065 60.6797 109.811 59.9558C108.558 59.232 107.877 61.4287 108.69 61.8977L111.28 63.3934Z" fill="#275ADE"/>
<path opacity="0.5" d="M111.28 63.3934C111.28 63.3934 111.065 60.6797 109.811 59.9558C108.558 59.232 107.877 61.4287 108.69 61.8977L111.28 63.3934Z" fill="white"/>
<path d="M125.876 72.1323L106.569 60.9899L106.85 60.5146L126.471 71.8384L125.876 72.1323Z" fill="#37474F"/>
<path d="M107.623 60.7692C107.623 61.2173 107.259 61.5808 106.812 61.5808C106.363 61.5808 106 61.2173 106 60.7692C106 60.321 106.363 59.9575 106.812 59.9575C107.259 59.9579 107.623 60.321 107.623 60.7692Z" fill="#263238"/>
<path d="M125.671 71.6949C124.579 71.558 123.867 73.3588 123.867 73.3588L129.342 73.8147L125.671 71.6949Z" fill="#275ADE"/>
<path d="M125.671 71.6949C124.579 71.558 123.867 73.3588 123.867 73.3588L129.342 73.8147L125.671 71.6949Z" fill="#275ADE"/>
<path d="M126.21 69.301C126.21 69.301 125.006 70.8179 125.671 71.6949L129.342 73.8147L126.21 69.301Z" fill="#275ADE"/>
<path opacity="0.5" d="M126.21 69.301C126.21 69.301 125.006 70.8179 125.671 71.6949L129.342 73.8147L126.21 69.301Z" fill="white"/>
<path d="M166.579 86.6775L167.324 82.3718L162.109 82.68C162.109 82.68 162.04 84.9494 161.866 86.5108C161.781 87.2695 160.924 88.6255 160.924 88.6255C160.924 88.6255 163.619 89.8567 164.863 89.3896C166.106 88.9225 166.722 87.3959 166.693 87.0688C166.665 86.7413 166.579 86.6775 166.579 86.6775Z" fill="#FFA8A7"/>
<path d="M154.761 93.6505C154.682 93.6521 154.576 94.4359 155.01 94.7603C155.511 95.1346 156.974 95.7374 158.889 95.4787C160.804 95.22 161.834 94.6671 162.592 94.0755C163.351 93.4835 164.413 92.649 165.278 92.4607C166.082 92.2859 166.952 91.9414 167.206 91.7125C167.461 91.4836 167.408 90.4883 167.408 90.4883L154.761 93.6505Z" fill="#263238"/>
<path d="M166.58 86.6697C166.58 86.6697 166.821 86.6677 166.874 86.8974C166.938 87.1708 167.015 87.9677 167.149 88.4159C167.336 89.0388 167.475 90.3199 167.378 90.8322C167.281 91.3446 165.972 91.7235 165.137 92.0267C164.284 92.3364 163.302 92.9601 162.442 93.6217C161.551 94.3065 159.666 95.037 158.415 95.052C156.935 95.0698 155.262 94.67 154.87 94.0602C154.385 93.3058 154.026 92.4257 156.205 91.4714C156.617 91.2908 158.063 90.4877 158.556 90.1969C159.888 89.4108 160.823 88.6951 161.42 87.3367C161.49 87.1782 161.563 87.0022 161.729 86.9191C161.856 86.8553 162.01 86.8611 162.155 86.8765C162.521 86.916 163.982 87.0695 164.317 87.206C164.614 87.3266 165.034 87.4658 165.033 87.805C165.033 87.9229 164.997 88.0385 164.956 88.151C164.931 88.2206 164.912 88.313 164.98 88.3529C165.044 88.3904 165.128 88.3448 165.185 88.2976C165.411 88.1085 165.576 87.8684 165.765 87.6487C165.867 87.5312 165.978 87.4183 166.107 87.3243C166.224 87.2392 166.376 87.1948 166.479 87.0985C166.611 86.9759 166.576 86.8286 166.58 86.6697Z" fill="#455A64"/>
<path d="M162.442 93.6214C162.82 93.3307 163.221 93.0492 163.625 92.7963V92.7943C163.625 92.7943 161.069 94.2521 160.015 93.6315C159.337 93.2317 159.648 92.7247 159.661 92.5643C159.675 92.4038 157.285 91.318 156.631 91.26C156.451 91.3536 156.3 91.4294 156.205 91.4708C154.026 92.4251 154.385 93.3055 154.87 94.0595C155.263 94.6693 156.477 95.1279 158.39 95.0924C159.64 95.0699 161.551 94.3062 162.442 93.6214Z" fill="#37474F"/>
<path d="M159.834 92.0944C158.478 92.6098 159.064 92.8283 159.446 92.87C159.829 92.9122 162.106 91.664 163.49 90.642C164.934 89.5759 165.836 88.4233 166.372 88.0319C166.572 87.8858 166.787 87.7071 166.978 87.5405C166.938 87.2713 166.905 87.0258 166.874 86.8974C166.821 86.6677 166.58 86.6697 166.58 86.6697L166.522 87.0157C166.418 87.112 166.225 87.2389 166.107 87.3239C165.978 87.4179 165.867 87.5308 165.765 87.6484C165.576 87.868 165.411 88.1081 165.185 88.2972C164.015 89.678 161.19 91.5785 159.834 92.0944Z" fill="#37474F"/>
<path d="M159.54 92.6881C159.57 92.6877 159.601 92.6781 159.625 92.6591C159.683 92.6158 159.69 92.5393 159.642 92.4878C159.25 92.071 157.408 91.0993 156.406 91.2168C156.332 91.2253 156.279 91.2864 156.288 91.3525C156.297 91.4187 156.357 91.4643 156.439 91.4573C157.375 91.3495 159.125 92.315 159.435 92.6452C159.462 92.6746 159.501 92.6889 159.54 92.6881Z" fill="#263238"/>
<path d="M160.72 92.0079C160.75 92.0075 160.78 91.9979 160.805 91.9789C160.862 91.9356 160.869 91.8587 160.821 91.8076C160.429 91.3912 158.588 90.4202 157.585 90.537C157.511 90.5455 157.458 90.6066 157.468 90.6727C157.477 90.7392 157.542 90.786 157.618 90.7775C158.554 90.6708 160.304 91.6348 160.615 91.965C160.641 91.994 160.68 92.0087 160.72 92.0079Z" fill="#263238"/>
<path d="M161.9 91.362C161.93 91.3616 161.96 91.3519 161.985 91.333C162.042 91.2897 162.049 91.2131 162.001 91.1617C161.609 90.7449 159.768 89.7724 158.765 89.8911C158.691 89.8996 158.639 89.9607 158.648 90.0268C158.657 90.0929 158.721 90.1401 158.798 90.1316C159.734 90.0237 161.484 90.9885 161.795 91.3191C161.821 91.3485 161.86 91.3628 161.9 91.362Z" fill="#263238"/>
<path d="M162.991 90.6297C163.021 90.629 163.051 90.6197 163.076 90.6007C163.133 90.5574 163.14 90.4809 163.092 90.4298C162.7 90.013 160.855 89.0417 159.856 89.1592C159.782 89.1677 159.729 89.2288 159.739 89.2949C159.748 89.3614 159.813 89.4078 159.889 89.3997C160.824 89.2926 162.575 90.2566 162.885 90.5872C162.913 90.6158 162.952 90.6305 162.991 90.6297Z" fill="#263238"/>
<path d="M164.059 89.8974C164.089 89.897 164.118 89.8877 164.142 89.8696C164.2 89.827 164.209 89.7501 164.161 89.6987C163.622 89.1074 161.697 88.3028 160.695 88.4199C160.621 88.4284 160.568 88.4895 160.578 88.5556C160.587 88.6222 160.652 88.667 160.728 88.6604C161.63 88.5553 163.474 89.329 163.952 89.8529C163.98 89.8835 164.02 89.8982 164.059 89.8974Z" fill="#263238"/>
<path d="M177.737 87.9786L176.67 83.9835L181.775 83.3157L181.93 87.1674C181.93 87.1674 182.445 88.5501 182.125 89.0509C181.804 89.5516 178.411 90.0651 178.101 89.7295C177.792 89.3938 177.737 87.9786 177.737 87.9786Z" fill="#FFA8A7"/>
<path d="M178.094 96.6576C178.237 97.8922 178.502 98.6915 179.054 99.3624C179.607 100.033 180.596 100.152 181.577 99.8256C182.558 99.4996 183.735 98.6667 184.034 97.6792C184.362 96.5976 184.177 95.8444 183.899 94.7161L178.094 96.6576Z" fill="#263238"/>
<path d="M181.93 87.1679C182.34 87.1489 182.227 88.8395 182.539 90.4856C182.875 92.25 183.538 92.9205 183.831 94.3647C184.167 96.015 184.098 96.7772 183.454 97.8711C182.809 98.965 180.408 100.238 179.135 98.9205C178.097 97.8463 177.995 96.5359 178.007 94.8488C178.02 93.1045 178.045 91.8761 177.901 90.5699C177.763 89.3213 177.39 88.2092 177.738 88.029C177.774 88.2107 177.811 88.442 177.848 88.6199C177.877 88.7567 177.949 89.4326 178.178 89.4133C178.192 89.2505 178.181 89.1013 178.161 88.9389C178.143 88.7977 178.15 88.6411 178.254 88.5205C178.358 88.3987 178.75 88.2483 178.914 88.2015C179.312 88.0882 180.024 87.9482 180.431 87.8709C180.634 87.8322 180.837 87.8009 181.041 87.7796C181.207 87.7626 181.403 87.7522 181.562 87.7839C181.659 87.8032 181.751 87.8515 181.79 87.9292C181.819 87.9869 181.818 88.0541 181.821 88.1187C181.826 88.2347 181.848 88.3492 181.888 88.4578C181.905 88.5058 181.948 88.5618 182.006 88.5429C182.053 88.5278 182.069 88.4752 182.068 88.4339C182.06 88.2309 182.023 88.087 182.001 87.8527C181.991 87.7444 181.963 87.5983 181.956 87.4888C181.95 87.3817 181.944 87.2742 181.93 87.1679Z" fill="#455A64"/>
<path d="M183.717 93.8972C183.768 94.135 184.083 95.7119 183.583 96.0591C183.042 96.435 182.679 95.2084 182.679 95.2084C182.679 95.2084 181.36 95.0163 179.497 95.9377C179.606 96.1867 179.354 97.0784 178.825 96.9562C178.3 96.8348 178.011 95.0178 178.007 94.9942C178.003 96.6113 178.127 97.8777 179.135 98.9205C180.408 100.238 182.81 98.965 183.454 97.8711C184.098 96.7772 184.167 96.015 183.832 94.3647C183.798 94.1992 183.759 94.0449 183.717 93.8972Z" fill="#37474F"/>
<path d="M182.535 95.3329C182.572 95.9392 183.266 95.6542 183.257 94.7935C183.248 93.9327 182.602 91.9607 182.539 90.4851C182.43 88.4597 182.34 87.1485 181.93 87.1674C181.933 87.1879 181.933 87.2084 181.935 87.2289L182.028 88.0726C182.046 88.1948 182.063 88.3031 182.068 88.4338C182.136 89.6712 182.141 92.0744 182.319 93.1922C182.497 94.3109 182.499 94.7266 182.535 95.3329Z" fill="#37474F"/>
<path d="M179.716 95.8958C179.555 95.3146 179.423 94.9245 179.229 93.8097C179.036 92.7034 178.358 90.4866 178.023 89.2948C177.913 89.0988 177.869 88.7183 177.849 88.6193C177.814 88.4531 177.779 88.2419 177.745 88.0668C177.742 88.0544 177.739 88.0424 177.736 88.03C177.485 88.1638 177.567 89.1228 177.697 89.6197C177.827 90.1165 177.987 90.649 178.149 91.362C178.566 92.7668 178.596 94.8734 178.866 95.6823C179.134 96.4913 179.878 96.477 179.716 95.8958Z" fill="#37474F"/>
<path d="M179.459 95.9914C179.478 95.9876 179.496 95.981 179.514 95.9713C179.528 95.9628 180.98 95.15 182.646 95.3376C182.728 95.3464 182.809 95.2958 182.827 95.225C182.845 95.1539 182.793 95.0889 182.712 95.0796C180.93 94.879 179.426 95.7227 179.362 95.759C179.29 95.8004 179.265 95.8812 179.307 95.94C179.339 95.9841 179.4 96.003 179.459 95.9914Z" fill="#263238"/>
<path d="M179.057 94.7121C179.074 94.7086 179.091 94.7028 179.107 94.6946C179.124 94.6861 180.759 93.8324 182.614 93.9863C182.696 93.9921 182.775 93.9406 182.791 93.8691C182.807 93.7976 182.753 93.7341 182.671 93.7272C180.708 93.5656 179.036 94.4398 178.966 94.4766C178.892 94.516 178.863 94.5964 178.902 94.6568C178.933 94.7039 178.996 94.7244 179.057 94.7121Z" fill="#263238"/>
<path d="M182.457 92.7457C182.514 92.7345 182.564 92.6958 182.582 92.6444C182.605 92.5736 182.559 92.5052 182.479 92.4913C180.624 92.1711 178.853 93.1679 178.778 93.2109C178.705 93.2522 178.68 93.333 178.722 93.3918C178.764 93.4502 178.858 93.4626 178.929 93.4228C178.946 93.4135 180.667 92.4464 182.393 92.7465C182.414 92.7507 182.436 92.7499 182.457 92.7457Z" fill="#263238"/>
<path d="M182.297 91.5771C182.353 91.5659 182.403 91.5284 182.421 91.4781C182.446 91.4074 182.402 91.3386 182.322 91.3235C180.28 90.9376 178.615 91.9967 178.546 92.0415C178.476 92.0868 178.457 92.1684 178.503 92.2244C178.55 92.2805 178.645 92.289 178.713 92.2442C178.729 92.2341 180.331 91.2191 182.231 91.5779C182.253 91.5818 182.276 91.5814 182.297 91.5771Z" fill="#263238"/>
<path d="M182.112 90.2652C182.167 90.254 182.216 90.2176 182.234 90.1677C182.261 90.0977 182.218 90.0281 182.138 90.0119C180.224 89.6245 178.412 90.7215 178.336 90.769C178.265 90.8123 178.244 90.8943 178.289 90.9511C178.333 91.0084 178.426 91.02 178.498 90.9751C178.515 90.9643 180.265 89.9052 182.043 90.2652C182.066 90.2698 182.089 90.2698 182.112 90.2652Z" fill="#263238"/>
<path d="M179.6 46.0123C180.372 55.7785 180.558 69.1482 180.558 69.1482C180.628 69.8899 181.158 71.1609 181.518 74.8196C181.898 78.679 181.807 84.1273 181.807 84.1273C181.807 84.1273 179.109 85.568 176.892 84.8392C176.892 84.8392 174.836 76.2689 173.703 71.7204C172.63 67.4159 171.18 60.2145 171.18 60.2145L169.12 69.4877C169.12 69.4877 169.27 72.2714 169.184 74.2191C169.085 76.4843 167.133 83.8253 167.133 83.8253C167.133 83.8253 164.258 85.4973 161.956 83.7576C161.956 83.7576 162.145 71.0464 162.082 68.3211C161.961 62.9757 162.277 51.7428 162.482 44.8418L179.6 46.0123Z" fill="#275ADE"/>
<path opacity="0.3" d="M179.6 46.0123C180.372 55.7785 180.558 69.1482 180.558 69.1482C180.628 69.8899 181.158 71.1609 181.518 74.8196C181.898 78.679 181.807 84.1273 181.807 84.1273C181.807 84.1273 179.109 85.568 176.892 84.8392C176.892 84.8392 174.836 76.2689 173.703 71.7204C172.63 67.4159 171.18 60.2145 171.18 60.2145L169.12 69.4877C169.12 69.4877 169.27 72.2714 169.184 74.2191C169.085 76.4843 167.133 83.8253 167.133 83.8253C167.133 83.8253 164.258 85.4973 161.956 83.7576C161.956 83.7576 162.145 71.0464 162.082 68.3211C161.961 62.9757 162.277 51.7428 162.482 44.8418L179.6 46.0123Z" fill="black"/>
<path opacity="0.2" d="M171.18 60.2143L169.992 53.9084C169.992 53.9084 167.304 53.5225 165.927 52.3025C165.927 52.3025 166.814 53.9153 169.35 54.5475L170.479 60.8735L169.12 69.4879L171.18 60.2143Z" fill="black"/>
<path d="M181.868 84.2356C181.31 84.9618 178.839 85.686 176.853 85.0209L176.51 83.5183C178.01 83.9862 180.616 83.5469 181.841 82.6003L181.868 84.2356Z" fill="#275ADE"/>
<path d="M167.089 84.2515C166.388 84.8432 163.739 85.1057 161.943 84.0362L161.915 82.271C163.278 83.0447 166.09 83.3038 167.492 82.6376L167.089 84.2515Z" fill="#275ADE"/>
<path d="M149.243 44.6033C148.362 44.3864 148.181 44.3644 147.521 44.2577C147.081 44.1861 146.83 44.3671 145.797 44.9738C144.723 45.6045 144.538 45.8856 144.45 46.2216C144.347 46.6187 144.614 46.9532 144.758 47.012C144.424 47.2362 144.472 47.8653 144.964 48.0792C144.675 48.3932 144.844 48.8614 145.219 49.0022C145.058 49.1955 145.155 49.9155 145.807 50.0574C146.501 50.2082 147.512 50.2376 147.512 50.2376L149.243 44.6033Z" fill="#F28F8F"/>
<path d="M151.682 90.9775L142.782 4.0067L143.523 3.93091L152.424 90.9067C152.443 91.1994 151.705 91.2617 151.682 90.9775Z" fill="#455A64"/>
<path d="M147.513 50.2368C147.722 50.2361 147.981 49.8915 148.172 49.6642C148.362 49.4372 148.603 49.1627 148.579 48.9724C148.545 48.7052 148.167 48.7118 148.167 48.7118C148.167 48.7118 148.208 48.6874 148.349 48.542C148.58 48.3054 148.142 48.003 147.764 48.155C147.764 48.155 147.925 48.0544 147.926 47.9458C147.928 47.7389 147.729 47.459 147.384 47.4833C147.652 47.3426 147.548 46.9621 147.356 46.6729C147.287 46.6729 147.218 46.6771 147.15 46.6852C146.919 47.7726 147.085 48.9701 147.513 50.2368Z" fill="#F28F8F"/>
<path d="M145.219 49.0013C145.467 49.0949 145.729 49.1413 145.987 49.1981C146.245 49.2488 146.505 49.3017 146.765 49.3249C147.021 49.3764 147.259 49.243 147.491 49.1262C147.722 49.0013 147.947 48.8602 148.167 48.7117C147.968 48.8884 147.757 49.0519 147.528 49.1908C147.304 49.3207 147.04 49.4676 146.756 49.4208C146.488 49.3887 146.227 49.3369 145.97 49.27C145.714 49.2004 145.454 49.1277 145.219 49.0013Z" fill="#B16668"/>
<path d="M147.764 48.1549C147.548 48.2667 147.334 48.3835 147.103 48.4685C146.987 48.5118 146.866 48.5474 146.732 48.5439C146.602 48.5323 146.487 48.5045 146.366 48.4801C145.893 48.3657 145.424 48.2408 144.964 48.0784C145.444 48.1631 145.914 48.2829 146.388 48.3862C146.504 48.4132 146.625 48.4442 146.737 48.4565C146.847 48.4639 146.964 48.4299 147.079 48.3985C147.308 48.3282 147.534 48.2342 147.764 48.1549Z" fill="#B16668"/>
<path d="M147.384 47.4834C147.174 47.5591 146.96 47.6817 146.715 47.6489C146.479 47.6222 146.266 47.5425 146.045 47.4822C145.611 47.3407 145.178 47.1945 144.759 47.0112C145.204 47.1183 145.637 47.2591 146.074 47.3898C146.29 47.4571 146.508 47.5356 146.724 47.575C146.942 47.6202 147.16 47.5274 147.384 47.4834Z" fill="#B16668"/>
<path d="M143.96 4.05013C143.911 4.50061 143.506 4.82658 143.055 4.77786C142.604 4.72913 142.279 4.32428 142.327 3.87342C142.376 3.42256 142.781 3.09698 143.232 3.1457C143.683 3.19442 144.009 3.59927 143.96 4.05013Z" fill="#37474F"/>
<path d="M143.777 2.51054C143.829 2.96063 143.506 3.36819 143.056 3.42078C142.605 3.47298 142.198 3.15049 142.146 2.70001C142.011 1.54269 142.659 0.00488281 142.659 0.00488281C142.659 0.00488281 143.643 1.35283 143.777 2.51054Z" fill="#37474F"/>
<path d="M142.856 4.72388C138.208 11.5951 130.285 10.6851 124.045 10.9558C117.284 11.2489 113.854 15.2083 112.122 18.367C114.008 17.6505 119.181 15.0748 121.044 16.3195C121.044 16.3195 115.883 22.3126 116.634 29.6451C118.304 26.3332 120.418 23.8046 127.267 24.4894C133.283 25.0907 140.908 26.0498 144.529 21.0923L142.856 4.72388Z" fill="#275ADE"/>
<path opacity="0.1" d="M138.004 21.7787C132.761 23.9801 118.484 19.1207 116.634 29.6453C118.304 26.3334 120.095 23.8048 126.945 24.4896C132.961 25.0909 140.908 26.0499 144.529 21.0924L142.856 4.72437C143.499 11.1679 143.248 19.5774 138.004 21.7787Z" fill="black"/>
<path opacity="0.7" d="M131.44 12.2166L132.657 14.938L135.637 15.0305C135.816 15.0359 135.897 15.2567 135.764 15.3769L133.552 17.3753L134.385 20.2374C134.435 20.4095 134.25 20.5549 134.095 20.4656L131.511 18.9796L129.046 20.6562C128.898 20.7571 128.703 20.626 128.74 20.4509L129.354 17.5338L126.998 15.7075C126.857 15.5977 126.921 15.3715 127.099 15.3526L130.063 15.0359L131.071 12.2305C131.132 12.062 131.367 12.0531 131.44 12.2166Z" fill="white"/>
<path d="M156.678 46.1279C156.678 46.1279 153.957 47.3216 152.221 48.1054C150.892 48.7032 150.88 48.9023 150.45 49.3795C149.971 49.9104 148.247 50.1003 148.247 50.1003L148.198 49.6316C148.384 49.4108 148.601 49.1556 148.577 48.9735C148.544 48.7059 148.168 48.7105 148.168 48.7105C148.168 48.7105 148.207 48.6881 148.349 48.5439C148.523 48.3614 148.318 48.1487 148.044 48.1166L147.985 47.5509C147.783 47.3537 147.617 47.1495 147.493 46.9423V46.9384C147.437 46.8522 147.392 46.7625 147.355 46.6728C147.328 46.6724 146.744 46.6654 146.258 47.0041C146.041 47.4295 145.703 47.953 145.099 47.9728C144.608 47.9867 144.6 47.7585 144.823 47.2481C145.122 46.5498 145.225 46.2115 145.475 45.8565C145.721 45.4976 147.102 44.889 147.535 44.6961C147.968 44.5031 148.319 44.5058 149.134 44.5944C149.945 44.6791 150.19 44.5638 150.588 44.4281C150.981 44.2962 153.034 43.0349 153.034 43.0349L156.678 46.1279Z" fill="#FFA8A7"/>
<path d="M147.987 47.55C148.434 48.1092 149.44 48.3559 150.204 48.2921C148.946 48.6014 148.051 48.1784 148.051 48.1784L147.987 47.55Z" fill="#F28F8F"/>
<path d="M164.938 27.3699C161.675 28.2267 161.185 29.4722 159.697 33.8073C158.363 37.6918 157.644 39.8583 157.644 39.8583L152.129 43.5534C152.129 43.5534 153.304 44.3446 153.575 47.5397C153.575 47.5397 156.607 46.2284 159.489 45.0035C161.154 44.2955 161.537 43.7893 162.298 42.0187C163.169 39.9933 164.909 35.7186 164.909 35.7186L164.938 27.3699Z" fill="#37474F"/>
<path d="M177.354 24.0775C178.764 23.0138 179.972 25.5426 180.448 27.3418C180.923 29.141 180.778 31.5199 179.717 35.9032C179.477 36.8943 179.275 39.154 179.436 42.0456C179.605 45.0725 179.641 46.5724 179.796 48.7401C179.796 48.7401 176.016 51.4766 169.08 50.8243C163.634 50.3119 162.349 47.8151 162.349 47.8151C162.349 47.8151 162.443 39.8755 162.659 35.8568C162.944 30.5783 163.743 28.2702 164.938 27.3697C164.938 27.3697 167.384 26.5696 171.049 25.7367C174.438 24.9665 175.892 25.1807 177.354 24.0775Z" fill="#455A64"/>
<path d="M166.841 14.7686C166.841 14.7686 166.033 14.8915 165.578 15.956C165.349 16.4908 165.228 17.444 166.163 20.0722C166.764 21.7639 167.387 22.4742 167.676 22.9359C167.965 23.3976 168.493 23.4931 168.493 23.4931L168.284 21.4345L168.099 20.003C168.099 20.003 169.179 18.8638 169.201 17.8237C169.229 16.485 168.653 15.7712 168.653 15.7712L166.841 14.7686Z" fill="#37474F"/>
<path d="M166.565 14.8592C166.679 13.6844 168.046 12.1903 170.871 11.8253C173.186 11.5264 174.606 12.2232 175.517 13.5174C176.428 14.8116 176.027 16.6069 176.027 16.6069L168.688 16.6796L166.565 14.8592Z" fill="#37474F"/>
<path d="M166.444 22.1804C167.552 22.6197 167.976 21.7373 167.976 21.7373L168.39 26.5004C166.599 29.2334 170.776 29.9155 173.454 26.524C173.645 26.2827 173.746 25.9815 173.726 25.6748L173.638 24.3079C173.638 24.3079 173.997 24.2816 174.557 24.1478C175.491 23.927 176.029 23.1309 176.234 22.0849C176.546 20.4806 176.515 17.9173 175.663 15.279C175.52 14.8367 175.201 14.457 174.76 14.3096C173.631 13.9322 172.656 14.7876 171.17 15.4998C170.534 15.8045 168.953 16.0365 168.519 15.8714C169.117 16.4391 169.111 18.3442 168.593 19.1748C168.414 19.4625 168.243 19.6589 168.135 19.7687C167.812 20.0959 167.469 19.3403 167.156 19.058C166.84 18.7785 165.729 18.5886 165.334 19.6245C164.936 20.679 165.417 21.7736 166.444 22.1804Z" fill="#FFA8A7"/>
<path d="M173.638 24.3083C172.396 24.3946 171.283 24.3242 170.527 24.0705C169.771 23.8169 169.047 22.8745 168.76 21.9075C168.819 22.6986 169.272 24.0756 170.427 24.5748C171.581 25.074 172.877 25.0078 173.691 24.9641L173.638 24.3083Z" fill="#F28F8F"/>
<path d="M171.281 16.9634L170.43 17.7252C170.222 17.4785 170.244 17.1076 170.479 16.8973C170.713 16.6869 171.073 16.7167 171.281 16.9634Z" fill="#37474F"/>
<path d="M175.2 16.8006L174.101 16.4916C174.198 16.1835 174.522 16.0029 174.826 16.0883C175.13 16.1738 175.297 16.4928 175.2 16.8006Z" fill="#37474F"/>
<path d="M170.897 18.4254C170.925 18.6806 171.155 18.8647 171.411 18.8365C171.666 18.8079 171.85 18.5778 171.822 18.3226C171.793 18.0674 171.563 17.8833 171.308 17.9115C171.052 17.9402 170.868 18.1702 170.897 18.4254Z" fill="#263238"/>
<path d="M174.315 17.8717C174.343 18.1269 174.574 18.311 174.829 18.2828C175.084 18.2542 175.268 18.0241 175.24 17.7689C175.211 17.5137 174.981 17.3296 174.726 17.3578C174.432 17.3907 174.282 17.5782 174.315 17.8717Z" fill="#263238"/>
<path d="M172.561 17.3682L173.166 20.2926L174.683 19.5989C174.049 18.5993 173.342 17.8558 172.561 17.3682Z" fill="#F28F8F"/>
<path d="M172.033 21.0396L173.27 21.3477C173.192 21.7012 172.852 21.9185 172.51 21.8334C172.168 21.7483 171.955 21.393 172.033 21.0396Z" fill="#B16668"/>
<path d="M172.177 21.2478C172.124 21.2404 172.073 21.2408 172.023 21.2447C172.047 21.5211 172.235 21.7651 172.51 21.8336C172.579 21.8506 172.647 21.8525 172.714 21.8463C172.742 21.5602 172.507 21.2945 172.177 21.2478Z" fill="#F28F8F"/>
<path d="M191.24 1.46764C191.588 1.4976 191.96 2.10408 191.631 2.63756C192.178 2.19886 192.343 2.09779 192.727 2.46931C192.987 2.72049 192.826 3.18719 192.826 3.18719C192.826 3.18719 193.186 2.93522 193.474 3.27023C193.762 3.60485 193.595 3.95266 193.595 3.95266C193.595 3.95266 193.866 3.80111 194.084 4.14837C194.273 4.44916 194.286 4.76191 194.201 5.05719L193.937 4.8674C193.937 4.8674 193.855 4.98616 193.693 5.06936C193.531 5.15255 193.346 5.47282 193.188 5.73211C193.03 5.9914 192.881 6.31473 192.593 6.31608C192.304 6.31744 192.128 6.11303 192.148 5.93107C192.167 5.74911 192.25 5.58218 192.25 5.58218C192.25 5.58218 191.999 5.95878 191.635 5.80466C191.271 5.65054 191.359 5.31043 191.4 5.087C191.158 5.12042 190.912 5.1243 190.832 4.92409C190.752 4.72426 190.94 3.98959 190.94 3.98959L190.36 3.71745C190.36 3.71745 189.831 3.51796 189.924 3.11098C190.09 2.3794 190.862 1.43489 191.24 1.46764Z" fill="#FFA8A7"/>
<path d="M188.216 8.32789C188.337 7.72108 188.309 7.18448 188.178 6.55185C187.984 5.61437 188.37 4.9575 188.504 4.62173C188.781 3.93029 189.285 2.97132 189.439 2.82276C189.682 2.58827 190.213 2.57635 190.213 2.57635C190.682 2.5866 190.848 2.67791 190.848 2.67791L191.709 3.68949C191.709 3.68949 191.621 4.02834 191.348 4.06903C191.075 4.10968 190.923 4.02205 190.923 4.02205C190.923 4.02205 190.725 4.69901 190.843 4.87594C190.962 5.05286 191.068 5.12373 191.371 4.9741C191.347 5.23392 191.296 5.63008 191.583 5.74733C191.87 5.86459 192.25 5.58159 192.25 5.58159C192.25 5.58159 192.141 6.26677 192.361 6.33411C192.581 6.40176 193.67 4.4048 193.67 4.4048L194.2 5.05654C193.949 5.60162 193.211 7.29563 192.796 7.93933C192.381 8.58303 192.075 8.88457 191.802 10.082C191.528 11.2794 190.032 18.456 190.032 18.456L185.946 16.3765C185.946 16.3765 188.095 8.93437 188.216 8.32789Z" fill="#FFA8A7"/>
<path d="M189.727 4.05698C189.727 4.05698 190.271 4.44253 190.711 5.08478C191.234 5.84669 191.405 6.75007 191.405 6.75007C191.435 6.16887 191.269 5.63686 191.046 5.19565C191.121 5.20802 191.202 5.20142 191.29 5.16645C191.21 5.48185 191.186 5.79297 191.582 5.89776C191.826 5.96272 191.966 5.90607 192.097 5.80259C192.059 5.97096 192.064 6.13502 192.229 6.28391C192.377 6.41658 192.621 6.44365 192.773 6.30504C192.804 6.27742 192.831 6.24706 192.856 6.21472C192.861 6.2091 192.865 6.20342 192.866 6.19664C192.867 6.19363 192.867 6.19002 192.856 6.18738C192.838 6.19764 192.82 6.20745 192.801 6.2177C192.691 6.27763 192.482 6.33253 192.369 6.25252C192.274 6.18527 192.256 6.0487 192.254 5.94173C192.251 5.76739 192.338 5.59178 192.393 5.42781C192.396 5.4207 192.398 5.41327 192.395 5.40659C192.389 5.38886 192.362 5.39555 192.347 5.40619C192.258 5.46533 192.188 5.54692 192.104 5.61181C191.986 5.70338 191.853 5.72986 191.709 5.6907C191.427 5.61447 191.447 5.25047 191.513 5.02516C191.534 4.95055 191.561 4.87743 191.58 4.80161C191.583 4.79106 191.582 4.7758 191.571 4.77381C191.568 4.77332 191.565 4.77441 191.561 4.7755C191.513 4.79308 191.477 4.82972 191.44 4.86422C191.399 4.90205 191.354 4.93228 191.305 4.9596C191.243 4.99401 191.173 5.01873 191.103 5.01244C190.947 4.99885 190.919 4.84597 190.897 4.71737C190.861 4.5059 190.888 4.29027 190.962 4.08964C190.965 4.08336 190.965 4.07674 190.967 4.0704C190.985 4.0777 191 4.08418 191.019 4.09164C191.547 4.30376 191.873 3.81725 191.734 3.63461C191.595 3.45197 190.997 2.70263 190.817 2.62617C190.685 2.57052 190.597 2.57415 190.213 2.57727L190.77 2.6921C190.77 2.6921 191.657 3.65002 191.613 3.76949C191.567 3.89416 191.403 4.05763 191.118 3.99266C190.834 3.92768 190.359 3.63559 190.359 3.63559C190.283 3.84464 189.727 4.05698 189.727 4.05698ZM190.111 3.94521C190.241 3.92725 190.347 3.79924 190.347 3.79924C190.347 3.79924 190.467 3.86455 190.871 4.03082C190.803 4.10295 190.756 4.19349 190.697 4.27401C190.664 4.31852 190.625 4.36019 190.579 4.39063C190.565 4.39996 190.551 4.40294 190.537 4.40833C190.302 4.11459 190.111 3.94521 190.111 3.94521Z" fill="#F28F8F"/>
<path d="M177.829 24.5084C179.276 23.1659 180.372 22.8147 181.105 22.1319C182.3 21.0191 184.977 17.9361 184.977 17.9361L187.427 10.9098C187.609 12.2449 190.295 13.7131 191.188 13.1787C191.188 13.1787 190.748 15.7097 189.835 19.9755C189.512 21.4892 189.419 21.7599 187.018 24.3927C185.883 25.6361 184.731 26.9863 182.899 29.0738C181.577 30.5818 180.373 31.9899 179.595 33.559C179.349 34.238 177.885 34.0113 177.222 31.6207C176.491 28.9834 177.499 25.3413 177.829 24.5084Z" fill="#37474F"/>
<path d="M252.154 36.4675L260.639 41.394L260.91 70.5814L254.296 66.7481L248.203 79.6462L235.118 87.2003L226.633 82.2738L240.091 53.786L233.366 47.3147L252.154 36.4675Z" fill="#275ADE"/>
<path opacity="0.8" d="M252.154 36.4675L260.639 41.394L260.91 70.5814L254.296 66.7481L248.203 79.6462L235.118 87.2003L226.633 82.2738L240.091 53.786L233.366 47.3147L252.154 36.4675Z" fill="white"/>
<path d="M260.639 41.394L241.851 52.2416L248.576 58.7125L235.118 87.2004L248.203 79.6463L255.118 65.0076L260.91 70.5814L260.639 41.394Z" fill="#275ADE"/>
<path opacity="0.6" d="M260.639 41.394L241.851 52.2416L248.576 58.7125L235.118 87.2004L248.203 79.6463L255.118 65.0076L260.91 70.5814L260.639 41.394Z" fill="white"/>
<path opacity="0.6" d="M248.576 58.7125L241.851 52.2416L233.366 47.3147L240.091 53.786L248.576 58.7125Z" fill="#275ADE"/>
<path opacity="0.6" d="M254.296 66.7481L255.118 65.0076L260.91 70.5814L254.296 66.7481Z" fill="#275ADE"/>
<path d="M236.702 63.9689C238.379 64.9341 239.416 67.0068 239.416 69.9592C239.416 75.8602 235.273 83.0353 230.162 85.9854C227.597 87.4657 225.278 87.5995 223.602 86.6207C223.166 86.3659 221.354 85.3667 220.912 85.1118C219.237 84.1459 218.2 82.0744 218.2 79.1235C218.2 73.2233 222.344 66.0482 227.454 63.0973C230.008 61.6228 232.319 61.484 233.993 62.4492" fill="#275ADE"/>
<path opacity="0.65" d="M230.162 85.9855C227.597 87.4658 225.278 87.5996 223.602 86.6208C223.166 86.366 221.354 85.3668 220.912 85.112C219.237 84.1464 218.2 82.0749 218.2 79.1248L230.162 85.9855Z" fill="black"/>
<path opacity="0.55" d="M234.977 81.6468C233.574 83.4453 231.926 84.9669 230.162 85.9851L218.2 79.1243V79.1232C218.2 77.0872 218.694 74.8993 219.55 72.7856L234.977 81.6468Z" fill="black"/>
<path opacity="0.4" d="M219.551 72.7858C221.176 68.7742 224.107 65.0299 227.455 63.0976C230.008 61.6231 232.32 61.4843 233.993 62.4495L236.702 63.9692C238.379 64.9344 239.416 67.007 239.416 69.9595C239.416 73.8237 237.639 78.2343 234.977 81.6469L219.551 72.7858Z" fill="black"/>
<path d="M236.707 68.4397C236.705 74.3406 232.564 81.5158 227.453 84.4655C222.342 87.4152 218.2 85.0235 218.2 79.1233C218.2 73.2231 222.341 66.0433 227.454 63.0971C232.567 60.152 236.709 62.5437 236.707 68.4397Z" fill="#275ADE"/>
<path opacity="0.2" d="M236.707 68.4397C236.705 74.3406 232.564 81.5158 227.453 84.4655C222.342 87.4152 218.2 85.0235 218.2 79.1233C218.2 73.2231 222.341 66.0433 227.454 63.0971C232.567 60.152 236.709 62.5437 236.707 68.4397Z" fill="black"/>
<path d="M234.395 69.7744C234.395 74.2013 231.287 79.5837 227.453 81.7964C223.619 84.0094 220.511 82.2148 220.512 77.7887C220.512 73.3625 223.62 67.9801 227.454 65.7667C231.288 63.5533 234.396 65.3475 234.395 69.7744Z" fill="#FAFAFA"/>
<path d="M232.291 70.9891C232.291 74.0738 230.125 77.8243 227.453 79.3665C224.782 80.9086 222.616 79.658 222.617 76.5738C222.617 73.4895 224.783 69.7389 227.454 68.1964C230.125 66.6543 232.291 67.9045 232.291 70.9891Z" fill="#275ADE"/>
<path opacity="0.2" d="M232.291 70.9891C232.291 74.0738 230.125 77.8243 227.453 79.3665C224.782 80.9086 222.616 79.658 222.617 76.5738C222.617 73.4895 224.783 69.7389 227.454 68.1964C230.125 66.6543 232.291 67.9045 232.291 70.9891Z" fill="black"/>
<path d="M230.131 72.2358C230.131 73.9431 228.932 76.0192 227.453 76.8726C225.975 77.7261 224.776 77.0339 224.776 75.327C224.776 73.6198 225.975 71.5436 227.453 70.6902C228.933 69.8364 230.131 70.5285 230.131 72.2358Z" fill="#FAFAFA"/>
<path d="M228.583 73.1294C228.583 73.8498 228.078 74.7257 227.454 75.0857C226.83 75.4457 226.324 75.1537 226.324 74.4337C226.324 73.7137 226.83 72.8378 227.454 72.4774C228.078 72.1174 228.583 72.4094 228.583 73.1294Z" fill="#455A64"/>
<path d="M209.28 63.3915C209.28 63.3915 206.822 64.5624 205.569 63.8385C204.315 63.1146 205.877 61.4267 206.69 61.8961L209.28 63.3915Z" fill="#275ADE"/>
<path d="M209.28 63.3916C209.28 63.3916 209.065 60.6778 207.812 59.9539C206.558 59.23 205.877 61.4268 206.69 61.8959L209.28 63.3916Z" fill="#275ADE"/>
<path opacity="0.5" d="M209.28 63.3916C209.28 63.3916 209.065 60.6778 207.812 59.9539C206.558 59.23 205.877 61.4268 206.69 61.8959L209.28 63.3916Z" fill="white"/>
<path d="M223.877 72.1309L204.569 60.9879L204.85 60.5127L224.472 71.837L223.877 72.1309Z" fill="#37474F"/>
<path d="M205.623 60.7672C205.623 61.2154 205.259 61.5789 204.812 61.5789C204.363 61.5789 204 61.2154 204 60.7672C204 60.3191 204.363 59.9556 204.812 59.9556C205.259 59.956 205.623 60.3191 205.623 60.7672Z" fill="#263238"/>
<path d="M223.672 71.6935C222.58 71.5566 221.868 73.3574 221.868 73.3574L227.344 73.8133L223.672 71.6935Z" fill="#275ADE"/>
<path d="M223.672 71.6935C222.58 71.5566 221.868 73.3574 221.868 73.3574L227.344 73.8133L223.672 71.6935Z" fill="#275ADE"/>
<path d="M224.211 69.2996C224.211 69.2996 223.007 70.8166 223.672 71.6936L227.344 73.8135L224.211 69.2996Z" fill="#275ADE"/>
<path opacity="0.5" d="M224.211 69.2996C224.211 69.2996 223.007 70.8166 223.672 71.6936L227.344 73.8135L224.211 69.2996Z" fill="white"/>
<path d="M264.582 86.6769L265.328 82.3711L260.112 82.6793C260.112 82.6793 260.043 84.9488 259.869 86.5103C259.784 87.269 258.927 88.6251 258.927 88.6251C258.927 88.6251 261.622 89.8563 262.866 89.3892C264.109 88.9221 264.725 87.3954 264.696 87.0683C264.668 86.7407 264.582 86.6769 264.582 86.6769Z" fill="#FFA8A7"/>
<path d="M252.763 93.6502C252.684 93.6517 252.578 94.4356 253.012 94.76C253.514 95.1343 254.976 95.7372 256.891 95.4785C258.807 95.2198 259.837 94.6668 260.595 94.0752C261.353 93.4831 262.416 92.6486 263.281 92.4603C264.085 92.2855 264.955 91.941 265.209 91.7121C265.464 91.4831 265.411 90.4878 265.411 90.4878L252.763 93.6502Z" fill="#263238"/>
<path d="M264.583 86.6692C264.583 86.6692 264.824 86.6673 264.877 86.8969C264.941 87.1703 265.018 87.9673 265.152 88.4155C265.339 89.0385 265.478 90.3196 265.381 90.832C265.284 91.3443 263.975 91.7233 263.14 92.0265C262.287 92.3362 261.305 92.9599 260.444 93.6216C259.554 94.3064 257.669 95.0369 256.418 95.052C254.938 95.0697 253.265 94.6699 252.872 94.0601C252.388 93.3056 252.029 92.4255 254.207 91.4712C254.62 91.2906 256.066 90.4874 256.558 90.1966C257.891 89.4105 258.826 88.6947 259.423 87.3362C259.492 87.1777 259.565 87.0017 259.731 86.9186C259.858 86.8548 260.013 86.8606 260.157 86.8761C260.524 86.9155 261.985 87.069 262.32 87.2055C262.617 87.3262 263.037 87.4654 263.036 87.8045C263.036 87.9225 263 88.0381 262.959 88.1506C262.934 88.2202 262.915 88.3126 262.983 88.3525C263.047 88.39 263.131 88.3443 263.188 88.2972C263.414 88.1081 263.578 87.8679 263.768 87.6483C263.87 87.5307 263.981 87.4178 264.11 87.3239C264.227 87.2388 264.379 87.1943 264.482 87.098C264.614 86.9754 264.579 86.8281 264.583 86.6692Z" fill="#455A64"/>
<path d="M260.444 93.6211C260.823 93.3303 261.224 93.0488 261.628 92.7959V92.7939C261.628 92.7939 259.071 94.2518 258.018 93.6311C257.339 93.2313 257.651 92.7243 257.664 92.5638C257.678 92.4034 255.287 91.3175 254.634 91.2595C254.454 91.3531 254.303 91.4289 254.208 91.4703C252.029 92.4246 252.388 93.3051 252.873 94.0592C253.265 94.669 254.48 95.1276 256.392 95.0921C257.643 95.0696 259.554 94.3059 260.444 93.6211Z" fill="#37474F"/>
<path d="M257.836 92.0941C256.48 92.6096 257.066 92.8281 257.449 92.8698C257.832 92.912 260.108 91.6637 261.493 90.6417C262.937 89.5756 263.839 88.4228 264.375 88.0315C264.575 87.8853 264.79 87.7067 264.981 87.54C264.941 87.2709 264.908 87.0253 264.877 86.8969C264.824 86.6673 264.583 86.6692 264.583 86.6692L264.525 87.0153C264.421 87.1116 264.228 87.2384 264.11 87.3235C263.981 87.4174 263.87 87.5304 263.768 87.6479C263.578 87.8676 263.414 88.1077 263.188 88.2968C262.018 89.6777 259.193 91.5783 257.836 92.0941Z" fill="#37474F"/>
<path d="M257.543 92.6877C257.573 92.6873 257.603 92.6777 257.628 92.6587C257.685 92.6154 257.693 92.5388 257.644 92.4874C257.252 92.0705 255.41 91.0988 254.408 91.2163C254.334 91.2248 254.282 91.2859 254.291 91.3521C254.3 91.4182 254.36 91.4638 254.441 91.4569C255.377 91.349 257.127 92.3146 257.438 92.6448C257.465 92.6742 257.504 92.6885 257.543 92.6877Z" fill="#263238"/>
<path d="M258.722 92.0075C258.753 92.0071 258.783 91.9975 258.807 91.9785C258.865 91.9352 258.872 91.8583 258.824 91.8072C258.432 91.3907 256.591 90.4197 255.588 90.5365C255.514 90.545 255.461 90.6061 255.47 90.6723C255.479 90.7388 255.545 90.7856 255.621 90.7771C256.557 90.6703 258.307 91.6344 258.617 91.9646C258.644 91.9936 258.683 92.0083 258.722 92.0075Z" fill="#263238"/>
<path d="M259.903 91.3616C259.933 91.3612 259.963 91.3515 259.988 91.3326C260.045 91.2893 260.052 91.2127 260.004 91.1613C259.612 90.7444 257.77 89.7719 256.768 89.8906C256.694 89.8991 256.641 89.9602 256.65 90.0263C256.659 90.0924 256.724 90.1396 256.801 90.1311C257.737 90.0232 259.487 90.988 259.797 91.3186C259.824 91.348 259.863 91.3623 259.903 91.3616Z" fill="#263238"/>
<path d="M260.993 90.6293C261.024 90.6285 261.054 90.6193 261.078 90.6003C261.136 90.557 261.143 90.4804 261.095 90.4294C260.703 90.0125 258.857 89.0412 257.859 89.1587C257.785 89.1672 257.732 89.2283 257.741 89.2944C257.75 89.361 257.815 89.4074 257.892 89.3992C258.827 89.2921 260.578 90.2562 260.888 90.5868C260.915 90.6154 260.954 90.6301 260.993 90.6293Z" fill="#263238"/>
<path d="M262.062 89.8968C262.092 89.8964 262.121 89.8871 262.145 89.8689C262.203 89.8264 262.211 89.7494 262.164 89.698C261.625 89.1067 259.7 88.302 258.698 88.4192C258.624 88.4277 258.571 88.4888 258.58 88.5549C258.589 88.6214 258.655 88.6663 258.731 88.6597C259.633 88.5545 261.476 89.3283 261.955 89.8523C261.983 89.8828 262.023 89.8975 262.062 89.8968Z" fill="#263238"/>
<path d="M275.74 87.9781L274.674 83.9828L279.779 83.3149L279.934 87.1668C279.934 87.1668 280.449 88.5496 280.129 89.0504C279.808 89.5512 276.414 90.0647 276.105 89.7291C275.795 89.3934 275.74 87.9781 275.74 87.9781Z" fill="#FFA8A7"/>
<path d="M276.098 96.6574C276.24 97.8921 276.506 98.6914 277.058 99.3623C277.61 100.033 278.599 100.152 279.58 99.8256C280.561 99.4996 281.739 98.6667 282.038 97.6791C282.366 96.5975 282.181 95.8442 281.903 94.7158L276.098 96.6574Z" fill="#263238"/>
<path d="M279.934 87.1674C280.343 87.1484 280.231 88.8391 280.543 90.4852C280.878 92.2497 281.542 92.9203 281.835 94.3646C282.17 96.015 282.101 96.7771 281.457 97.8711C280.813 98.9651 278.412 100.238 277.138 98.9206C276.1 97.8464 275.999 96.5359 276.011 94.8487C276.023 93.1043 276.048 91.8758 275.904 90.5695C275.766 89.3209 275.393 88.2088 275.741 88.0286C275.777 88.2103 275.815 88.4416 275.852 88.6194C275.88 88.7563 275.953 89.4323 276.182 89.4129C276.195 89.2501 276.184 89.1009 276.164 88.9385C276.147 88.7973 276.153 88.6407 276.257 88.5201C276.362 88.3982 276.753 88.2478 276.917 88.201C277.316 88.0877 278.028 87.9477 278.434 87.8704C278.637 87.8317 278.84 87.8004 279.045 87.7791C279.211 87.7621 279.406 87.7517 279.565 87.7834C279.663 87.8027 279.755 87.8511 279.794 87.9288C279.823 87.9864 279.821 88.0537 279.824 88.1183C279.83 88.2343 279.852 88.3487 279.892 88.4574C279.909 88.5054 279.952 88.5614 280.009 88.5425C280.056 88.5274 280.073 88.4748 280.071 88.4334C280.064 88.2304 280.026 88.0866 280.004 87.8522C279.994 87.744 279.967 87.5978 279.96 87.4884C279.953 87.3812 279.947 87.2737 279.934 87.1674Z" fill="#455A64"/>
<path d="M281.721 93.8967C281.772 94.1345 282.087 95.7115 281.587 96.0587C281.046 96.4346 280.683 95.208 280.683 95.208C280.683 95.208 279.364 95.0158 277.501 95.9373C277.61 96.1864 277.357 97.0781 276.829 96.9559C276.303 96.8345 276.014 95.0174 276.011 94.9938C276.006 96.6109 276.131 97.8774 277.139 98.9203C278.412 100.238 280.813 98.9648 281.458 97.8708C282.102 96.7768 282.171 96.0147 281.835 94.3642C281.802 94.1987 281.763 94.0444 281.721 93.8967Z" fill="#37474F"/>
<path d="M280.539 95.3328C280.575 95.9391 281.27 95.6541 281.261 94.7934C281.252 93.9326 280.606 91.9604 280.543 90.4848C280.434 88.4593 280.343 87.148 279.934 87.167C279.936 87.1874 279.937 87.2079 279.939 87.2284L280.032 88.0722C280.049 88.1944 280.067 88.3027 280.072 88.4334C280.139 89.6708 280.144 92.0741 280.322 93.192C280.5 94.3107 280.503 94.7264 280.539 95.3328Z" fill="#37474F"/>
<path d="M277.72 95.8957C277.558 95.3145 277.427 94.9243 277.232 93.8095C277.039 92.7031 276.361 90.4862 276.026 89.2944C275.917 89.0984 275.873 88.7179 275.852 88.6189C275.817 88.4526 275.783 88.2415 275.749 88.0663C275.745 88.0539 275.742 88.0419 275.74 88.0295C275.489 88.1633 275.57 89.1223 275.701 89.6192C275.831 90.1161 275.99 90.6486 276.153 91.3617C276.569 92.7666 276.6 94.8733 276.869 95.6822C277.138 96.4912 277.882 96.4769 277.72 95.8957Z" fill="#37474F"/>
<path d="M277.463 95.9912C277.482 95.9874 277.5 95.9808 277.517 95.9711C277.532 95.9626 278.984 95.1498 280.649 95.3373C280.731 95.3462 280.812 95.2956 280.83 95.2248C280.849 95.1537 280.797 95.0887 280.716 95.0794C278.933 94.8787 277.43 95.7225 277.366 95.7588C277.294 95.8002 277.268 95.881 277.31 95.9398C277.342 95.9839 277.404 96.0028 277.463 95.9912Z" fill="#263238"/>
<path d="M277.061 94.7119C277.078 94.7084 277.095 94.7026 277.111 94.6945C277.127 94.6859 278.762 93.8321 280.618 93.986C280.7 93.9918 280.779 93.9404 280.795 93.8689C280.81 93.7973 280.756 93.7339 280.674 93.7269C278.712 93.5653 277.04 94.4396 276.969 94.4764C276.895 94.5158 276.867 94.5962 276.906 94.6566C276.936 94.7037 276.999 94.7242 277.061 94.7119Z" fill="#263238"/>
<path d="M280.461 92.7455C280.518 92.7342 280.567 92.6956 280.585 92.6441C280.608 92.5734 280.563 92.5049 280.483 92.491C278.628 92.1708 276.856 93.1677 276.781 93.2106C276.709 93.252 276.684 93.3328 276.726 93.3916C276.768 93.45 276.861 93.4624 276.933 93.4226C276.95 93.4133 278.671 92.4462 280.397 92.7462C280.418 92.7505 280.44 92.7497 280.461 92.7455Z" fill="#263238"/>
<path d="M280.301 91.5767C280.357 91.5654 280.406 91.5279 280.424 91.4777C280.45 91.4069 280.405 91.3381 280.326 91.323C278.284 90.9371 276.619 91.9962 276.549 92.0411C276.48 92.0863 276.46 92.1679 276.507 92.224C276.553 92.2801 276.649 92.2886 276.717 92.2437C276.732 92.2337 278.335 91.2186 280.235 91.5774C280.257 91.5813 280.279 91.5809 280.301 91.5767Z" fill="#263238"/>
<path d="M280.115 90.2647C280.17 90.2535 280.219 90.2171 280.238 90.1673C280.264 90.0973 280.221 90.0277 280.142 90.0114C278.227 89.624 276.416 90.721 276.34 90.7686C276.269 90.8119 276.248 90.8939 276.292 90.9507C276.336 91.0079 276.43 91.0195 276.501 90.9747C276.519 90.9638 278.269 89.9047 280.046 90.2647C280.07 90.2693 280.093 90.2693 280.115 90.2647Z" fill="#263238"/>
<path d="M277.604 46.0096C278.376 55.7764 278.562 69.1467 278.562 69.1467C278.631 69.8884 279.162 71.1595 279.522 74.8184C279.901 78.678 279.811 84.1265 279.811 84.1265C279.811 84.1265 277.113 85.5673 274.895 84.8384C274.895 84.8384 272.839 76.2677 271.706 71.719C270.633 67.4143 269.183 60.2125 269.183 60.2125L267.123 69.4863C267.123 69.4863 267.273 72.2701 267.187 74.2179C267.088 76.4831 265.136 83.8245 265.136 83.8245C265.136 83.8245 262.261 85.4966 259.959 83.7568C259.959 83.7568 260.147 71.045 260.085 68.3196C259.963 62.9739 260.28 51.7405 260.485 44.8391L277.604 46.0096Z" fill="#275ADE"/>
<path opacity="0.3" d="M277.604 46.0096C278.376 55.7764 278.562 69.1467 278.562 69.1467C278.631 69.8884 279.162 71.1595 279.522 74.8184C279.901 78.678 279.811 84.1265 279.811 84.1265C279.811 84.1265 277.113 85.5673 274.895 84.8384C274.895 84.8384 272.839 76.2677 271.706 71.719C270.633 67.4143 269.183 60.2125 269.183 60.2125L267.123 69.4863C267.123 69.4863 267.273 72.2701 267.187 74.2179C267.088 76.4831 265.136 83.8245 265.136 83.8245C265.136 83.8245 262.261 85.4966 259.959 83.7568C259.959 83.7568 260.147 71.045 260.085 68.3196C259.963 62.9739 260.28 51.7405 260.485 44.8391L277.604 46.0096Z" fill="black"/>
<path opacity="0.2" d="M269.183 60.2122L267.995 53.906C267.995 53.906 265.307 53.5201 263.93 52.3C263.93 52.3 264.817 53.913 267.353 54.5452L268.482 60.8715L267.123 69.4863L269.183 60.2122Z" fill="black"/>
<path d="M279.871 84.2349C279.314 84.9612 276.842 85.6854 274.856 85.0203L274.514 83.5176C276.013 83.9855 278.619 83.5462 279.845 82.5996L279.871 84.2349Z" fill="#275ADE"/>
<path d="M265.092 84.2507C264.39 84.8423 261.742 85.1049 259.945 84.0353L259.918 82.27C261.281 83.0438 264.093 83.3029 265.495 82.6366L265.092 84.2507Z" fill="#275ADE"/>
<path d="M247.245 44.6007C246.364 44.3837 246.183 44.3617 245.523 44.255C245.083 44.1834 244.832 44.3644 243.799 44.9711C242.725 45.6018 242.54 45.883 242.452 46.219C242.348 46.6161 242.616 46.9506 242.76 47.0094C242.426 47.2337 242.474 47.8628 242.966 48.0767C242.677 48.3907 242.846 48.859 243.221 48.9997C243.06 49.1931 243.157 49.9131 243.809 50.055C244.503 50.2058 245.514 50.2352 245.514 50.2352L247.245 44.6007Z" fill="#F28F8F"/>
<path d="M249.684 90.9768L240.784 4.00182L241.525 3.92603L250.426 90.9061C250.445 91.1988 249.707 91.261 249.684 90.9768Z" fill="#455A64"/>
<path d="M245.515 50.2343C245.724 50.2336 245.983 49.889 246.174 49.6616C246.364 49.4346 246.605 49.1601 246.581 48.9698C246.547 48.7026 246.169 48.7092 246.169 48.7092C246.169 48.7092 246.21 48.6848 246.351 48.5394C246.582 48.3028 246.144 48.0004 245.766 48.1524C245.766 48.1524 245.927 48.0518 245.928 47.9432C245.93 47.7363 245.731 47.4563 245.386 47.4807C245.654 47.3399 245.55 46.9594 245.358 46.6702C245.289 46.6702 245.22 46.6744 245.152 46.6825C244.921 47.7699 245.087 48.9675 245.515 50.2343Z" fill="#F28F8F"/>
<path d="M243.221 48.9989C243.469 49.0924 243.731 49.1388 243.988 49.1957C244.247 49.2463 244.507 49.2993 244.767 49.3225C245.023 49.374 245.261 49.2405 245.493 49.1238C245.724 48.9989 245.949 48.8577 246.169 48.7092C245.97 48.8859 245.759 49.0495 245.53 49.1883C245.306 49.3183 245.042 49.4652 244.758 49.4184C244.49 49.3863 244.229 49.3345 243.971 49.2676C243.715 49.198 243.456 49.1253 243.221 48.9989Z" fill="#B16668"/>
<path d="M245.766 48.1525C245.55 48.2642 245.336 48.381 245.104 48.4661C244.989 48.5094 244.868 48.545 244.734 48.5415C244.604 48.5299 244.489 48.5021 244.368 48.4777C243.895 48.3632 243.425 48.2383 242.966 48.0759C243.446 48.1606 243.916 48.2805 244.389 48.3837C244.506 48.4108 244.627 48.4417 244.739 48.4541C244.849 48.4615 244.966 48.4274 245.08 48.3961C245.31 48.3257 245.536 48.2318 245.766 48.1525Z" fill="#B16668"/>
<path d="M245.386 47.4807C245.176 47.5565 244.962 47.6791 244.717 47.6462C244.481 47.6195 244.268 47.5399 244.047 47.4795C243.613 47.338 243.18 47.1918 242.761 47.0085C243.206 47.1157 243.639 47.2564 244.075 47.3871C244.292 47.4544 244.51 47.5329 244.726 47.5723C244.944 47.6176 245.162 47.5248 245.386 47.4807Z" fill="#B16668"/>
<path d="M241.961 4.04554C241.913 4.49604 241.508 4.82202 241.057 4.7733C240.606 4.72457 240.28 4.3197 240.329 3.86882C240.378 3.41793 240.783 3.09233 241.234 3.14106C241.685 3.18978 242.011 3.59465 241.961 4.04554Z" fill="#37474F"/>
<path d="M241.778 2.50578C241.831 2.95589 241.508 3.36347 241.058 3.41606C240.607 3.46827 240.2 3.14576 240.147 2.69526C240.013 1.53788 240.661 0 240.661 0C240.661 0 241.644 1.34802 241.778 2.50578Z" fill="#37474F"/>
<path d="M240.858 4.71924C236.209 11.5908 228.286 10.0362 222.046 10.3069C215.284 10.6 212.499 17.1376 210.767 20.2965C212.653 19.58 218.249 17.1183 220.112 18.3631C220.112 18.3631 213.239 23.92 213.99 31.2529C215.661 27.9409 218.418 23.8009 225.268 24.4857C231.284 25.087 238.91 26.0462 242.531 21.0884L240.858 4.71924Z" fill="#275ADE"/>
<path opacity="0.1" d="M236.006 21.7749C230.762 23.9764 216.163 20.4058 214.312 30.9308C215.983 27.6188 218.096 23.8011 224.946 24.4859C230.962 25.0872 238.91 26.0463 242.531 21.0885L240.858 4.71973C241.501 11.1636 241.25 19.5734 236.006 21.7749Z" fill="black"/>
<path opacity="0.7" d="M229.441 12.2122L230.659 14.9338L233.639 15.0262C233.818 15.0316 233.898 15.2524 233.766 15.3727L231.554 17.3711L232.387 20.2334C232.436 20.4055 232.252 20.5509 232.096 20.4616L229.512 18.9755L227.047 20.6522C226.899 20.7532 226.704 20.6221 226.741 20.4469L227.356 17.5297L224.999 15.7033C224.858 15.5935 224.922 15.3673 225.1 15.3483L228.064 15.0316L229.073 12.2262C229.133 12.0576 229.368 12.0487 229.441 12.2122Z" fill="white"/>
<path d="M254.68 46.1254C254.68 46.1254 251.959 47.3191 250.224 48.103C248.894 48.7008 248.882 48.8999 248.452 49.3771C247.973 49.908 246.249 50.0979 246.249 50.0979L246.2 49.6292C246.386 49.4084 246.603 49.1532 246.579 48.9711C246.546 48.7035 246.17 48.7081 246.17 48.7081C246.17 48.7081 246.209 48.6857 246.351 48.5415C246.525 48.359 246.32 48.1463 246.046 48.1142L245.987 47.5484C245.785 47.3512 245.619 47.147 245.495 46.9398V46.9359C245.439 46.8497 245.394 46.76 245.357 46.6703C245.33 46.6699 244.746 46.6629 244.26 47.0016C244.043 47.427 243.705 47.9506 243.101 47.9703C242.61 47.9842 242.602 47.7561 242.825 47.2457C243.124 46.5473 243.227 46.2089 243.477 45.8539C243.723 45.4951 245.104 44.8864 245.537 44.6935C245.97 44.5005 246.321 44.5032 247.136 44.5918C247.947 44.6765 248.193 44.5612 248.59 44.4255C248.983 44.2936 251.037 43.0322 251.037 43.0322L254.68 46.1254Z" fill="#FFA8A7"/>
<path d="M245.989 47.5476C246.436 48.1068 247.442 48.3535 248.206 48.2897C246.948 48.599 246.053 48.176 246.053 48.176L245.989 47.5476Z" fill="#F28F8F"/>
<path d="M262.94 27.3665C259.678 28.2234 259.188 29.4689 257.7 33.8042C256.366 37.6889 255.647 39.8555 255.647 39.8555L250.131 43.5508C250.131 43.5508 251.306 44.342 251.578 47.5372C251.578 47.5372 254.61 46.2259 257.491 45.0009C259.157 44.2929 259.539 43.7867 260.301 42.016C261.172 39.9905 262.911 35.7156 262.911 35.7156L262.94 27.3665Z" fill="#37474F"/>
<path d="M275.358 24.0736C276.767 23.0098 277.975 25.5388 278.451 27.3381C278.927 29.1374 278.782 31.5163 277.72 35.8999C277.48 36.891 277.278 39.1508 277.44 42.0425C277.609 45.0696 277.644 46.5696 277.799 48.7374C277.799 48.7374 274.019 51.474 267.083 50.8217C261.637 50.3093 260.352 47.8124 260.352 47.8124C260.352 47.8124 260.445 39.8724 260.662 35.8535C260.947 30.5747 261.746 28.2665 262.94 27.3659C262.94 27.3659 265.387 26.5659 269.052 25.7329C272.441 24.9626 273.895 25.1768 275.358 24.0736Z" fill="#455A64"/>
<path d="M264.844 14.7644C264.844 14.7644 264.036 14.8874 263.581 15.9519C263.352 16.4867 263.231 17.4399 264.165 20.0683C264.767 21.7601 265.39 22.4705 265.679 22.9322C265.968 23.3939 266.496 23.4894 266.496 23.4894L266.287 21.4306L266.102 19.9991C266.102 19.9991 267.182 18.8599 267.204 17.8197C267.232 16.4809 266.657 15.7671 266.657 15.7671L264.844 14.7644Z" fill="#37474F"/>
<path d="M264.568 14.8549C264.682 13.6801 266.049 12.1859 268.874 11.8209C271.189 11.522 272.609 12.2188 273.52 13.5131C274.432 14.8074 274.03 16.6028 274.03 16.6028L266.691 16.6755L264.568 14.8549Z" fill="#37474F"/>
<path d="M264.447 22.1767C265.555 22.616 265.979 21.7335 265.979 21.7335L266.393 26.4968C264.602 29.23 268.779 29.9121 271.458 26.5204C271.648 26.2791 271.749 25.9779 271.73 25.6712L271.641 24.3043C271.641 24.3043 272 24.278 272.56 24.1442C273.495 23.9234 274.032 23.1272 274.237 22.0812C274.55 20.4768 274.518 17.9134 273.667 15.2749C273.524 14.8326 273.204 14.4528 272.763 14.3055C271.634 13.9281 270.659 14.7835 269.173 15.4957C268.537 15.8005 266.956 16.0325 266.522 15.8674C267.12 16.435 267.114 18.3403 266.596 19.1709C266.417 19.4586 266.246 19.655 266.138 19.7649C265.815 20.092 265.472 19.3364 265.159 19.0541C264.843 18.7745 263.732 18.5847 263.337 19.6206C262.939 20.6751 263.42 21.7699 264.447 22.1767Z" fill="#FFA8A7"/>
<path d="M271.641 24.3046C270.399 24.3908 269.286 24.3204 268.53 24.0667C267.774 23.8131 267.05 22.8707 266.763 21.9036C266.822 22.6947 267.275 24.0718 268.43 24.571C269.585 25.0702 270.88 25.0041 271.694 24.9604L271.641 24.3046Z" fill="#F28F8F"/>
<path d="M269.284 16.9593L268.433 17.7211C268.225 17.4744 268.247 17.1035 268.482 16.8932C268.716 16.6828 269.076 16.7126 269.284 16.9593Z" fill="#37474F"/>
<path d="M273.204 16.7965L272.104 16.4875C272.201 16.1793 272.525 15.9987 272.829 16.0842C273.133 16.1696 273.3 16.4887 273.204 16.7965Z" fill="#37474F"/>
<path d="M268.9 18.4213C268.928 18.6765 269.158 18.8606 269.414 18.8324C269.669 18.8038 269.853 18.5737 269.825 18.3185C269.796 18.0632 269.566 17.8792 269.311 17.9074C269.055 17.936 268.871 18.1661 268.9 18.4213Z" fill="#263238"/>
<path d="M272.318 17.8676C272.346 18.1228 272.577 18.3069 272.832 18.2787C273.087 18.25 273.271 18.02 273.243 17.7647C273.214 17.5095 272.984 17.3255 272.729 17.3537C272.435 17.3866 272.285 17.5741 272.318 17.8676Z" fill="#263238"/>
<path d="M270.564 17.364L271.169 20.2886L272.686 19.5949C272.052 18.5952 271.345 17.8516 270.564 17.364Z" fill="#F28F8F"/>
<path d="M270.036 21.0359L271.273 21.3441C271.195 21.6975 270.855 21.9148 270.513 21.8298C270.172 21.7447 269.958 21.3893 270.036 21.0359Z" fill="#B16668"/>
<path d="M270.18 21.2441C270.128 21.2367 270.076 21.2371 270.026 21.241C270.05 21.5175 270.239 21.7615 270.513 21.8299C270.582 21.847 270.651 21.8489 270.717 21.8427C270.745 21.5565 270.51 21.2909 270.18 21.2441Z" fill="#F28F8F"/>
<path d="M292.659 3.4226C293 3.49783 293.289 4.14771 292.893 4.63365C293.493 4.27018 293.67 4.19165 294.002 4.6102C294.227 4.89318 294.006 5.33486 294.006 5.33486C294.006 5.33486 294.396 5.13211 294.638 5.50191C294.88 5.87135 294.668 6.19434 294.668 6.19434C294.668 6.19434 294.957 6.07949 295.128 6.45238C295.276 6.77531 295.247 7.087 295.125 7.36871L294.888 7.14596C294.888 7.14596 294.792 7.25309 294.62 7.31433C294.448 7.37558 294.223 7.66898 294.033 7.90542C293.842 8.14186 293.651 8.44283 293.366 8.4065C293.08 8.37016 292.932 8.14444 292.975 7.9666C293.018 7.78876 293.122 7.63412 293.122 7.63412C293.122 7.63412 292.824 7.9746 292.483 7.77423C292.143 7.57386 292.274 7.24813 292.344 7.03196C292.1 7.03345 291.855 7.00508 291.802 6.79616C291.749 6.58761 292.032 5.88382 292.032 5.88382L291.492 5.53812C291.492 5.53812 290.993 5.27114 291.139 4.87977C291.399 4.17617 292.288 3.34069 292.659 3.4226Z" fill="#FFA8A7"/>
<path d="M288.763 9.82912C288.963 9.24335 289.005 8.70761 288.958 8.06332C288.889 7.10853 289.357 6.50774 289.534 6.19236C289.898 5.54299 290.524 4.65813 290.695 4.53092C290.967 4.33019 291.495 4.38788 291.495 4.38788C291.959 4.4593 292.112 4.57166 292.112 4.57166L292.833 5.68715C292.833 5.68715 292.701 6.01155 292.426 6.01624C292.149 6.02082 292.01 5.91404 292.01 5.91404C292.01 5.91404 291.725 6.5593 291.819 6.75022C291.914 6.94115 292.01 7.02535 292.33 6.91661C292.272 7.17104 292.169 7.5571 292.439 7.71089C292.708 7.86467 293.122 7.63383 293.122 7.63383C293.122 7.63383 292.925 8.29895 293.134 8.39447C293.343 8.49027 294.684 6.65276 294.684 6.65276L295.124 7.36831C294.804 7.87591 293.85 9.45888 293.355 10.0428C292.859 10.6268 292.517 10.8857 292.089 12.0372C291.661 13.1886 289.239 20.1082 289.239 20.1082L285.46 17.5122C285.46 17.5122 288.564 10.4146 288.763 9.82912Z" fill="#FFA8A7"/>
<path d="M290.82 5.79211C290.82 5.79211 291.308 6.24541 291.661 6.93977C292.08 7.7635 292.131 8.68154 292.131 8.68154C292.238 8.10934 292.142 7.56004 291.979 7.09349C292.051 7.11553 292.133 7.11963 292.224 7.09645C292.104 7.39866 292.04 7.70405 292.418 7.85966C292.652 7.956 292.798 7.91822 292.941 7.83265C292.881 7.99461 292.865 8.15796 293.009 8.32718C293.138 8.47803 293.377 8.5368 293.546 8.41926C293.58 8.39587 293.611 8.36941 293.64 8.34062C293.645 8.33561 293.65 8.33049 293.653 8.324C293.654 8.32113 293.654 8.31746 293.644 8.31352C293.625 8.32129 293.605 8.32859 293.585 8.33636C293.469 8.38141 293.254 8.40845 293.152 8.31433C293.067 8.23524 293.067 8.09751 293.079 7.99117C293.098 7.81789 293.208 7.65526 293.284 7.49988C293.287 7.49312 293.291 7.48609 293.289 7.47909C293.285 7.46067 293.257 7.4638 293.241 7.47231C293.145 7.5194 293.065 7.59104 292.973 7.64444C292.844 7.71982 292.709 7.72866 292.571 7.67101C292.302 7.5586 292.369 7.20029 292.464 6.9855C292.495 6.91437 292.531 6.84535 292.56 6.77263C292.564 6.76252 292.565 6.74738 292.555 6.74396C292.551 6.74302 292.548 6.74367 292.545 6.74432C292.494 6.7554 292.454 6.78704 292.413 6.81641C292.367 6.84856 292.318 6.87264 292.266 6.89334C292.2 6.91934 292.128 6.93475 292.059 6.91928C291.906 6.88538 291.898 6.73015 291.893 6.59976C291.885 6.38541 291.94 6.17518 292.04 5.98598C292.044 5.98007 292.045 5.97353 292.048 5.96752C292.064 5.97712 292.079 5.98552 292.097 5.99544C292.592 6.2747 292.979 5.83505 292.865 5.63575C292.751 5.43645 292.256 4.61534 292.087 4.51595C291.965 4.44364 291.876 4.43568 291.495 4.38854L292.032 4.57522C292.032 4.57522 292.786 5.64093 292.727 5.75365C292.666 5.87127 292.482 6.01191 292.208 5.91025C291.934 5.80859 291.501 5.45686 291.501 5.45686C291.399 5.65425 290.82 5.79211 290.82 5.79211ZM291.215 5.73147C291.346 5.73067 291.469 5.61766 291.469 5.61766C291.469 5.61766 291.579 5.69804 291.958 5.9158C291.881 5.97834 291.822 6.062 291.753 6.13407C291.715 6.17394 291.671 6.21018 291.621 6.23432C291.606 6.24175 291.592 6.24282 291.577 6.24633C291.382 5.92436 291.215 5.73147 291.215 5.73147Z" fill="#F28F8F"/>
<path d="M276.35 24.5131C277.96 23.3714 279.092 23.1664 279.908 22.5853C281.238 21.6383 284.296 18.9317 284.296 18.9317L287.643 12.2856C287.649 13.6332 290.12 15.4401 291.075 15.0271C291.075 15.0271 290.308 17.4789 288.846 21.589C288.327 23.0474 288.2 23.3037 285.474 25.6C284.187 26.6845 282.868 27.8724 280.779 29.7026C279.271 31.0248 277.893 32.2634 276.917 33.7174C276.584 34.3584 275.162 33.9423 274.818 31.4854C274.438 28.775 275.913 25.2958 276.35 24.5131Z" fill="#37474F"/>
</svg>
