<svg width="300" height="100" viewBox="0 0 300 100" fill="none" xmlns="http://www.w3.org/2000/svg">
<path d="M55.8428 36.8774L64.2733 41.7721L64.543 70.7712L57.9713 66.9626L51.9175 79.7776L38.9177 87.2829L30.4872 82.3882L43.8577 54.0842L37.1761 47.6546L55.8428 36.8774Z" fill="#275ADE"/>
<path opacity="0.8" d="M55.8428 36.8774L64.2733 41.7721L64.543 70.7712L57.9713 66.9626L51.9175 79.7776L38.9177 87.2829L30.4872 82.3882L43.8577 54.0842L37.1761 47.6546L55.8428 36.8774Z" fill="white"/>
<path d="M64.2733 41.7722L45.607 52.5498L52.2882 58.979L38.9177 87.283L51.9174 79.7776L58.7881 65.2334L64.543 70.7712L64.2733 41.7722Z" fill="#275ADE"/>
<path opacity="0.6" d="M64.2733 41.7722L45.607 52.5498L52.2882 58.979L38.9177 87.283L51.9174 79.7776L58.7881 65.2334L64.543 70.7712L64.2733 41.7722Z" fill="white"/>
<path opacity="0.6" d="M52.2882 58.9788L45.607 52.5496L37.1761 47.6545L43.8577 54.0841L52.2882 58.9788Z" fill="#275ADE"/>
<path opacity="0.6" d="M57.9713 66.9627L58.7881 65.2334L64.5431 70.7713L57.9713 66.9627Z" fill="#275ADE"/>
<path d="M40.491 64.2015C42.1569 65.1604 43.1877 67.2198 43.1877 70.1531C43.1873 76.016 39.071 83.1448 33.993 86.0759C31.445 87.5466 29.1402 87.6795 27.4755 86.7071C27.0421 86.454 25.2421 85.4612 24.8026 85.208C23.1383 84.2483 22.1082 82.1901 22.1082 79.2583C22.1086 73.3962 26.2253 66.2673 31.3029 63.3355C33.8401 61.8705 36.1365 61.7326 37.7993 62.6916" fill="#275ADE"/>
<path opacity="0.65" d="M33.993 86.0758C31.445 87.5465 29.1402 87.6794 27.4755 86.707C27.0421 86.4538 25.2421 85.461 24.8026 85.2078C23.1383 84.2485 22.1086 82.1903 22.1082 79.2593L33.993 86.0758Z" fill="black"/>
<path opacity="0.55" d="M38.7771 81.7649C37.3832 83.5518 35.7454 85.0636 33.9931 86.0752L22.1082 79.2587V79.2576C22.1082 77.2348 22.5988 75.061 23.4498 72.9609L38.7771 81.7649Z" fill="black"/>
<path opacity="0.4" d="M23.4503 72.9615C25.065 68.9758 27.9777 65.2556 31.3033 63.3358C33.8406 61.8708 36.1369 61.7329 37.7997 62.6918L40.4911 64.2017C42.1569 65.1607 43.1878 67.22 43.1878 70.1534C43.1874 73.9927 41.422 78.3749 38.7775 81.7654L23.4503 72.9615Z" fill="black"/>
<path d="M40.4964 68.6432C40.4945 74.5061 36.3797 81.6349 31.3017 84.5656C26.2241 87.4962 22.1082 85.12 22.1082 79.2578C22.1086 73.3957 26.2226 66.2623 31.3025 63.3351C36.3824 60.409 40.4983 62.7853 40.4964 68.6432Z" fill="#275ADE"/>
<path opacity="0.2" d="M40.4964 68.6432C40.4945 74.5061 36.3797 81.6349 31.3017 84.5656C26.2241 87.4962 22.1082 85.12 22.1082 79.2578C22.1086 73.3957 26.2226 66.2623 31.3025 63.3351C36.3824 60.409 40.4983 62.7853 40.4964 68.6432Z" fill="black"/>
<path d="M38.1993 69.9695C38.1989 74.3678 35.1111 79.7155 31.3017 81.9139C27.4928 84.1126 24.405 82.3296 24.4053 77.932C24.4057 73.5345 27.4935 68.1868 31.3025 65.9876C35.1118 63.7885 38.1996 65.5712 38.1993 69.9695Z" fill="#FAFAFA"/>
<path d="M36.1084 71.1761C36.1084 74.2408 33.9565 77.9672 31.3021 79.4994C28.6477 81.0316 26.4961 79.7891 26.4965 76.7247C26.4965 73.6603 28.6484 69.934 31.3029 68.4014C33.9569 66.8692 36.1084 68.1113 36.1084 71.1761Z" fill="#275ADE"/>
<path opacity="0.2" d="M36.1084 71.1761C36.1084 74.2408 33.9565 77.9672 31.3021 79.4994C28.6477 81.0316 26.4961 79.7891 26.4965 76.7247C26.4965 73.6603 28.6484 69.934 31.3029 68.4014C33.9569 66.8692 36.1084 68.1113 36.1084 71.1761Z" fill="black"/>
<path d="M33.9627 72.4146C33.9627 74.1109 32.7713 76.1736 31.3021 77.0216C29.8329 77.8695 28.6419 77.1818 28.6419 75.4859C28.6419 73.7897 29.8333 71.7269 31.3021 70.879C32.7721 70.0307 33.9627 70.7184 33.9627 72.4146Z" fill="#FAFAFA"/>
<path d="M32.4247 73.3027C32.4247 74.0184 31.9222 74.8886 31.3025 75.2463C30.6828 75.604 30.1802 75.3139 30.1802 74.5986C30.1802 73.8832 30.6828 73.013 31.3025 72.6549C31.9222 72.2972 32.4247 72.5873 32.4247 73.3027Z" fill="#455A64"/>
<path d="M13.2459 63.6277C13.2459 63.6277 10.8043 64.791 9.55872 64.0718C8.31314 63.3526 9.86493 61.6755 10.6725 62.142L13.2459 63.6277Z" fill="#275ADE"/>
<path d="M13.2459 63.6278C13.2459 63.6278 13.0327 60.9315 11.7871 60.2122C10.5415 59.493 9.86493 61.6757 10.6729 62.1417L13.2459 63.6278Z" fill="#275ADE"/>
<path opacity="0.5" d="M13.2459 63.6278C13.2459 63.6278 13.0327 60.9315 11.7871 60.2122C10.5415 59.493 9.86493 61.6757 10.6729 62.1417L13.2459 63.6278Z" fill="white"/>
<path d="M27.749 72.3106L8.56555 61.2395L8.8441 60.7673L28.3403 72.0186L27.749 72.3106Z" fill="#37474F"/>
<path d="M9.61249 61.0203C9.61249 61.4656 9.25134 61.8267 8.80644 61.8267C8.36115 61.8267 8 61.4656 8 61.0203C8 60.575 8.36115 60.2139 8.80644 60.2139C9.25134 60.2143 9.61249 60.575 9.61249 61.0203Z" fill="#263238"/>
<path d="M27.545 71.876C26.4601 71.74 25.7527 73.5292 25.7527 73.5292L31.193 73.9822L27.545 71.876Z" fill="#275ADE"/>
<path d="M27.545 71.876C26.4601 71.74 25.7527 73.5292 25.7527 73.5292L31.193 73.9822L27.545 71.876Z" fill="#275ADE"/>
<path d="M28.0806 69.4976C28.0806 69.4976 26.8846 71.0048 27.545 71.8761L31.193 73.9823L28.0806 69.4976Z" fill="#275ADE"/>
<path opacity="0.5" d="M28.0806 69.4976C28.0806 69.4976 26.8846 71.0048 27.545 71.8761L31.193 73.9823L28.0806 69.4976Z" fill="white"/>
<path d="M68.1914 86.7632L68.9318 82.4851L63.7501 82.7913C63.7501 82.7913 63.6813 85.0462 63.508 86.5976C63.4239 87.3514 62.5725 88.6988 62.5725 88.6988C62.5725 88.6988 65.2504 89.9221 66.486 89.4579C67.7216 88.9938 68.3332 87.477 68.3048 87.152C68.2763 86.8266 68.1914 86.7632 68.1914 86.7632Z" fill="#FFA8A7"/>
<path d="M56.4487 93.6913C56.3703 93.6928 56.2647 94.4716 56.6961 94.794C57.1941 95.1659 58.6475 95.7648 60.55 95.5078C62.453 95.2508 63.4765 94.7014 64.2299 94.1135C64.9833 93.5253 66.0391 92.6962 66.8986 92.5091C67.6969 92.3355 68.5618 91.9931 68.8142 91.7657C69.067 91.5382 69.0147 90.5493 69.0147 90.5493L56.4487 93.6913Z" fill="#263238"/>
<path d="M68.1922 86.7554C68.1922 86.7554 68.4315 86.7534 68.4846 86.9817C68.5479 87.2533 68.6244 88.0451 68.7577 88.4904C68.9429 89.1094 69.0816 90.3822 68.9848 90.8913C68.8883 91.4003 67.5878 91.7769 66.7583 92.0781C65.9108 92.3858 64.9349 93.0055 64.0801 93.6629C63.1953 94.3433 61.3223 95.0691 60.0794 95.084C58.6091 95.1017 56.9467 94.7045 56.5571 94.0986C56.0753 93.349 55.7188 92.4746 57.8833 91.5264C58.2933 91.3469 59.7298 90.549 60.2193 90.26C61.5432 89.479 62.4722 88.7678 63.065 87.4181C63.1342 87.2606 63.2068 87.0858 63.3716 87.0032C63.498 86.9398 63.6517 86.9455 63.795 86.9609C64.1589 87.0001 65.6104 87.1526 65.9438 87.2883C66.2385 87.4081 66.6558 87.5464 66.6554 87.8834C66.655 88.0006 66.6193 88.1154 66.5789 88.2272C66.554 88.2964 66.5351 88.3882 66.6024 88.4278C66.6661 88.4651 66.7495 88.4197 66.8056 88.3728C67.0307 88.185 67.194 87.9464 67.3827 87.7282C67.4837 87.6114 67.594 87.4992 67.7223 87.4058C67.8387 87.3213 67.9889 87.2771 68.0919 87.1814C68.2225 87.0597 68.1883 86.9133 68.1922 86.7554Z" fill="#455A64"/>
<path d="M64.0802 93.6625C64.4559 93.3736 64.8547 93.0939 65.2562 92.8426V92.8407C65.2562 92.8407 62.7159 94.2891 61.6693 93.6725C60.995 93.2752 61.3043 92.7715 61.3178 92.6121C61.3312 92.4526 58.9565 91.3738 58.3072 91.3162C58.1281 91.4091 57.9779 91.4844 57.8838 91.5256C55.7188 92.4738 56.0754 93.3486 56.5575 94.0978C56.9471 94.7037 58.1539 95.1593 60.0541 95.124C61.2966 95.1017 63.1954 94.3429 64.0802 93.6625Z" fill="#37474F"/>
<path d="M61.4891 92.1453C60.1417 92.6574 60.7237 92.8745 61.1041 92.916C61.4844 92.9579 63.7462 91.7177 65.1217 90.7023C66.5563 89.643 67.4526 88.4977 67.9855 88.1089C68.1841 87.9637 68.3977 87.7862 68.5875 87.6206C68.5476 87.3532 68.5145 87.1092 68.4846 86.9817C68.4315 86.7534 68.1922 86.7554 68.1922 86.7554L68.1346 87.0992C68.0312 87.1949 67.8391 87.3209 67.7223 87.4054C67.594 87.4988 67.4833 87.611 67.3827 87.7278C67.194 87.946 67.0308 88.1846 66.8056 88.3725C65.6438 89.7444 62.8368 91.6328 61.4891 92.1453Z" fill="#37474F"/>
<path d="M61.1974 92.735C61.2274 92.7347 61.2574 92.725 61.282 92.7062C61.3388 92.6632 61.3461 92.5871 61.2981 92.536C60.9085 92.1219 59.0786 91.1564 58.0831 91.2732C58.0094 91.2816 57.9571 91.3423 57.9663 91.408C57.9752 91.4737 58.0347 91.519 58.1158 91.5121C59.0455 91.4049 60.7844 92.3643 61.0929 92.6924C61.1198 92.7216 61.1586 92.7358 61.1974 92.735Z" fill="#263238"/>
<path d="M62.3693 92.0592C62.3992 92.0589 62.4292 92.0493 62.4538 92.0304C62.5106 91.9874 62.5176 91.9109 62.4699 91.8602C62.0807 91.4464 60.2516 90.4817 59.2549 90.5977C59.1812 90.6062 59.1289 90.6669 59.1381 90.7326C59.147 90.7987 59.2123 90.8452 59.2876 90.8367C60.2177 90.7307 61.9562 91.6885 62.2648 92.0166C62.2913 92.0454 62.3301 92.06 62.3693 92.0592Z" fill="#263238"/>
<path d="M63.5418 91.4177C63.5718 91.4173 63.6017 91.4077 63.6263 91.3889C63.6832 91.3458 63.6901 91.2698 63.6425 91.2187C63.2529 90.8045 61.4233 89.8382 60.4275 89.9562C60.3537 89.9646 60.3015 90.0253 60.3107 90.091C60.3195 90.1567 60.3837 90.2036 60.4601 90.1952C61.3903 90.088 63.1288 91.0465 63.4373 91.375C63.4638 91.4042 63.5026 91.4185 63.5418 91.4177Z" fill="#263238"/>
<path d="M64.6257 90.6901C64.6556 90.6893 64.6856 90.6801 64.7102 90.6613C64.7671 90.6182 64.774 90.5422 64.7263 90.4915C64.3371 90.0773 62.5033 89.1122 61.5113 89.229C61.4376 89.2374 61.3853 89.2981 61.3945 89.3638C61.4034 89.4299 61.4679 89.476 61.544 89.4679C62.473 89.3615 64.2127 90.3193 64.5212 90.6478C64.5481 90.6763 64.5869 90.6909 64.6257 90.6901Z" fill="#263238"/>
<path d="M65.6876 89.9623C65.7168 89.962 65.746 89.9527 65.7702 89.9347C65.8278 89.8924 65.8359 89.816 65.789 89.7649C65.253 89.1774 63.3405 88.3779 62.345 88.4943C62.2713 88.5028 62.219 88.5635 62.2282 88.6292C62.2371 88.6953 62.302 88.7398 62.3777 88.7333C63.274 88.6288 65.1055 89.3976 65.5811 89.9182C65.6088 89.9485 65.6484 89.9631 65.6876 89.9623Z" fill="#263238"/>
<path d="M79.2771 88.0559L78.2179 84.0864L83.2897 83.4229L83.4438 87.2499C83.4438 87.2499 83.9559 88.6238 83.6374 89.1213C83.3189 89.6188 79.9468 90.1291 79.6394 89.7956C79.3321 89.4621 79.2771 88.0559 79.2771 88.0559Z" fill="#FFA8A7"/>
<path d="M79.6325 96.6793C79.7743 97.9061 80.0378 98.7002 80.5865 99.3668C81.1351 100.033 82.1179 100.151 83.0926 99.8271C84.0673 99.5032 85.2376 98.6756 85.5346 97.6944C85.86 96.6198 85.6767 95.8713 85.4001 94.7502L79.6325 96.6793Z" fill="#263238"/>
<path d="M83.4438 87.2504C83.8507 87.2316 83.7389 88.9113 84.0493 90.5468C84.3824 92.2999 85.0413 92.9661 85.3329 94.4011C85.666 96.0409 85.5976 96.7981 84.9575 97.885C84.3175 98.9719 81.9316 100.237 80.6664 98.9278C79.6352 97.8605 79.5342 96.5584 79.5461 94.8822C79.5584 93.149 79.5834 91.9284 79.44 90.6306C79.3033 89.39 78.9325 88.2851 79.2783 88.106C79.314 88.2866 79.3513 88.5163 79.3882 88.6931C79.4166 88.8291 79.4885 89.5007 79.7159 89.4814C79.7293 89.3197 79.7186 89.1714 79.6986 89.01C79.6813 88.8698 79.6879 88.7142 79.7912 88.5943C79.8949 88.4733 80.2837 88.3239 80.4466 88.2774C80.8428 88.1648 81.5501 88.0257 81.9542 87.9489C82.1556 87.9105 82.3577 87.8793 82.5609 87.8582C82.7253 87.8413 82.9197 87.8309 83.0776 87.8624C83.1748 87.8816 83.2659 87.9297 83.3051 88.0069C83.3339 88.0641 83.332 88.131 83.3351 88.1951C83.3404 88.3104 83.3627 88.4241 83.4019 88.5321C83.4188 88.5797 83.4619 88.6354 83.5191 88.6166C83.5656 88.6016 83.5821 88.5494 83.5806 88.5083C83.5729 88.3066 83.536 88.1636 83.5141 87.9308C83.5041 87.8232 83.4764 87.678 83.4695 87.5693C83.4634 87.4629 83.4572 87.3561 83.4438 87.2504Z" fill="#455A64"/>
<path d="M85.2192 93.9365C85.2699 94.1728 85.583 95.7396 85.0862 96.0846C84.5487 96.458 84.188 95.2394 84.188 95.2394C84.188 95.2394 82.8779 95.0484 81.0264 95.9639C81.1351 96.2114 80.8839 97.0973 80.3587 96.9759C79.8369 96.8553 79.5495 95.0499 79.5461 95.0265C79.5415 96.6332 79.6656 97.8915 80.6668 98.9277C81.932 100.237 84.3178 98.9718 84.9579 97.8849C85.598 96.798 85.6664 96.0408 85.3333 94.401C85.2999 94.2366 85.261 94.0833 85.2192 93.9365Z" fill="#37474F"/>
<path d="M84.0451 95.3631C84.0812 95.9655 84.7716 95.6824 84.7624 94.8272C84.7535 93.9719 84.1119 92.0125 84.0493 90.5464C83.9409 88.534 83.8507 87.2311 83.4438 87.25C83.4465 87.2703 83.4469 87.2907 83.4488 87.311L83.5414 88.1494C83.5587 88.2708 83.5759 88.3784 83.5809 88.5082C83.6482 89.7377 83.6532 92.1254 83.8299 93.2362C84.0066 94.3477 84.0093 94.7607 84.0451 95.3631Z" fill="#37474F"/>
<path d="M81.2442 95.9223C81.0837 95.3449 80.953 94.9572 80.7598 93.8496C80.5681 92.7504 79.8946 90.5478 79.5615 89.3636C79.4527 89.1689 79.4089 88.7908 79.3886 88.6925C79.354 88.5272 79.3194 88.3175 79.286 88.1434C79.2825 88.1311 79.2795 88.1192 79.2768 88.1069C79.0274 88.2399 79.1085 89.1927 79.238 89.6864C79.3674 90.1801 79.5257 90.7091 79.6871 91.4176C80.1013 92.8134 80.1316 94.9065 80.399 95.7102C80.666 96.514 81.4048 96.4998 81.2442 95.9223Z" fill="#37474F"/>
<path d="M80.9888 96.0174C81.0076 96.0135 81.0256 96.007 81.0429 95.9974C81.0571 95.9889 82.4998 95.1814 84.1549 95.3677C84.2364 95.3765 84.3167 95.3262 84.3347 95.2559C84.3532 95.1852 84.3017 95.1207 84.2206 95.1114C82.4499 94.912 80.9561 95.7504 80.8927 95.7865C80.8209 95.8276 80.7955 95.9079 80.8374 95.9663C80.8689 96.0101 80.93 96.0289 80.9888 96.0174Z" fill="#263238"/>
<path d="M80.5896 94.7461C80.6065 94.7427 80.623 94.7369 80.6392 94.7289C80.6553 94.7204 82.2801 93.8721 84.1235 94.025C84.2049 94.0308 84.2837 93.9797 84.2994 93.9086C84.3148 93.8375 84.261 93.7745 84.1796 93.7676C82.2297 93.607 80.5685 94.4757 80.4985 94.5122C80.4252 94.5514 80.3967 94.6313 80.4355 94.6912C80.4659 94.7381 80.5285 94.7584 80.5896 94.7461Z" fill="#263238"/>
<path d="M83.9675 92.7925C84.0239 92.7813 84.0735 92.7429 84.0912 92.6918C84.1142 92.6215 84.0689 92.5535 83.9894 92.5397C82.1464 92.2216 80.3863 93.212 80.3118 93.2547C80.2396 93.2958 80.2146 93.3761 80.2565 93.4345C80.2983 93.4925 80.3909 93.5048 80.462 93.4652C80.4789 93.456 82.189 92.4951 83.9037 92.7932C83.9248 92.7975 83.9467 92.7967 83.9675 92.7925Z" fill="#263238"/>
<path d="M83.8088 91.6314C83.8645 91.6202 83.9133 91.583 83.9314 91.533C83.9564 91.4627 83.9126 91.3943 83.8334 91.3793C81.8048 90.9959 80.1505 92.0482 80.0813 92.0928C80.0121 92.1377 79.9929 92.2188 80.039 92.2745C80.0852 92.3302 80.18 92.3387 80.2477 92.2941C80.263 92.2841 81.8552 91.2756 83.7427 91.6321C83.765 91.636 83.7873 91.6356 83.8088 91.6314Z" fill="#263238"/>
<path d="M83.6244 90.3277C83.6789 90.3166 83.7277 90.2805 83.7462 90.2309C83.7723 90.1614 83.7296 90.0922 83.6505 90.0761C81.7483 89.6911 79.9487 90.7811 79.873 90.8283C79.8023 90.8714 79.7816 90.9528 79.8258 91.0093C79.8696 91.0662 79.9626 91.0777 80.0333 91.0331C80.0509 91.0224 81.7894 89.97 83.5556 90.3277C83.579 90.3323 83.6021 90.3323 83.6244 90.3277Z" fill="#263238"/>
<path d="M81.129 46.3583C81.8958 56.062 82.081 69.3461 82.081 69.3461C82.1498 70.083 82.6769 71.3459 83.0346 74.9812C83.4115 78.8159 83.322 84.2292 83.322 84.2292C83.322 84.2292 80.641 85.6608 78.4376 84.9365C78.4376 84.9365 76.3952 76.4211 75.2691 71.9018C74.2034 67.6249 72.7626 60.4696 72.7626 60.4696L70.716 69.6834C70.716 69.6834 70.8651 72.4493 70.7798 74.3845C70.6806 76.6351 68.7412 83.9292 68.7412 83.9292C68.7412 83.9292 65.8851 85.5905 63.5975 83.8619C63.5975 83.8619 63.785 71.2321 63.7232 68.5243C63.6021 63.2131 63.9168 52.0521 64.12 45.1953L81.129 46.3583Z" fill="#275ADE"/>
<path opacity="0.3" d="M81.129 46.3583C81.8958 56.062 82.081 69.3461 82.081 69.3461C82.1498 70.083 82.6769 71.3459 83.0346 74.9812C83.4115 78.8159 83.322 84.2292 83.322 84.2292C83.322 84.2292 80.641 85.6608 78.4376 84.9365C78.4376 84.9365 76.3952 76.4211 75.2691 71.9018C74.2034 67.6249 72.7626 60.4696 72.7626 60.4696L70.716 69.6834C70.716 69.6834 70.8651 72.4493 70.7798 74.3845C70.6806 76.6351 68.7412 83.9292 68.7412 83.9292C68.7412 83.9292 65.8851 85.5905 63.5975 83.8619C63.5975 83.8619 63.785 71.2321 63.7232 68.5243C63.6021 63.2131 63.9168 52.0521 64.12 45.1953L81.129 46.3583Z" fill="black"/>
<path opacity="0.2" d="M72.7622 60.4693L71.5824 54.2037C71.5824 54.2037 68.9114 53.8203 67.5433 52.6082C67.5433 52.6082 68.425 54.2107 70.9438 54.8388L72.0661 61.1243L70.7156 69.6835L72.7622 60.4693Z" fill="black"/>
<path d="M83.3819 84.3367C82.8279 85.0582 80.3725 85.7778 78.3992 85.117L78.0588 83.624C79.5488 84.0889 82.1379 83.6524 83.3558 82.7119L83.3819 84.3367Z" fill="#275ADE"/>
<path d="M68.6978 84.3524C68.0009 84.9402 65.3695 85.2011 63.5845 84.1384L63.5568 82.3845C64.9115 83.1533 67.705 83.4107 69.0978 82.7487L68.6978 84.3524Z" fill="#275ADE"/>
<path d="M50.9658 44.9582C50.0902 44.7427 49.9108 44.7208 49.2554 44.6147C48.8181 44.5437 48.5684 44.7235 47.5422 45.3263C46.4749 45.9529 46.2909 46.2322 46.2037 46.5661C46.1011 46.9607 46.3666 47.293 46.5103 47.3514C46.1779 47.5742 46.2259 48.1993 46.7146 48.4118C46.4273 48.7238 46.5952 49.189 46.9678 49.3289C46.808 49.521 46.9041 50.2364 47.5518 50.3774C48.2415 50.5272 49.2465 50.5564 49.2465 50.5564L50.9658 44.9582Z" fill="#F28F8F"/>
<path d="M53.3893 91.035L44.5462 4.6212L45.2827 4.5459L54.1266 90.9647C54.1454 91.2556 53.4124 91.3174 53.3893 91.035Z" fill="#455A64"/>
<path d="M49.2469 50.5556C49.4548 50.5548 49.7126 50.2125 49.9016 49.9866C50.0906 49.761 50.3304 49.4883 50.3062 49.2992C50.2724 49.0338 49.897 49.0403 49.897 49.0403C49.897 49.0403 49.9373 49.0161 50.078 48.8716C50.3073 48.6365 49.872 48.336 49.4963 48.487C49.4963 48.487 49.6561 48.3871 49.6573 48.2792C49.6596 48.0736 49.4617 47.7955 49.1194 47.8197C49.3856 47.6798 49.2823 47.3018 49.0909 47.0144C49.0222 47.0144 48.9542 47.0186 48.8869 47.0267C48.6568 48.1071 48.822 49.2969 49.2469 50.5556Z" fill="#F28F8F"/>
<path d="M46.9678 49.3281C47.2145 49.421 47.4746 49.4671 47.7305 49.5236C47.9875 49.5739 48.2457 49.6266 48.5043 49.6496C48.7578 49.7007 48.9945 49.5682 49.2254 49.4521C49.4551 49.3281 49.678 49.1878 49.8966 49.0403C49.6995 49.2159 49.4897 49.3784 49.2619 49.5163C49.0398 49.6454 48.7774 49.7914 48.4946 49.7449C48.2292 49.713 47.9698 49.6615 47.7136 49.5951C47.4592 49.5259 47.2014 49.4537 46.9678 49.3281Z" fill="#B16668"/>
<path d="M49.4962 48.487C49.2815 48.598 49.0694 48.714 48.8392 48.7985C48.7248 48.8416 48.6041 48.8769 48.4712 48.8735C48.3421 48.8619 48.2276 48.8343 48.1077 48.8101C47.6375 48.6963 47.171 48.5723 46.7142 48.4109C47.191 48.495 47.6586 48.6141 48.1289 48.7167C48.2449 48.7436 48.3651 48.7743 48.4762 48.7866C48.5857 48.7939 48.7021 48.7601 48.8154 48.729C49.0433 48.6591 49.2676 48.5657 49.4962 48.487Z" fill="#B16668"/>
<path d="M49.1193 47.8194C48.9107 47.8948 48.6979 48.0165 48.4543 47.9839C48.2199 47.9574 48.0078 47.8782 47.7885 47.8183C47.357 47.6777 46.9275 47.5325 46.5106 47.3503C46.9528 47.4568 47.3835 47.5966 47.8169 47.7265C48.0317 47.7933 48.2484 47.8713 48.4631 47.9105C48.6794 47.9555 48.8969 47.8632 49.1193 47.8194Z" fill="#B16668"/>
<path d="M45.7165 4.66467C45.6681 5.11226 45.2658 5.43614 44.8178 5.38773C44.3699 5.33933 44.0464 4.93707 44.0948 4.48909C44.1432 4.04111 44.5454 3.71762 44.9934 3.76603C45.4414 3.81444 45.7653 4.21669 45.7165 4.66467Z" fill="#37474F"/>
<path d="M45.5348 3.13488C45.5866 3.58209 45.2662 3.98703 44.8186 4.03928C44.371 4.09115 43.9665 3.77073 43.9142 3.32314C43.7805 2.17323 44.4244 0.645264 44.4244 0.645264C44.4244 0.645264 45.4014 1.98458 45.5348 3.13488Z" fill="#37474F"/>
<path d="M44.6204 5.33423C40.0015 12.1615 32.1998 11.2311 26 11.5C19.2823 11.7912 16.2208 16.8615 14.5 20C16.3737 19.2881 21.0962 15.6189 22.9477 16.8556C22.9477 16.8556 18.2543 23.2147 19 30.5002C20.6601 27.2096 22.1943 24.8196 29 25.5C34.9774 26.0974 42.6848 26.5236 46.2824 21.5978L44.6204 5.33423Z" fill="#275ADE"/>
<path opacity="0.1" d="M39.7995 22.2796C34.5893 24.4669 21.3388 19.5429 19.5 30C21.1601 26.7093 21.6943 24.8196 28.5 25.5C34.4774 26.0974 42.6848 26.5235 46.2824 21.5976L44.6204 5.33447C45.2589 11.7368 45.0092 20.0924 39.7995 22.2796Z" fill="black"/>
<path opacity="0.7" d="M33.2773 12.7789L34.4867 15.4829L37.4474 15.5747C37.6253 15.5801 37.7056 15.7994 37.5738 15.9189L35.3758 17.9045L36.2033 20.7483C36.2529 20.9193 36.0693 21.0637 35.9152 20.975L33.3476 19.4985L30.8987 21.1644C30.7515 21.2647 30.5575 21.1344 30.594 20.9604L31.2049 18.062L28.8636 16.2474C28.723 16.1383 28.7868 15.9135 28.9635 15.8947L31.9088 15.5801L32.9108 12.7927C32.9711 12.6252 33.2047 12.6163 33.2773 12.7789Z" fill="white"/>
<path d="M58.3533 46.4731C58.3533 46.4731 55.65 47.6591 53.9254 48.4379C52.6041 49.0319 52.5922 49.2298 52.165 49.7039C51.6897 50.2314 49.9766 50.42 49.9766 50.42L49.9274 49.9543C50.1122 49.735 50.3281 49.4814 50.3047 49.3004C50.2712 49.0346 49.8982 49.0392 49.8982 49.0392C49.8982 49.0392 49.937 49.0169 50.078 48.8736C50.2505 48.6923 50.0469 48.4809 49.7745 48.4491L49.7157 47.887C49.5155 47.691 49.3503 47.4882 49.2274 47.2822V47.2784C49.1713 47.1927 49.1271 47.1036 49.0902 47.0145C49.0633 47.0141 48.4832 47.0072 48.0002 47.3437C47.7847 47.7663 47.4485 48.2865 46.8488 48.3061C46.3605 48.32 46.3532 48.0933 46.5741 47.5861C46.8714 46.8923 46.9736 46.5561 47.2222 46.2034C47.467 45.8469 48.8385 45.2421 49.2689 45.0504C49.6992 44.8587 50.0484 44.8614 50.8579 44.9494C51.6632 45.0335 51.9075 44.919 52.3021 44.7842C52.6928 44.6532 54.7333 43.3999 54.7333 43.3999L58.3533 46.4731Z" fill="#FFA8A7"/>
<path d="M49.718 47.8862C50.1625 48.4418 51.1614 48.6869 51.921 48.6235C50.6712 48.9309 49.7817 48.5106 49.7817 48.5106L49.718 47.8862Z" fill="#F28F8F"/>
<path d="M66.5601 27.835C63.3186 28.6863 62.8318 29.9239 61.3531 34.2311C60.0279 38.0908 59.3133 40.2435 59.3133 40.2435L53.8335 43.9149C53.8335 43.9149 55.0011 44.701 55.2708 47.8756C55.2708 47.8756 58.2833 46.5728 61.146 45.3556C62.8007 44.6522 63.1811 44.1492 63.9376 42.39C64.8032 40.3775 66.5313 36.1302 66.5313 36.1302L66.5601 27.835Z" fill="#37474F"/>
<path d="M78.8971 24.5637C80.2979 23.5067 81.4982 26.0194 81.9711 27.8071C82.4437 29.5948 82.2992 31.9584 81.2446 36.3137C81.0064 37.2984 80.8055 39.5436 80.966 42.4167C81.1339 45.4242 81.1693 46.9145 81.323 49.0683C81.323 49.0683 77.5674 51.7873 70.676 51.1392C65.2653 50.6301 63.9886 48.1493 63.9886 48.1493C63.9886 48.1493 64.0812 40.2605 64.2964 36.2676C64.5792 31.0228 65.3733 28.7296 66.5601 27.8348C66.5601 27.8348 68.9906 27.0398 72.6324 26.2123C75.9995 25.447 77.4445 25.6598 78.8971 24.5637Z" fill="#455A64"/>
<path d="M68.4515 15.3147C68.4515 15.3147 67.6489 15.4369 67.1963 16.4946C66.9689 17.0259 66.8486 17.973 67.7772 20.5844C68.375 22.2653 68.994 22.971 69.281 23.4298C69.568 23.8885 70.0924 23.9834 70.0924 23.9834L69.8849 21.9379L69.7013 20.5156C69.7013 20.5156 70.774 19.3838 70.7959 18.3503C70.8239 17.0202 70.2522 16.3109 70.2522 16.3109L68.4515 15.3147Z" fill="#37474F"/>
<path d="M68.1776 15.4045C68.2905 14.2373 69.6483 12.7527 72.4556 12.39C74.7558 12.0931 76.1662 12.7854 77.0718 14.0713C77.9773 15.3572 77.5785 17.1411 77.5785 17.1411L70.2864 17.2133L68.1776 15.4045Z" fill="#37474F"/>
<path d="M68.0569 22.679C69.1581 23.1154 69.5791 22.2387 69.5791 22.2387L69.9906 26.9713C68.211 29.6868 72.3607 30.3645 75.0225 26.9947C75.2119 26.755 75.3122 26.4557 75.2926 26.151L75.205 24.7929C75.205 24.7929 75.5611 24.7667 76.1178 24.6338C77.0464 24.4144 77.5805 23.6234 77.7837 22.5841C78.0945 20.9901 78.063 18.4432 77.217 15.8218C77.0753 15.3823 76.7575 15.005 76.3195 14.8586C75.1977 14.4836 74.2291 15.3335 72.7522 16.0412C72.1202 16.3439 70.55 16.5744 70.1186 16.4104C70.7129 16.9744 70.7071 18.8674 70.1923 19.6926C70.0141 19.9785 69.8442 20.1736 69.737 20.2827C69.4159 20.6078 69.0758 19.8571 68.7643 19.5766C68.45 19.2988 67.3462 19.1102 66.9539 20.1394C66.5586 21.1871 67.0369 22.2748 68.0569 22.679Z" fill="#FFA8A7"/>
<path d="M75.205 24.7932C73.9709 24.8789 72.8648 24.809 72.1137 24.5569C71.3626 24.3049 70.643 23.3686 70.3579 22.4077C70.4171 23.1938 70.867 24.5619 72.0142 25.0579C73.1614 25.5539 74.4485 25.4882 75.2572 25.4448L75.205 24.7932Z" fill="#F28F8F"/>
<path d="M72.8625 17.4953L72.0172 18.2522C71.8105 18.0071 71.8321 17.6386 72.0657 17.4296C72.2989 17.2206 72.6558 17.2502 72.8625 17.4953Z" fill="#37474F"/>
<path d="M76.7571 17.3335L75.6649 17.0265C75.7609 16.7203 76.0833 16.5409 76.3849 16.6258C76.6868 16.7107 76.8532 17.0277 76.7571 17.3335Z" fill="#37474F"/>
<path d="M72.481 18.948C72.509 19.2016 72.738 19.3845 72.9916 19.3564C73.2456 19.328 73.4281 19.0994 73.4 18.8458C73.3716 18.5922 73.143 18.4094 72.8894 18.4374C72.6354 18.4658 72.4526 18.6944 72.481 18.948Z" fill="#263238"/>
<path d="M75.8773 18.3977C75.9053 18.6513 76.1343 18.8342 76.3879 18.8061C76.6415 18.7777 76.8243 18.5491 76.7963 18.2955C76.7679 18.0419 76.5393 17.8591 76.2857 17.8871C75.9937 17.9198 75.8446 18.1061 75.8773 18.3977Z" fill="#263238"/>
<path d="M74.1346 17.8975L74.7359 20.8032L76.2427 20.1139C75.613 19.1208 74.9103 18.3819 74.1346 17.8975Z" fill="#F28F8F"/>
<path d="M73.6102 21.5454L74.8392 21.8516C74.7616 22.2028 74.4235 22.4187 74.0843 22.3342C73.7447 22.2496 73.5326 21.8966 73.6102 21.5454Z" fill="#B16668"/>
<path d="M73.7531 21.7524C73.7008 21.7451 73.6497 21.7454 73.5998 21.7493C73.6236 22.024 73.8111 22.2664 74.0843 22.3344C74.1527 22.3513 74.2207 22.3532 74.2868 22.3471C74.3148 22.0628 74.0812 21.7988 73.7531 21.7524Z" fill="#F28F8F"/>
<path d="M94.6392 3.34031C94.9811 3.40039 95.2958 4.03312 94.9239 4.5324C95.5032 4.14598 95.6762 4.06044 96.0237 4.4617C96.2585 4.73299 96.0586 5.18085 96.0586 5.18085C96.0586 5.18085 96.4368 4.96292 96.6926 5.31966C96.9484 5.67603 96.7527 6.00567 96.7527 6.00567C96.7527 6.00567 97.0339 5.87934 97.2199 6.24215C97.3807 6.55637 97.3655 6.86699 97.2561 7.15186L97.011 6.9409C97.011 6.9409 96.9202 7.05135 96.7522 7.11949C96.5841 7.18764 96.3735 7.48849 96.1946 7.73133C96.0158 7.97416 95.8392 8.28108 95.5539 8.25724C95.2686 8.23339 95.112 8.01567 95.1473 7.83729C95.1826 7.65892 95.2795 7.50096 95.2795 7.50096C95.2795 7.50096 94.9975 7.8517 94.6509 7.66737C94.3044 7.48303 94.421 7.15409 94.481 6.93652C94.2386 6.94845 93.9945 6.93076 93.9331 6.72563C93.8716 6.52088 94.1221 5.8102 94.1221 5.8102L93.5715 5.49013C93.5715 5.49013 93.0653 5.24644 93.1927 4.85174C93.4211 4.14219 94.2678 3.27485 94.6392 3.34031Z" fill="#FFA8A7"/>
<path d="M91.0461 9.86596C91.2192 9.27598 91.238 8.74239 91.1641 8.10485C91.0545 7.16006 91.4939 6.54366 91.6559 6.22305C91.99 5.56287 92.5728 4.6578 92.7378 4.52419C92.9987 4.31333 93.5257 4.34799 93.5257 4.34799C93.9886 4.39908 94.1458 4.50405 94.1458 4.50405L94.9092 5.58048C94.9092 5.58048 94.7921 5.90813 94.5186 5.92457C94.2448 5.94093 94.1018 5.8409 94.1018 5.8409C94.1018 5.8409 93.8465 6.49359 93.9484 6.67907C94.0503 6.86454 94.1496 6.944 94.4625 6.82238C94.4158 7.07742 94.3303 7.46503 94.6041 7.60616C94.878 7.7473 95.2792 7.50045 95.2792 7.50045C95.2792 7.50045 95.1117 8.16911 95.3235 8.25498C95.5349 8.34113 96.7873 6.45984 96.7873 6.45984L97.2555 7.15126C96.9594 7.66881 96.0803 9.2809 95.6134 9.88173C95.1465 10.4826 94.8172 10.7543 94.442 11.9155C94.0667 13.0768 91.9587 20.0489 91.9587 20.0489L88.0965 17.6336C88.0965 17.6336 90.8735 10.4557 91.0461 9.86596Z" fill="#FFA8A7"/>
<path d="M92.9156 5.77071C92.9156 5.77071 93.4195 6.19978 93.7994 6.87394C94.2499 7.67371 94.3403 8.58278 94.3403 8.58278C94.4216 8.01024 94.3029 7.46909 94.1211 7.01295C94.1941 7.03172 94.2752 7.03231 94.3653 7.00538C94.2582 7.31052 94.2078 7.6164 94.5901 7.75469C94.826 7.84032 94.9702 7.79654 95.1081 7.70551C95.0558 7.86883 95.0466 8.03166 95.1971 8.19347C95.3317 8.33769 95.571 8.38582 95.7336 8.26192C95.7663 8.23726 95.7965 8.20964 95.824 8.17982C95.8288 8.17463 95.8332 8.16935 95.8355 8.1628C95.8366 8.15989 95.8363 8.15627 95.8265 8.15276C95.8075 8.16131 95.7882 8.1694 95.7692 8.17795C95.6552 8.22766 95.4431 8.26369 95.3381 8.17461C95.25 8.09975 95.2444 7.96302 95.2516 7.85697C95.2635 7.68413 95.3659 7.51799 95.4346 7.36051C95.4374 7.35367 95.4406 7.34654 95.4383 7.33967C95.4335 7.32157 95.4064 7.32584 95.39 7.33501C95.2975 7.38583 95.2204 7.4604 95.1319 7.51731C95.0072 7.59764 94.8731 7.61221 94.734 7.56087C94.462 7.46081 94.5133 7.10226 94.5981 6.88501C94.6261 6.81307 94.6588 6.74302 94.684 6.66962C94.6876 6.65941 94.6888 6.6443 94.6781 6.64136C94.6747 6.64057 94.6714 6.64136 94.668 6.64215C94.6183 6.65531 94.5797 6.68844 94.5401 6.71936C94.4962 6.75321 94.449 6.7792 94.3982 6.80197C94.3338 6.8306 94.2628 6.84898 94.1935 6.83659C94.04 6.80948 94.0257 6.65573 94.0151 6.52652C93.9981 6.31409 94.0439 6.10305 94.135 5.91097C94.138 5.90496 94.1387 5.89843 94.1414 5.89234C94.1586 5.90114 94.173 5.90887 94.1914 5.91794C94.6947 6.17398 95.0604 5.721 94.9386 5.52806C94.8167 5.33511 94.2906 4.54121 94.1187 4.44977C93.9939 4.38323 93.906 4.3791 93.5256 4.34862L94.0668 4.51095C94.0668 4.51095 94.8608 5.53656 94.807 5.65098C94.7508 5.77036 94.5743 5.91783 94.2981 5.82863C94.0219 5.73943 93.5772 5.40881 93.5772 5.40881C93.4842 5.60911 92.9156 5.77071 92.9156 5.77071ZM93.3052 5.69362C93.4354 5.68721 93.5519 5.56981 93.5519 5.56981C93.5519 5.56981 93.6644 5.6449 94.0503 5.84482C93.9761 5.91021 93.922 5.99575 93.8563 6.07025C93.8201 6.11146 93.778 6.1493 93.7296 6.17539C93.7151 6.18342 93.7005 6.18511 93.6861 6.18921C93.4792 5.87794 93.3052 5.69362 93.3052 5.69362Z" fill="#F28F8F"/>
<path d="M79.3522 24.9727C80.9016 23.7705 82.0165 23.5186 82.8021 22.9069C84.082 21.91 87.0014 19.0926 87.0014 19.0926L90.0396 12.3524C90.1032 13.6898 92.633 15.3776 93.5639 14.9268C93.5639 14.9268 92.907 17.3934 91.6311 21.5357C91.1784 23.0055 91.0635 23.2654 88.4562 25.6613C87.2247 26.7928 85.9659 28.0284 83.9712 29.9344C82.5302 31.3114 81.216 32.5998 80.3089 34.0849C80.0055 34.7353 78.5767 34.3831 78.1298 31.959C77.6365 29.2848 78.9527 25.7682 79.3522 24.9727Z" fill="#37474F"/>
<path d="M155.843 36.8774L164.273 41.7721L164.543 70.7712L157.971 66.9626L151.917 79.7776L138.918 87.2829L130.487 82.3882L143.858 54.0842L137.176 47.6546L155.843 36.8774Z" fill="#275ADE"/>
<path opacity="0.8" d="M155.843 36.8774L164.273 41.7721L164.543 70.7712L157.971 66.9626L151.917 79.7776L138.918 87.2829L130.487 82.3882L143.858 54.0842L137.176 47.6546L155.843 36.8774Z" fill="white"/>
<path d="M164.273 41.7722L145.607 52.5498L152.288 58.979L138.918 87.283L151.917 79.7776L158.788 65.2334L164.543 70.7712L164.273 41.7722Z" fill="#275ADE"/>
<path opacity="0.6" d="M164.273 41.7722L145.607 52.5498L152.288 58.979L138.918 87.283L151.917 79.7776L158.788 65.2334L164.543 70.7712L164.273 41.7722Z" fill="white"/>
<path opacity="0.6" d="M152.288 58.9788L145.607 52.5496L137.176 47.6545L143.858 54.0841L152.288 58.9788Z" fill="#275ADE"/>
<path opacity="0.6" d="M157.971 66.9627L158.788 65.2334L164.543 70.7713L157.971 66.9627Z" fill="#275ADE"/>
<path d="M140.491 64.2015C142.157 65.1604 143.188 67.2198 143.188 70.1531C143.187 76.016 139.071 83.1448 133.993 86.0759C131.445 87.5466 129.14 87.6795 127.475 86.7071C127.042 86.454 125.242 85.4612 124.803 85.208C123.138 84.2483 122.108 82.1901 122.108 79.2583C122.109 73.3962 126.225 66.2673 131.303 63.3355C133.84 61.8705 136.136 61.7326 137.799 62.6916" fill="#275ADE"/>
<path opacity="0.65" d="M133.993 86.0758C131.445 87.5465 129.14 87.6794 127.475 86.707C127.042 86.4538 125.242 85.461 124.803 85.2078C123.138 84.2485 122.109 82.1903 122.108 79.2593L133.993 86.0758Z" fill="black"/>
<path opacity="0.55" d="M138.777 81.7649C137.383 83.5518 135.745 85.0636 133.993 86.0752L122.108 79.2587V79.2576C122.108 77.2348 122.599 75.061 123.45 72.9609L138.777 81.7649Z" fill="black"/>
<path opacity="0.4" d="M123.45 72.9615C125.065 68.9758 127.978 65.2556 131.303 63.3358C133.841 61.8708 136.137 61.7329 137.8 62.6918L140.491 64.2017C142.157 65.1607 143.188 67.22 143.188 70.1534C143.187 73.9927 141.422 78.3749 138.778 81.7654L123.45 72.9615Z" fill="black"/>
<path d="M140.496 68.6432C140.494 74.5061 136.38 81.6349 131.302 84.5656C126.224 87.4962 122.108 85.12 122.108 79.2578C122.109 73.3957 126.223 66.2623 131.302 63.3351C136.382 60.409 140.498 62.7853 140.496 68.6432Z" fill="#275ADE"/>
<path opacity="0.2" d="M140.496 68.6432C140.494 74.5061 136.38 81.6349 131.302 84.5656C126.224 87.4962 122.108 85.12 122.108 79.2578C122.109 73.3957 126.223 66.2623 131.302 63.3351C136.382 60.409 140.498 62.7853 140.496 68.6432Z" fill="black"/>
<path d="M138.199 69.9695C138.199 74.3678 135.111 79.7155 131.302 81.9139C127.493 84.1126 124.405 82.3296 124.405 77.932C124.406 73.5345 127.494 68.1868 131.302 65.9876C135.112 63.7885 138.2 65.5712 138.199 69.9695Z" fill="#FAFAFA"/>
<path d="M136.108 71.1761C136.108 74.2408 133.957 77.9672 131.302 79.4994C128.648 81.0316 126.496 79.7891 126.497 76.7247C126.497 73.6603 128.648 69.934 131.303 68.4014C133.957 66.8692 136.108 68.1113 136.108 71.1761Z" fill="#275ADE"/>
<path opacity="0.2" d="M136.108 71.1761C136.108 74.2408 133.957 77.9672 131.302 79.4994C128.648 81.0316 126.496 79.7891 126.497 76.7247C126.497 73.6603 128.648 69.934 131.303 68.4014C133.957 66.8692 136.108 68.1113 136.108 71.1761Z" fill="black"/>
<path d="M133.963 72.4146C133.963 74.1109 132.771 76.1736 131.302 77.0216C129.833 77.8695 128.642 77.1818 128.642 75.4859C128.642 73.7897 129.833 71.7269 131.302 70.879C132.772 70.0307 133.963 70.7184 133.963 72.4146Z" fill="#FAFAFA"/>
<path d="M132.425 73.3027C132.425 74.0184 131.922 74.8886 131.302 75.2463C130.683 75.604 130.18 75.3139 130.18 74.5986C130.18 73.8832 130.683 73.013 131.302 72.6549C131.922 72.2972 132.425 72.5873 132.425 73.3027Z" fill="#455A64"/>
<path d="M113.246 63.6277C113.246 63.6277 110.804 64.791 109.559 64.0718C108.313 63.3526 109.865 61.6755 110.673 62.142L113.246 63.6277Z" fill="#275ADE"/>
<path d="M113.246 63.6278C113.246 63.6278 113.033 60.9315 111.787 60.2122C110.542 59.493 109.865 61.6757 110.673 62.1417L113.246 63.6278Z" fill="#275ADE"/>
<path opacity="0.5" d="M113.246 63.6278C113.246 63.6278 113.033 60.9315 111.787 60.2122C110.542 59.493 109.865 61.6757 110.673 62.1417L113.246 63.6278Z" fill="white"/>
<path d="M127.749 72.3106L108.566 61.2395L108.844 60.7673L128.34 72.0186L127.749 72.3106Z" fill="#37474F"/>
<path d="M109.612 61.0203C109.612 61.4656 109.251 61.8267 108.806 61.8267C108.361 61.8267 108 61.4656 108 61.0203C108 60.575 108.361 60.2139 108.806 60.2139C109.251 60.2143 109.612 60.575 109.612 61.0203Z" fill="#263238"/>
<path d="M127.545 71.876C126.46 71.74 125.753 73.5292 125.753 73.5292L131.193 73.9822L127.545 71.876Z" fill="#275ADE"/>
<path d="M127.545 71.876C126.46 71.74 125.753 73.5292 125.753 73.5292L131.193 73.9822L127.545 71.876Z" fill="#275ADE"/>
<path d="M128.081 69.4976C128.081 69.4976 126.885 71.0048 127.545 71.8761L131.193 73.9823L128.081 69.4976Z" fill="#275ADE"/>
<path opacity="0.5" d="M128.081 69.4976C128.081 69.4976 126.885 71.0048 127.545 71.8761L131.193 73.9823L128.081 69.4976Z" fill="white"/>
<path d="M168.191 86.7629L168.932 82.4849L163.75 82.7911C163.75 82.7911 163.681 85.0459 163.508 86.5973C163.424 87.3511 162.573 88.6985 162.573 88.6985C162.573 88.6985 165.25 89.9218 166.486 89.4577C167.722 88.9936 168.333 87.4768 168.305 87.1517C168.276 86.8263 168.191 86.7629 168.191 86.7629Z" fill="#FFA8A7"/>
<path d="M156.449 93.691C156.37 93.6926 156.265 94.4714 156.696 94.7937C157.194 95.1656 158.647 95.7646 160.55 95.5076C162.453 95.2505 163.476 94.7011 164.23 94.1133C164.983 93.5251 166.039 92.696 166.899 92.5089C167.697 92.3352 168.562 91.9929 168.814 91.7654C169.067 91.538 169.015 90.5491 169.015 90.5491L156.449 93.691Z" fill="#263238"/>
<path d="M168.192 86.7551C168.192 86.7551 168.432 86.7532 168.485 86.9814C168.548 87.253 168.624 88.0449 168.758 88.4902C168.943 89.1091 169.082 90.382 168.985 90.891C168.888 91.4001 167.588 91.7766 166.758 92.0778C165.911 92.3856 164.935 93.0053 164.08 93.6627C163.195 94.3431 161.322 95.0688 160.079 95.0838C158.609 95.1015 156.947 94.7042 156.557 94.0983C156.075 93.3488 155.719 92.4743 157.883 91.5261C158.293 91.3467 159.73 90.5487 160.219 90.2598C161.543 89.4787 162.472 88.7676 163.065 87.4179C163.134 87.2603 163.207 87.0855 163.372 87.0029C163.498 86.9395 163.652 86.9453 163.795 86.9607C164.159 86.9999 165.61 87.1524 165.944 87.288C166.239 87.4079 166.656 87.5462 166.655 87.8831C166.655 88.0003 166.619 88.1152 166.579 88.227C166.554 88.2962 166.535 88.388 166.602 88.4275C166.666 88.4648 166.75 88.4195 166.806 88.3726C167.031 88.1847 167.194 87.9461 167.383 87.7279C167.484 87.6111 167.594 87.4989 167.722 87.4056C167.839 87.3211 167.989 87.2769 168.092 87.1812C168.223 87.0594 168.188 86.913 168.192 86.7551Z" fill="#455A64"/>
<path d="M164.08 93.6622C164.456 93.3733 164.855 93.0936 165.256 92.8423V92.8404C165.256 92.8404 162.716 94.2889 161.669 93.6722C160.995 93.275 161.304 92.7713 161.318 92.6118C161.331 92.4524 158.956 91.3735 158.307 91.3159C158.128 91.4089 157.978 91.4842 157.884 91.5253C155.719 92.4735 156.075 93.3483 156.558 94.0975C156.947 94.7034 158.154 95.1591 160.054 95.1237C161.297 95.1014 163.195 94.3426 164.08 93.6622Z" fill="#37474F"/>
<path d="M161.489 92.1451C160.142 92.6572 160.724 92.8743 161.104 92.9158C161.484 92.9577 163.746 91.7174 165.122 90.702C166.556 89.6428 167.453 88.4975 167.985 88.1087C168.184 87.9634 168.398 87.7859 168.588 87.6203C168.548 87.3529 168.515 87.109 168.485 86.9814C168.432 86.7532 168.192 86.7551 168.192 86.7551L168.135 87.099C168.031 87.1946 167.839 87.3207 167.722 87.4052C167.594 87.4985 167.483 87.6107 167.383 87.7275C167.194 87.9458 167.031 88.1844 166.806 88.3722C165.644 89.7442 162.837 91.6325 161.489 92.1451Z" fill="#37474F"/>
<path d="M161.197 92.7348C161.227 92.7344 161.257 92.7248 161.282 92.706C161.339 92.6629 161.346 92.5869 161.298 92.5358C160.909 92.1216 159.079 91.1561 158.083 91.2729C158.009 91.2814 157.957 91.3421 157.966 91.4078C157.975 91.4735 158.035 91.5188 158.116 91.5119C159.046 91.4047 160.784 92.364 161.093 92.6922C161.12 92.7213 161.159 92.7356 161.197 92.7348Z" fill="#263238"/>
<path d="M162.369 92.059C162.399 92.0586 162.429 92.049 162.454 92.0302C162.511 91.9872 162.518 91.9107 162.47 91.86C162.081 91.4462 160.252 90.4815 159.255 90.5975C159.181 90.606 159.129 90.6667 159.138 90.7324C159.147 90.7984 159.212 90.8449 159.288 90.8365C160.218 90.7304 161.956 91.6882 162.265 92.0164C162.291 92.0452 162.33 92.0598 162.369 92.059Z" fill="#263238"/>
<path d="M163.542 91.4174C163.572 91.4171 163.602 91.4075 163.626 91.3886C163.683 91.3456 163.69 91.2695 163.642 91.2184C163.253 90.8043 161.423 89.838 160.427 89.9559C160.354 89.9644 160.301 90.0251 160.311 90.0908C160.32 90.1565 160.384 90.2034 160.46 90.1949C161.39 90.0877 163.129 91.0463 163.437 91.3748C163.464 91.404 163.503 91.4182 163.542 91.4174Z" fill="#263238"/>
<path d="M164.626 90.6898C164.656 90.6891 164.686 90.6799 164.71 90.661C164.767 90.618 164.774 90.5419 164.726 90.4912C164.337 90.077 162.503 89.1119 161.511 89.2287C161.438 89.2372 161.385 89.2979 161.395 89.3636C161.403 89.4297 161.468 89.4758 161.544 89.4677C162.473 89.3613 164.213 90.3191 164.521 90.6476C164.548 90.676 164.587 90.6906 164.626 90.6898Z" fill="#263238"/>
<path d="M165.688 89.9621C165.717 89.9617 165.746 89.9525 165.77 89.9344C165.828 89.8922 165.836 89.8157 165.789 89.7646C165.253 89.1772 163.34 88.3777 162.345 88.4941C162.271 88.5025 162.219 88.5632 162.228 88.6289C162.237 88.695 162.302 88.7396 162.378 88.733C163.274 88.6285 165.106 89.3973 165.581 89.9179C165.609 89.9483 165.648 89.9629 165.688 89.9621Z" fill="#263238"/>
<path d="M179.277 88.0557L178.218 84.0861L183.29 83.4226L183.444 87.2496C183.444 87.2496 183.956 88.6235 183.637 89.1211C183.319 89.6186 179.947 90.1288 179.639 89.7953C179.332 89.4618 179.277 88.0557 179.277 88.0557Z" fill="#FFA8A7"/>
<path d="M179.633 96.6791C179.774 97.9058 180.038 98.7 180.586 99.3665C181.135 100.033 182.118 100.151 183.093 99.8268C184.067 99.5029 185.238 98.6754 185.535 97.6941C185.86 96.6195 185.677 95.8711 185.4 94.75L179.633 96.6791Z" fill="#263238"/>
<path d="M183.444 87.2502C183.851 87.2313 183.739 88.9111 184.049 90.5466C184.382 92.2997 185.041 92.9659 185.333 94.4009C185.666 96.0406 185.598 96.7979 184.958 97.8848C184.317 98.9717 181.932 100.237 180.666 98.9275C179.635 97.8602 179.534 96.5582 179.546 94.8819C179.558 93.1488 179.583 91.9282 179.44 90.6303C179.303 89.3898 178.933 88.2848 179.278 88.1058C179.314 88.2863 179.351 88.5161 179.388 88.6928C179.417 88.8288 179.488 89.5004 179.716 89.4812C179.729 89.3195 179.719 89.1712 179.699 89.0098C179.681 88.8696 179.688 88.714 179.791 88.5941C179.895 88.4731 180.284 88.3236 180.447 88.2771C180.843 88.1646 181.55 88.0255 181.954 87.9486C182.156 87.9102 182.358 87.8791 182.561 87.858C182.725 87.8411 182.92 87.8307 183.078 87.8622C183.175 87.8814 183.266 87.9294 183.305 88.0066C183.334 88.0639 183.332 88.1307 183.335 88.1949C183.34 88.3102 183.363 88.4239 183.402 88.5318C183.419 88.5795 183.462 88.6352 183.519 88.6164C183.566 88.6014 183.582 88.5491 183.581 88.508C183.573 88.3063 183.536 88.1634 183.514 87.9306C183.504 87.823 183.476 87.6778 183.47 87.569C183.463 87.4626 183.457 87.3558 183.444 87.2502Z" fill="#455A64"/>
<path d="M185.219 93.9363C185.27 94.1726 185.583 95.7393 185.086 96.0843C184.549 96.4578 184.188 95.2391 184.188 95.2391C184.188 95.2391 182.878 95.0482 181.026 95.9637C181.135 96.2111 180.884 97.0971 180.359 96.9757C179.837 96.855 179.55 95.0497 179.546 95.0263C179.541 96.633 179.666 97.8912 180.667 98.9274C181.932 100.237 184.318 98.9716 184.958 97.8847C185.598 96.7978 185.666 96.0405 185.333 94.4008C185.3 94.2363 185.261 94.083 185.219 93.9363Z" fill="#37474F"/>
<path d="M184.045 95.3629C184.081 95.9653 184.772 95.6821 184.762 94.8269C184.754 93.9717 184.112 92.0123 184.049 90.5461C183.941 88.5337 183.851 87.2309 183.444 87.2497C183.446 87.2701 183.447 87.2904 183.449 87.3108L183.541 88.1491C183.559 88.2705 183.576 88.3781 183.581 88.508C183.648 89.7374 183.653 92.1252 183.83 93.2359C184.007 94.3474 184.009 94.7604 184.045 95.3629Z" fill="#37474F"/>
<path d="M181.244 95.9221C181.084 95.3446 180.953 94.957 180.76 93.8493C180.568 92.7501 179.895 90.5475 179.561 89.3634C179.453 89.1686 179.409 88.7906 179.389 88.6922C179.354 88.527 179.319 88.3172 179.286 88.1432C179.283 88.1309 179.279 88.119 179.277 88.1067C179.027 88.2396 179.108 89.1924 179.238 89.6861C179.367 90.1798 179.526 90.7089 179.687 91.4173C180.101 92.8131 180.132 94.9063 180.399 95.71C180.666 96.5137 181.405 96.4995 181.244 95.9221Z" fill="#37474F"/>
<path d="M180.989 96.0171C181.008 96.0133 181.026 96.0068 181.043 95.9972C181.057 95.9887 182.5 95.1811 184.155 95.3674C184.236 95.3763 184.317 95.326 184.335 95.2556C184.353 95.185 184.302 95.1204 184.221 95.1112C182.45 94.9118 180.956 95.7501 180.893 95.7862C180.821 95.8273 180.795 95.9076 180.837 95.966C180.869 96.0098 180.93 96.0287 180.989 96.0171Z" fill="#263238"/>
<path d="M180.59 94.7459C180.606 94.7424 180.623 94.7367 180.639 94.7286C180.655 94.7202 182.28 93.8718 184.123 94.0248C184.205 94.0305 184.284 93.9794 184.299 93.9083C184.315 93.8373 184.261 93.7743 184.18 93.7673C182.23 93.6067 180.568 94.4754 180.499 94.5119C180.425 94.5511 180.397 94.631 180.436 94.691C180.466 94.7378 180.529 94.7582 180.59 94.7459Z" fill="#263238"/>
<path d="M183.967 92.7922C184.024 92.7811 184.073 92.7427 184.091 92.6916C184.114 92.6213 184.069 92.5533 183.989 92.5394C182.146 92.2213 180.386 93.2118 180.312 93.2544C180.24 93.2955 180.215 93.3758 180.256 93.4342C180.298 93.4923 180.391 93.5045 180.462 93.465C180.479 93.4557 182.189 92.4949 183.904 92.793C183.925 92.7972 183.947 92.7965 183.967 92.7922Z" fill="#263238"/>
<path d="M183.809 91.6311C183.865 91.62 183.913 91.5827 183.931 91.5328C183.956 91.4625 183.913 91.3941 183.833 91.3791C181.805 90.9957 180.15 92.048 180.081 92.0925C180.012 92.1375 179.993 92.2186 180.039 92.2743C180.085 92.33 180.18 92.3384 180.248 92.2939C180.263 92.2839 181.855 91.2754 183.743 91.6319C183.765 91.6357 183.787 91.6353 183.809 91.6311Z" fill="#263238"/>
<path d="M183.624 90.3275C183.679 90.3163 183.728 90.2802 183.746 90.2307C183.772 90.1611 183.73 90.092 183.65 90.0758C181.748 89.6909 179.949 90.7808 179.873 90.8281C179.802 90.8711 179.782 90.9526 179.826 91.009C179.87 91.0659 179.963 91.0774 180.033 91.0329C180.051 91.0221 181.789 89.9698 183.556 90.3275C183.579 90.3321 183.602 90.3321 183.624 90.3275Z" fill="#263238"/>
<path d="M181.129 46.358C181.896 56.0618 182.081 69.3459 182.081 69.3459C182.15 70.0828 182.677 71.3456 183.035 74.9809C183.411 78.8156 183.322 84.229 183.322 84.229C183.322 84.229 180.641 85.6605 178.438 84.9363C178.438 84.9363 176.395 76.4209 175.269 71.9016C174.203 67.6246 172.763 60.4693 172.763 60.4693L170.716 69.6832C170.716 69.6832 170.865 72.449 170.78 74.3843C170.681 76.6349 168.741 83.9289 168.741 83.9289C168.741 83.9289 165.885 85.5902 163.598 83.8617C163.598 83.8617 163.785 71.2319 163.723 68.5241C163.602 63.2129 163.917 52.0519 164.12 45.1951L181.129 46.358Z" fill="#275ADE"/>
<path opacity="0.3" d="M181.129 46.358C181.896 56.0618 182.081 69.3459 182.081 69.3459C182.15 70.0828 182.677 71.3456 183.035 74.9809C183.411 78.8156 183.322 84.229 183.322 84.229C183.322 84.229 180.641 85.6605 178.438 84.9363C178.438 84.9363 176.395 76.4209 175.269 71.9016C174.203 67.6246 172.763 60.4693 172.763 60.4693L170.716 69.6832C170.716 69.6832 170.865 72.449 170.78 74.3843C170.681 76.6349 168.741 83.9289 168.741 83.9289C168.741 83.9289 165.885 85.5902 163.598 83.8617C163.598 83.8617 163.785 71.2319 163.723 68.5241C163.602 63.2129 163.917 52.0519 164.12 45.1951L181.129 46.358Z" fill="black"/>
<path opacity="0.2" d="M172.762 60.469L171.582 54.2035C171.582 54.2035 168.911 53.8201 167.543 52.6079C167.543 52.6079 168.425 54.2104 170.944 54.8386L172.066 61.1241L170.716 69.6833L172.762 60.469Z" fill="black"/>
<path d="M183.382 84.3364C182.828 85.058 180.372 85.7776 178.399 85.1168L178.059 83.6238C179.549 84.0886 182.138 83.6522 183.356 82.7117L183.382 84.3364Z" fill="#275ADE"/>
<path d="M168.698 84.3521C168.001 84.94 165.369 85.2008 163.584 84.1382L163.557 82.3843C164.912 83.1531 167.705 83.4105 169.098 82.7485L168.698 84.3521Z" fill="#275ADE"/>
<path d="M150.966 44.958C150.09 44.7424 149.911 44.7205 149.255 44.6145C148.818 44.5434 148.568 44.7232 147.542 45.326C146.475 45.9527 146.291 46.232 146.204 46.5658C146.101 46.9604 146.367 47.2928 146.51 47.3512C146.178 47.574 146.226 48.1991 146.715 48.4115C146.427 48.7235 146.595 49.1888 146.968 49.3286C146.808 49.5207 146.904 50.2361 147.552 50.3771C148.241 50.5269 149.247 50.5561 149.247 50.5561L150.966 44.958Z" fill="#F28F8F"/>
<path d="M153.389 91.0348L144.546 4.62096L145.283 4.54565L154.127 90.9645C154.145 91.2553 153.412 91.3172 153.389 91.0348Z" fill="#455A64"/>
<path d="M149.247 50.5553C149.455 50.5546 149.713 50.2122 149.902 49.9863C150.091 49.7608 150.33 49.488 150.306 49.299C150.272 49.0335 149.897 49.04 149.897 49.04C149.897 49.04 149.937 49.0158 150.078 48.8714C150.307 48.6363 149.872 48.3358 149.496 48.4868C149.496 48.4868 149.656 48.3869 149.657 48.2789C149.66 48.0734 149.462 47.7952 149.119 47.8194C149.386 47.6796 149.282 47.3015 149.091 47.0142C149.022 47.0142 148.954 47.0184 148.887 47.0265C148.657 48.1068 148.822 49.2967 149.247 50.5553Z" fill="#F28F8F"/>
<path d="M146.968 49.3278C147.214 49.4208 147.475 49.4669 147.73 49.5234C147.988 49.5737 148.246 49.6263 148.504 49.6494C148.758 49.7005 148.994 49.5679 149.225 49.4519C149.455 49.3278 149.678 49.1876 149.897 49.04C149.699 49.2156 149.49 49.3781 149.262 49.5161C149.04 49.6452 148.777 49.7911 148.495 49.7447C148.229 49.7128 147.97 49.6613 147.714 49.5948C147.459 49.5257 147.201 49.4534 146.968 49.3278Z" fill="#B16668"/>
<path d="M149.496 48.4867C149.281 48.5977 149.069 48.7138 148.839 48.7983C148.725 48.8413 148.604 48.8767 148.471 48.8732C148.342 48.8617 148.228 48.834 148.108 48.8098C147.637 48.6961 147.171 48.572 146.714 48.4106C147.191 48.4948 147.659 48.6139 148.129 48.7165C148.245 48.7434 148.365 48.7741 148.476 48.7864C148.586 48.7937 148.702 48.7599 148.815 48.7288C149.043 48.6588 149.268 48.5655 149.496 48.4867Z" fill="#B16668"/>
<path d="M149.119 47.8192C148.911 47.8945 148.698 48.0163 148.454 47.9836C148.22 47.9571 148.008 47.878 147.788 47.8181C147.357 47.6774 146.927 47.5322 146.511 47.3501C146.953 47.4565 147.384 47.5964 147.817 47.7262C148.032 47.7931 148.248 47.8711 148.463 47.9103C148.679 47.9552 148.897 47.863 149.119 47.8192Z" fill="#B16668"/>
<path d="M145.716 4.66443C145.668 5.11202 145.266 5.4359 144.818 5.38749C144.37 5.33908 144.046 4.93682 144.095 4.48885C144.143 4.04087 144.545 3.71737 144.993 3.76578C145.441 3.81419 145.765 4.21645 145.716 4.66443Z" fill="#37474F"/>
<path d="M145.535 3.13463C145.587 3.58184 145.266 3.98679 144.819 4.03904C144.371 4.09091 143.966 3.77048 143.914 3.32289C143.781 2.17298 144.424 0.64502 144.424 0.64502C144.424 0.64502 145.401 1.98434 145.535 3.13463Z" fill="#37474F"/>
<path d="M144.62 5.33398C140.002 12.1612 132.2 9.23106 126 9.5C119.282 9.79122 115.221 13.7168 113.5 16.8554C115.374 16.1434 121.096 15.6186 122.948 16.8554C122.948 16.8554 116.254 20.2144 117 27.5C118.66 24.2093 122.213 23.3195 129.019 23.9999C135 23.9999 142.685 26.5234 146.282 21.5975L144.62 5.33398Z" fill="#275ADE"/>
<path opacity="0.1" d="M139.799 22.2794C134.589 24.4666 119.339 16.0429 117.5 26.5C119.16 23.2093 122.213 23.3194 129.019 23.9998C134.997 24.5972 142.685 26.5232 146.282 21.5974L144.62 5.33423C145.259 11.7365 145.009 20.0921 139.799 22.2794Z" fill="black"/>
<path opacity="0.7" d="M133.277 12.7786L134.487 15.4826L137.447 15.5744C137.625 15.5798 137.706 15.7992 137.574 15.9187L135.376 17.9042L136.203 20.7481C136.253 20.919 136.069 21.0635 135.915 20.9747L133.348 19.4983L130.899 21.1642C130.752 21.2644 130.558 21.1342 130.594 20.9601L131.205 18.0617L128.864 16.2472C128.723 16.1381 128.787 15.9133 128.963 15.8945L131.909 15.5798L132.911 12.7924C132.971 12.6249 133.205 12.6161 133.277 12.7786Z" fill="white"/>
<path d="M158.353 46.4729C158.353 46.4729 155.65 47.6589 153.925 48.4377C152.604 49.0316 152.592 49.2295 152.165 49.7036C151.69 50.2311 149.977 50.4198 149.977 50.4198L149.927 49.9541C150.112 49.7347 150.328 49.4812 150.305 49.3002C150.271 49.0343 149.898 49.0389 149.898 49.0389C149.898 49.0389 149.937 49.0167 150.078 48.8734C150.25 48.692 150.047 48.4807 149.774 48.4488L149.716 47.8867C149.516 47.6908 149.35 47.4879 149.227 47.282V47.2782C149.171 47.1925 149.127 47.1033 149.09 47.0142C149.063 47.0138 148.483 47.0069 148 47.3435C147.785 47.7661 147.449 48.2863 146.849 48.3059C146.36 48.3197 146.353 48.093 146.574 47.5859C146.871 46.892 146.974 46.5559 147.222 46.2032C147.467 45.8466 148.839 45.2419 149.269 45.0502C149.699 44.8585 150.048 44.8612 150.858 44.9491C151.663 45.0333 151.908 44.9188 152.302 44.7839C152.693 44.6529 154.733 43.3997 154.733 43.3997L158.353 46.4729Z" fill="#FFA8A7"/>
<path d="M149.718 47.886C150.162 48.4415 151.161 48.6867 151.921 48.6233C150.671 48.9306 149.782 48.5103 149.782 48.5103L149.718 47.886Z" fill="#F28F8F"/>
<path d="M166.56 27.8347C163.319 28.6861 162.832 29.9236 161.353 34.2309C160.028 38.0905 159.313 40.2432 159.313 40.2432L153.833 43.9146C153.833 43.9146 155.001 44.7007 155.271 47.8753C155.271 47.8753 158.283 46.5725 161.146 45.3554C162.801 44.6519 163.181 44.149 163.938 42.3897C164.803 40.3773 166.531 36.13 166.531 36.13L166.56 27.8347Z" fill="#37474F"/>
<path d="M178.897 24.5634C180.298 23.5065 181.498 26.0192 181.971 27.8068C182.444 29.5945 182.299 31.9581 181.245 36.3134C181.006 37.2981 180.805 39.5434 180.966 42.4164C181.134 45.4239 181.169 46.9143 181.323 49.0681C181.323 49.0681 177.567 51.7871 170.676 51.1389C165.265 50.6298 163.989 48.1491 163.989 48.1491C163.989 48.1491 164.081 40.2603 164.296 36.2673C164.579 31.0226 165.373 28.7293 166.56 27.8345C166.56 27.8345 168.991 27.0396 172.632 26.212C176 25.4467 177.444 25.6596 178.897 24.5634Z" fill="#455A64"/>
<path d="M168.451 15.3145C168.451 15.3145 167.649 15.4366 167.196 16.4943C166.969 17.0257 166.849 17.9727 167.777 20.5841C168.375 22.265 168.994 22.9708 169.281 23.4295C169.568 23.8883 170.092 23.9832 170.092 23.9832L169.885 21.9377L169.701 20.5154C169.701 20.5154 170.774 19.3835 170.796 18.35C170.824 17.0199 170.252 16.3107 170.252 16.3107L168.451 15.3145Z" fill="#37474F"/>
<path d="M168.178 15.4042C168.291 14.237 169.648 12.7525 172.456 12.3898C174.756 12.0928 176.166 12.7851 177.072 14.0711C177.977 15.357 177.579 17.1408 177.579 17.1408L170.286 17.213L168.178 15.4042Z" fill="#37474F"/>
<path d="M168.057 22.6788C169.158 23.1152 169.579 22.2385 169.579 22.2385L169.991 26.971C168.211 29.6866 172.361 30.3643 175.022 26.9945C175.212 26.7547 175.312 26.4554 175.293 26.1508L175.205 24.7926C175.205 24.7926 175.561 24.7665 176.118 24.6336C177.046 24.4142 177.58 23.6231 177.784 22.5839C178.095 20.9898 178.063 18.443 177.217 15.8216C177.075 15.382 176.758 15.0047 176.32 14.8584C175.198 14.4834 174.229 15.3332 172.752 16.0409C172.12 16.3437 170.55 16.5742 170.119 16.4102C170.713 16.9742 170.707 18.8671 170.192 19.6924C170.014 19.9782 169.844 20.1734 169.737 20.2825C169.416 20.6075 169.076 19.8568 168.764 19.5763C168.45 19.2986 167.346 19.1099 166.954 20.1392C166.559 21.1869 167.037 22.2746 168.057 22.6788Z" fill="#FFA8A7"/>
<path d="M175.205 24.793C173.971 24.8786 172.865 24.8087 172.114 24.5567C171.363 24.3046 170.643 23.3684 170.358 22.4075C170.417 23.1935 170.867 24.5617 172.014 25.0577C173.161 25.5537 174.448 25.488 175.257 25.4446L175.205 24.793Z" fill="#F28F8F"/>
<path d="M172.862 17.4951L172.017 18.2519C171.811 18.0068 171.832 17.6384 172.066 17.4294C172.299 17.2204 172.656 17.2499 172.862 17.4951Z" fill="#37474F"/>
<path d="M176.757 17.3333L175.665 17.0263C175.761 16.7201 176.083 16.5406 176.385 16.6256C176.687 16.7105 176.853 17.0274 176.757 17.3333Z" fill="#37474F"/>
<path d="M172.481 18.9478C172.509 19.2013 172.738 19.3842 172.992 19.3562C173.246 19.3277 173.428 19.0991 173.4 18.8456C173.372 18.592 173.143 18.4091 172.889 18.4372C172.635 18.4656 172.453 18.6942 172.481 18.9478Z" fill="#263238"/>
<path d="M175.877 18.3975C175.905 18.651 176.134 18.8339 176.388 18.8059C176.641 18.7774 176.824 18.5488 176.796 18.2953C176.768 18.0417 176.539 17.8588 176.286 17.8869C175.994 17.9195 175.845 18.1059 175.877 18.3975Z" fill="#263238"/>
<path d="M174.135 17.8972L174.736 20.8029L176.243 20.1137C175.613 19.1205 174.91 18.3817 174.135 17.8972Z" fill="#F28F8F"/>
<path d="M173.61 21.5452L174.839 21.8514C174.762 22.2025 174.424 22.4184 174.084 22.3339C173.745 22.2494 173.533 21.8963 173.61 21.5452Z" fill="#B16668"/>
<path d="M173.753 21.7521C173.701 21.7448 173.65 21.7452 173.6 21.749C173.624 22.0237 173.811 22.2662 174.084 22.3342C174.153 22.3511 174.221 22.353 174.287 22.3469C174.315 22.0625 174.081 21.7986 173.753 21.7521Z" fill="#F28F8F"/>
<path d="M191.713 2.08471C192.06 2.10169 192.451 2.69025 192.144 3.23201C192.671 2.77636 192.832 2.66992 193.227 3.02473C193.493 3.26462 193.351 3.73391 193.351 3.73391C193.351 3.73391 193.699 3.47052 193.997 3.79259C194.296 4.11428 194.142 4.46575 194.142 4.46575C194.142 4.46575 194.406 4.30534 194.636 4.64212C194.834 4.93384 194.858 5.24394 194.785 5.54022L194.515 5.36148C194.515 5.36148 194.439 5.48237 194.281 5.57094C194.123 5.6595 193.951 5.98428 193.804 6.24752C193.657 6.51075 193.52 6.83729 193.234 6.84921C192.948 6.86113 192.765 6.66463 192.778 6.48324C192.791 6.30185 192.867 6.13305 192.867 6.13305C192.867 6.13305 192.631 6.51622 192.264 6.37654C191.897 6.23685 191.972 5.89593 192.005 5.67258C191.765 5.71464 191.521 5.72753 191.435 5.53166C191.348 5.33617 191.508 4.5998 191.508 4.5998L190.922 4.35088C190.922 4.35088 190.389 4.17221 190.466 3.76471C190.605 3.03221 191.336 2.06607 191.713 2.08471Z" fill="#FFA8A7"/>
<path d="M188.962 9.00762C189.06 8.40067 189.012 7.8689 188.859 7.24554C188.633 6.3218 188.992 5.65542 189.113 5.31711C189.362 4.62043 189.827 3.64975 189.974 3.49661C190.207 3.25487 190.734 3.22354 190.734 3.22354C191.2 3.21653 191.369 3.30107 191.369 3.30107L192.26 4.27391C192.26 4.27391 192.185 4.6136 191.916 4.66402C191.646 4.71439 191.492 4.63297 191.492 4.63297C191.492 4.63297 191.32 5.3124 191.444 5.48373C191.568 5.65505 191.677 5.72151 191.972 5.56182C191.957 5.82069 191.921 6.21593 192.21 6.32182C192.5 6.42772 192.867 6.13277 192.867 6.13277C192.867 6.13277 192.784 6.81709 193.005 6.87588C193.225 6.935 194.233 4.91223 194.233 4.91223L194.784 5.53989C194.555 6.09032 193.884 7.79943 193.495 8.45379C193.107 9.10815 192.814 9.41879 192.587 10.6178C192.359 11.8168 191.137 18.9973 191.137 18.9973L187.004 17.0824C187.004 17.0824 188.864 9.61424 188.962 9.00762Z" fill="#FFA8A7"/>
<path d="M190.306 4.71116C190.306 4.71116 190.859 5.07405 191.32 5.69559C191.867 6.43293 192.07 7.32364 192.07 7.32364C192.08 6.74543 191.894 6.22331 191.657 5.79339C191.732 5.80293 191.812 5.79339 191.898 5.75544C191.83 6.07156 191.818 6.38133 192.215 6.47087C192.46 6.52642 192.597 6.46501 192.723 6.35749C192.691 6.52606 192.702 6.68876 192.872 6.83054C193.023 6.95686 193.267 6.97477 193.413 6.83157C193.442 6.80302 193.468 6.77185 193.492 6.73883C193.496 6.73309 193.5 6.7273 193.501 6.72051C193.502 6.71749 193.501 6.71393 193.491 6.71168C193.473 6.72253 193.455 6.73296 193.437 6.74381C193.331 6.80734 193.125 6.86954 193.009 6.79424C192.913 6.73096 192.89 6.596 192.884 6.48987C192.874 6.31689 192.955 6.13929 193.004 5.97447C193.005 5.96734 193.008 5.95986 193.005 5.95334C192.998 5.93597 192.971 5.94359 192.956 5.95473C192.871 6.01668 192.803 6.10029 192.723 6.16779C192.609 6.26304 192.478 6.29422 192.333 6.26062C192.051 6.19526 192.057 5.83311 192.114 5.60698C192.133 5.53211 192.157 5.45852 192.173 5.38255C192.175 5.37198 192.174 5.35683 192.163 5.35527C192.16 5.3549 192.157 5.3561 192.153 5.3573C192.106 5.37655 192.072 5.41424 192.036 5.44986C191.997 5.48893 191.953 5.52059 191.906 5.54951C191.845 5.58595 191.777 5.61304 191.707 5.60939C191.551 5.60163 191.518 5.45085 191.491 5.32398C191.448 5.11532 191.467 4.90022 191.533 4.69828C191.536 4.69195 191.536 4.68538 191.537 4.679C191.556 4.68559 191.571 4.69147 191.59 4.69817C192.121 4.88945 192.428 4.39441 192.283 4.21817C192.138 4.04192 191.517 3.31982 191.335 3.25052C191.203 3.20007 191.115 3.20692 190.734 3.22411L191.291 3.3177C191.291 3.3177 192.207 4.2363 192.168 4.35653C192.127 4.48199 191.97 4.65032 191.685 4.59625C191.4 4.54219 190.917 4.26959 190.917 4.26959C190.85 4.47993 190.306 4.71116 190.306 4.71116ZM190.683 4.58609C190.811 4.5635 190.912 4.43249 190.912 4.43249C190.912 4.43249 191.033 4.49296 191.441 4.64321C191.376 4.71735 191.333 4.80896 191.277 4.89108C191.246 4.93647 191.209 4.97927 191.164 5.01119C191.151 5.02096 191.136 5.02446 191.123 5.03033C190.879 4.74728 190.683 4.58609 190.683 4.58609Z" fill="#F28F8F"/>
<path d="M179.243 25.4543C180.63 24.0683 181.705 23.6794 182.408 22.9745C183.554 21.8257 186.099 18.6664 186.099 18.6664L188.273 11.5999C188.503 12.9189 191.223 14.2782 192.091 13.7149C192.091 13.7149 191.747 16.2441 190.997 20.5131C190.731 22.028 190.65 22.3001 188.361 25.0025C187.281 26.2787 186.186 27.6615 184.444 29.8014C183.186 31.3473 182.043 32.7895 181.328 34.3761C181.108 35.0593 179.647 34.8879 178.901 32.5385C178.078 29.9467 178.945 26.2935 179.243 25.4543Z" fill="#37474F"/>
<path d="M255.843 36.8774L264.273 41.7721L264.543 70.7712L257.971 66.9626L251.917 79.7776L238.918 87.2829L230.487 82.3882L243.858 54.0842L237.176 47.6546L255.843 36.8774Z" fill="#275ADE"/>
<path opacity="0.8" d="M255.843 36.8774L264.273 41.7721L264.543 70.7712L257.971 66.9626L251.917 79.7776L238.918 87.2829L230.487 82.3882L243.858 54.0842L237.176 47.6546L255.843 36.8774Z" fill="white"/>
<path d="M264.273 41.7722L245.607 52.5498L252.288 58.979L238.918 87.283L251.917 79.7776L258.788 65.2334L264.543 70.7712L264.273 41.7722Z" fill="#275ADE"/>
<path opacity="0.6" d="M264.273 41.7722L245.607 52.5498L252.288 58.979L238.918 87.283L251.917 79.7776L258.788 65.2334L264.543 70.7712L264.273 41.7722Z" fill="white"/>
<path opacity="0.6" d="M252.288 58.9788L245.607 52.5496L237.176 47.6545L243.858 54.0841L252.288 58.9788Z" fill="#275ADE"/>
<path opacity="0.6" d="M257.971 66.9627L258.788 65.2334L264.543 70.7713L257.971 66.9627Z" fill="#275ADE"/>
<path d="M240.491 64.2015C242.157 65.1604 243.188 67.2198 243.188 70.1531C243.187 76.016 239.071 83.1448 233.993 86.0759C231.445 87.5466 229.14 87.6795 227.475 86.7071C227.042 86.454 225.242 85.4612 224.803 85.208C223.138 84.2483 222.108 82.1901 222.108 79.2583C222.109 73.3962 226.225 66.2673 231.303 63.3355C233.84 61.8705 236.136 61.7326 237.799 62.6916" fill="#275ADE"/>
<path opacity="0.65" d="M233.993 86.0758C231.445 87.5465 229.14 87.6794 227.475 86.707C227.042 86.4538 225.242 85.461 224.803 85.2078C223.138 84.2485 222.109 82.1903 222.108 79.2593L233.993 86.0758Z" fill="black"/>
<path opacity="0.55" d="M238.777 81.7649C237.383 83.5518 235.745 85.0636 233.993 86.0752L222.108 79.2587V79.2576C222.108 77.2348 222.599 75.061 223.45 72.9609L238.777 81.7649Z" fill="black"/>
<path opacity="0.4" d="M223.45 72.9615C225.065 68.9758 227.978 65.2556 231.303 63.3358C233.841 61.8708 236.137 61.7329 237.8 62.6918L240.491 64.2017C242.157 65.1607 243.188 67.22 243.188 70.1534C243.187 73.9927 241.422 78.3749 238.778 81.7654L223.45 72.9615Z" fill="black"/>
<path d="M240.496 68.6432C240.494 74.5061 236.38 81.6349 231.302 84.5656C226.224 87.4962 222.108 85.12 222.108 79.2578C222.109 73.3957 226.223 66.2623 231.302 63.3351C236.382 60.409 240.498 62.7853 240.496 68.6432Z" fill="#275ADE"/>
<path opacity="0.2" d="M240.496 68.6432C240.494 74.5061 236.38 81.6349 231.302 84.5656C226.224 87.4962 222.108 85.12 222.108 79.2578C222.109 73.3957 226.223 66.2623 231.302 63.3351C236.382 60.409 240.498 62.7853 240.496 68.6432Z" fill="black"/>
<path d="M238.199 69.9695C238.199 74.3678 235.111 79.7155 231.302 81.9139C227.493 84.1126 224.405 82.3296 224.405 77.932C224.406 73.5345 227.494 68.1868 231.302 65.9876C235.112 63.7885 238.2 65.5712 238.199 69.9695Z" fill="#FAFAFA"/>
<path d="M236.108 71.1761C236.108 74.2408 233.957 77.9672 231.302 79.4994C228.648 81.0316 226.496 79.7891 226.497 76.7247C226.497 73.6603 228.648 69.934 231.303 68.4014C233.957 66.8692 236.108 68.1113 236.108 71.1761Z" fill="#275ADE"/>
<path opacity="0.2" d="M236.108 71.1761C236.108 74.2408 233.957 77.9672 231.302 79.4994C228.648 81.0316 226.496 79.7891 226.497 76.7247C226.497 73.6603 228.648 69.934 231.303 68.4014C233.957 66.8692 236.108 68.1113 236.108 71.1761Z" fill="black"/>
<path d="M233.963 72.4146C233.963 74.1109 232.771 76.1736 231.302 77.0216C229.833 77.8695 228.642 77.1818 228.642 75.4859C228.642 73.7897 229.833 71.7269 231.302 70.879C232.772 70.0307 233.963 70.7184 233.963 72.4146Z" fill="#FAFAFA"/>
<path d="M232.425 73.3027C232.425 74.0184 231.922 74.8886 231.302 75.2463C230.683 75.604 230.18 75.3139 230.18 74.5986C230.18 73.8832 230.683 73.013 231.302 72.6549C231.922 72.2972 232.425 72.5873 232.425 73.3027Z" fill="#455A64"/>
<path d="M213.246 63.6277C213.246 63.6277 210.804 64.791 209.559 64.0718C208.313 63.3526 209.865 61.6755 210.673 62.142L213.246 63.6277Z" fill="#275ADE"/>
<path d="M213.246 63.6278C213.246 63.6278 213.033 60.9315 211.787 60.2122C210.542 59.493 209.865 61.6757 210.673 62.1417L213.246 63.6278Z" fill="#275ADE"/>
<path opacity="0.5" d="M213.246 63.6278C213.246 63.6278 213.033 60.9315 211.787 60.2122C210.542 59.493 209.865 61.6757 210.673 62.1417L213.246 63.6278Z" fill="white"/>
<path d="M227.749 72.3106L208.566 61.2395L208.844 60.7673L228.34 72.0186L227.749 72.3106Z" fill="#37474F"/>
<path d="M209.612 61.0203C209.612 61.4656 209.251 61.8267 208.806 61.8267C208.361 61.8267 208 61.4656 208 61.0203C208 60.575 208.361 60.2139 208.806 60.2139C209.251 60.2143 209.612 60.575 209.612 61.0203Z" fill="#263238"/>
<path d="M227.545 71.876C226.46 71.74 225.753 73.5292 225.753 73.5292L231.193 73.9822L227.545 71.876Z" fill="#275ADE"/>
<path d="M227.545 71.876C226.46 71.74 225.753 73.5292 225.753 73.5292L231.193 73.9822L227.545 71.876Z" fill="#275ADE"/>
<path d="M228.081 69.4976C228.081 69.4976 226.885 71.0048 227.545 71.8761L231.193 73.9823L228.081 69.4976Z" fill="#275ADE"/>
<path opacity="0.5" d="M228.081 69.4976C228.081 69.4976 226.885 71.0048 227.545 71.8761L231.193 73.9823L228.081 69.4976Z" fill="white"/>
<path d="M268.191 86.7629L268.932 82.4849L263.75 82.7911C263.75 82.7911 263.681 85.0459 263.508 86.5973C263.424 87.3511 262.573 88.6985 262.573 88.6985C262.573 88.6985 265.25 89.9218 266.486 89.4577C267.722 88.9936 268.333 87.4768 268.305 87.1517C268.276 86.8263 268.191 86.7629 268.191 86.7629Z" fill="#FFA8A7"/>
<path d="M256.449 93.691C256.37 93.6926 256.265 94.4714 256.696 94.7937C257.194 95.1656 258.647 95.7646 260.55 95.5076C262.453 95.2505 263.476 94.7011 264.23 94.1133C264.983 93.5251 266.039 92.696 266.899 92.5089C267.697 92.3352 268.562 91.9929 268.814 91.7654C269.067 91.538 269.015 90.5491 269.015 90.5491L256.449 93.691Z" fill="#263238"/>
<path d="M268.192 86.7551C268.192 86.7551 268.432 86.7532 268.485 86.9814C268.548 87.253 268.624 88.0449 268.758 88.4902C268.943 89.1091 269.082 90.382 268.985 90.891C268.888 91.4001 267.588 91.7766 266.758 92.0778C265.911 92.3856 264.935 93.0053 264.08 93.6627C263.195 94.3431 261.322 95.0688 260.079 95.0838C258.609 95.1015 256.947 94.7042 256.557 94.0983C256.075 93.3488 255.719 92.4743 257.883 91.5261C258.293 91.3467 259.73 90.5487 260.219 90.2598C261.543 89.4787 262.472 88.7676 263.065 87.4179C263.134 87.2603 263.207 87.0855 263.372 87.0029C263.498 86.9395 263.652 86.9453 263.795 86.9607C264.159 86.9999 265.61 87.1524 265.944 87.288C266.239 87.4079 266.656 87.5462 266.655 87.8831C266.655 88.0003 266.619 88.1152 266.579 88.227C266.554 88.2962 266.535 88.388 266.602 88.4275C266.666 88.4648 266.75 88.4195 266.806 88.3726C267.031 88.1847 267.194 87.9461 267.383 87.7279C267.484 87.6111 267.594 87.4989 267.722 87.4056C267.839 87.3211 267.989 87.2769 268.092 87.1812C268.223 87.0594 268.188 86.913 268.192 86.7551Z" fill="#455A64"/>
<path d="M264.08 93.6622C264.456 93.3733 264.855 93.0936 265.256 92.8423V92.8404C265.256 92.8404 262.716 94.2889 261.669 93.6722C260.995 93.275 261.304 92.7713 261.318 92.6118C261.331 92.4524 258.956 91.3735 258.307 91.3159C258.128 91.4089 257.978 91.4842 257.884 91.5253C255.719 92.4735 256.075 93.3483 256.558 94.0975C256.947 94.7034 258.154 95.1591 260.054 95.1237C261.297 95.1014 263.195 94.3426 264.08 93.6622Z" fill="#37474F"/>
<path d="M261.489 92.1451C260.142 92.6572 260.724 92.8743 261.104 92.9158C261.484 92.9577 263.746 91.7174 265.122 90.702C266.556 89.6428 267.453 88.4975 267.985 88.1087C268.184 87.9634 268.398 87.7859 268.588 87.6203C268.548 87.3529 268.515 87.109 268.485 86.9814C268.432 86.7532 268.192 86.7551 268.192 86.7551L268.135 87.099C268.031 87.1946 267.839 87.3207 267.722 87.4052C267.594 87.4985 267.483 87.6107 267.383 87.7275C267.194 87.9458 267.031 88.1844 266.806 88.3722C265.644 89.7442 262.837 91.6325 261.489 92.1451Z" fill="#37474F"/>
<path d="M261.197 92.7348C261.227 92.7344 261.257 92.7248 261.282 92.706C261.339 92.6629 261.346 92.5869 261.298 92.5358C260.909 92.1216 259.079 91.1561 258.083 91.2729C258.009 91.2814 257.957 91.3421 257.966 91.4078C257.975 91.4735 258.035 91.5188 258.116 91.5119C259.046 91.4047 260.784 92.364 261.093 92.6922C261.12 92.7213 261.159 92.7356 261.197 92.7348Z" fill="#263238"/>
<path d="M262.369 92.059C262.399 92.0586 262.429 92.049 262.454 92.0302C262.511 91.9872 262.518 91.9107 262.47 91.86C262.081 91.4462 260.252 90.4815 259.255 90.5975C259.181 90.606 259.129 90.6667 259.138 90.7324C259.147 90.7984 259.212 90.8449 259.288 90.8365C260.218 90.7304 261.956 91.6882 262.265 92.0164C262.291 92.0452 262.33 92.0598 262.369 92.059Z" fill="#263238"/>
<path d="M263.542 91.4174C263.572 91.4171 263.602 91.4075 263.626 91.3886C263.683 91.3456 263.69 91.2695 263.642 91.2184C263.253 90.8043 261.423 89.838 260.427 89.9559C260.354 89.9644 260.301 90.0251 260.311 90.0908C260.32 90.1565 260.384 90.2034 260.46 90.1949C261.39 90.0877 263.129 91.0463 263.437 91.3748C263.464 91.404 263.503 91.4182 263.542 91.4174Z" fill="#263238"/>
<path d="M264.626 90.6898C264.656 90.6891 264.686 90.6799 264.71 90.661C264.767 90.618 264.774 90.5419 264.726 90.4912C264.337 90.077 262.503 89.1119 261.511 89.2287C261.438 89.2372 261.385 89.2979 261.395 89.3636C261.403 89.4297 261.468 89.4758 261.544 89.4677C262.473 89.3613 264.213 90.3191 264.521 90.6476C264.548 90.676 264.587 90.6906 264.626 90.6898Z" fill="#263238"/>
<path d="M265.688 89.9621C265.717 89.9617 265.746 89.9525 265.77 89.9344C265.828 89.8922 265.836 89.8157 265.789 89.7646C265.253 89.1772 263.34 88.3777 262.345 88.4941C262.271 88.5025 262.219 88.5632 262.228 88.6289C262.237 88.695 262.302 88.7396 262.378 88.733C263.274 88.6285 265.106 89.3973 265.581 89.9179C265.609 89.9483 265.648 89.9629 265.688 89.9621Z" fill="#263238"/>
<path d="M279.277 88.0557L278.218 84.0861L283.29 83.4226L283.444 87.2496C283.444 87.2496 283.956 88.6235 283.637 89.1211C283.319 89.6186 279.947 90.1288 279.639 89.7953C279.332 89.4618 279.277 88.0557 279.277 88.0557Z" fill="#FFA8A7"/>
<path d="M279.633 96.6791C279.774 97.9058 280.038 98.7 280.586 99.3665C281.135 100.033 282.118 100.151 283.093 99.8268C284.067 99.5029 285.238 98.6754 285.535 97.6941C285.86 96.6195 285.677 95.8711 285.4 94.75L279.633 96.6791Z" fill="#263238"/>
<path d="M283.444 87.2502C283.851 87.2313 283.739 88.9111 284.049 90.5466C284.382 92.2997 285.041 92.9659 285.333 94.4009C285.666 96.0406 285.598 96.7979 284.958 97.8848C284.317 98.9717 281.932 100.237 280.666 98.9275C279.635 97.8602 279.534 96.5582 279.546 94.8819C279.558 93.1488 279.583 91.9282 279.44 90.6303C279.303 89.3898 278.933 88.2848 279.278 88.1058C279.314 88.2863 279.351 88.5161 279.388 88.6928C279.417 88.8288 279.488 89.5004 279.716 89.4812C279.729 89.3195 279.719 89.1712 279.699 89.0098C279.681 88.8696 279.688 88.714 279.791 88.5941C279.895 88.4731 280.284 88.3236 280.447 88.2771C280.843 88.1646 281.55 88.0255 281.954 87.9486C282.156 87.9102 282.358 87.8791 282.561 87.858C282.725 87.8411 282.92 87.8307 283.078 87.8622C283.175 87.8814 283.266 87.9294 283.305 88.0066C283.334 88.0639 283.332 88.1307 283.335 88.1949C283.34 88.3102 283.363 88.4239 283.402 88.5318C283.419 88.5795 283.462 88.6352 283.519 88.6164C283.566 88.6014 283.582 88.5491 283.581 88.508C283.573 88.3063 283.536 88.1634 283.514 87.9306C283.504 87.823 283.476 87.6778 283.47 87.569C283.463 87.4626 283.457 87.3558 283.444 87.2502Z" fill="#455A64"/>
<path d="M285.219 93.9363C285.27 94.1726 285.583 95.7393 285.086 96.0843C284.549 96.4578 284.188 95.2391 284.188 95.2391C284.188 95.2391 282.878 95.0482 281.026 95.9637C281.135 96.2111 280.884 97.0971 280.359 96.9757C279.837 96.855 279.55 95.0497 279.546 95.0263C279.541 96.633 279.666 97.8912 280.667 98.9274C281.932 100.237 284.318 98.9716 284.958 97.8847C285.598 96.7978 285.666 96.0405 285.333 94.4008C285.3 94.2363 285.261 94.083 285.219 93.9363Z" fill="#37474F"/>
<path d="M284.045 95.3629C284.081 95.9653 284.772 95.6821 284.762 94.8269C284.754 93.9717 284.112 92.0123 284.049 90.5461C283.941 88.5337 283.851 87.2309 283.444 87.2497C283.446 87.2701 283.447 87.2904 283.449 87.3108L283.541 88.1491C283.559 88.2705 283.576 88.3781 283.581 88.508C283.648 89.7374 283.653 92.1252 283.83 93.2359C284.007 94.3474 284.009 94.7604 284.045 95.3629Z" fill="#37474F"/>
<path d="M281.244 95.9221C281.084 95.3446 280.953 94.957 280.76 93.8493C280.568 92.7501 279.895 90.5475 279.561 89.3634C279.453 89.1686 279.409 88.7906 279.389 88.6922C279.354 88.527 279.319 88.3172 279.286 88.1432C279.283 88.1309 279.279 88.119 279.277 88.1067C279.027 88.2396 279.108 89.1924 279.238 89.6861C279.367 90.1798 279.526 90.7089 279.687 91.4173C280.101 92.8131 280.132 94.9063 280.399 95.71C280.666 96.5137 281.405 96.4995 281.244 95.9221Z" fill="#37474F"/>
<path d="M280.989 96.0171C281.008 96.0133 281.026 96.0068 281.043 95.9972C281.057 95.9887 282.5 95.1811 284.155 95.3674C284.236 95.3763 284.317 95.326 284.335 95.2556C284.353 95.185 284.302 95.1204 284.221 95.1112C282.45 94.9118 280.956 95.7501 280.893 95.7862C280.821 95.8273 280.795 95.9076 280.837 95.966C280.869 96.0098 280.93 96.0287 280.989 96.0171Z" fill="#263238"/>
<path d="M280.59 94.7459C280.606 94.7424 280.623 94.7367 280.639 94.7286C280.655 94.7202 282.28 93.8718 284.123 94.0248C284.205 94.0305 284.284 93.9794 284.299 93.9083C284.315 93.8373 284.261 93.7743 284.18 93.7673C282.23 93.6067 280.568 94.4754 280.499 94.5119C280.425 94.5511 280.397 94.631 280.436 94.691C280.466 94.7378 280.529 94.7582 280.59 94.7459Z" fill="#263238"/>
<path d="M283.967 92.7922C284.024 92.7811 284.073 92.7427 284.091 92.6916C284.114 92.6213 284.069 92.5533 283.989 92.5394C282.146 92.2213 280.386 93.2118 280.312 93.2544C280.24 93.2955 280.215 93.3758 280.256 93.4342C280.298 93.4923 280.391 93.5045 280.462 93.465C280.479 93.4557 282.189 92.4949 283.904 92.793C283.925 92.7972 283.947 92.7965 283.967 92.7922Z" fill="#263238"/>
<path d="M283.809 91.6311C283.865 91.62 283.913 91.5827 283.931 91.5328C283.956 91.4625 283.913 91.3941 283.833 91.3791C281.805 90.9957 280.15 92.048 280.081 92.0925C280.012 92.1375 279.993 92.2186 280.039 92.2743C280.085 92.33 280.18 92.3384 280.248 92.2939C280.263 92.2839 281.855 91.2754 283.743 91.6319C283.765 91.6357 283.787 91.6353 283.809 91.6311Z" fill="#263238"/>
<path d="M283.624 90.3275C283.679 90.3163 283.728 90.2802 283.746 90.2307C283.772 90.1611 283.73 90.092 283.65 90.0758C281.748 89.6909 279.949 90.7808 279.873 90.8281C279.802 90.8711 279.782 90.9526 279.826 91.009C279.87 91.0659 279.963 91.0774 280.033 91.0329C280.051 91.0221 281.789 89.9698 283.556 90.3275C283.579 90.3321 283.602 90.3321 283.624 90.3275Z" fill="#263238"/>
<path d="M281.129 46.358C281.896 56.0618 282.081 69.3459 282.081 69.3459C282.15 70.0828 282.677 71.3456 283.035 74.9809C283.411 78.8156 283.322 84.229 283.322 84.229C283.322 84.229 280.641 85.6605 278.438 84.9363C278.438 84.9363 276.395 76.4209 275.269 71.9016C274.203 67.6246 272.763 60.4693 272.763 60.4693L270.716 69.6832C270.716 69.6832 270.865 72.449 270.78 74.3843C270.681 76.6349 268.741 83.9289 268.741 83.9289C268.741 83.9289 265.885 85.5902 263.598 83.8617C263.598 83.8617 263.785 71.2319 263.723 68.5241C263.602 63.2129 263.917 52.0519 264.12 45.1951L281.129 46.358Z" fill="#275ADE"/>
<path opacity="0.3" d="M281.129 46.358C281.896 56.0618 282.081 69.3459 282.081 69.3459C282.15 70.0828 282.677 71.3456 283.035 74.9809C283.411 78.8156 283.322 84.229 283.322 84.229C283.322 84.229 280.641 85.6605 278.438 84.9363C278.438 84.9363 276.395 76.4209 275.269 71.9016C274.203 67.6246 272.763 60.4693 272.763 60.4693L270.716 69.6832C270.716 69.6832 270.865 72.449 270.78 74.3843C270.681 76.6349 268.741 83.9289 268.741 83.9289C268.741 83.9289 265.885 85.5902 263.598 83.8617C263.598 83.8617 263.785 71.2319 263.723 68.5241C263.602 63.2129 263.917 52.0519 264.12 45.1951L281.129 46.358Z" fill="black"/>
<path opacity="0.2" d="M272.762 60.469L271.582 54.2035C271.582 54.2035 268.911 53.8201 267.543 52.6079C267.543 52.6079 268.425 54.2104 270.944 54.8386L272.066 61.1241L270.716 69.6833L272.762 60.469Z" fill="black"/>
<path d="M283.382 84.3364C282.828 85.058 280.372 85.7776 278.399 85.1168L278.059 83.6238C279.549 84.0886 282.138 83.6522 283.356 82.7117L283.382 84.3364Z" fill="#275ADE"/>
<path d="M268.698 84.3521C268.001 84.94 265.369 85.2008 263.584 84.1382L263.557 82.3843C264.912 83.1531 267.705 83.4105 269.098 82.7485L268.698 84.3521Z" fill="#275ADE"/>
<path d="M250.966 44.958C250.09 44.7424 249.911 44.7205 249.255 44.6145C248.818 44.5434 248.568 44.7232 247.542 45.326C246.475 45.9527 246.291 46.232 246.204 46.5658C246.101 46.9604 246.367 47.2928 246.51 47.3512C246.178 47.574 246.226 48.1991 246.715 48.4115C246.427 48.7235 246.595 49.1888 246.968 49.3286C246.808 49.5207 246.904 50.2361 247.552 50.3771C248.241 50.5269 249.247 50.5561 249.247 50.5561L250.966 44.958Z" fill="#F28F8F"/>
<path d="M253.389 91.035L244.546 4.6212L245.283 4.5459L254.127 90.9647C254.145 91.2556 253.412 91.3174 253.389 91.035Z" fill="#455A64"/>
<path d="M249.247 50.5556C249.455 50.5548 249.713 50.2125 249.902 49.9866C250.091 49.761 250.33 49.4883 250.306 49.2992C250.272 49.0338 249.897 49.0403 249.897 49.0403C249.897 49.0403 249.937 49.0161 250.078 48.8716C250.307 48.6365 249.872 48.336 249.496 48.487C249.496 48.487 249.656 48.3871 249.657 48.2792C249.66 48.0736 249.462 47.7955 249.119 47.8197C249.386 47.6798 249.282 47.3018 249.091 47.0144C249.022 47.0144 248.954 47.0186 248.887 47.0267C248.657 48.1071 248.822 49.2969 249.247 50.5556Z" fill="#F28F8F"/>
<path d="M246.968 49.3281C247.214 49.421 247.475 49.4671 247.73 49.5236C247.988 49.5739 248.246 49.6266 248.504 49.6496C248.758 49.7007 248.994 49.5682 249.225 49.4521C249.455 49.3281 249.678 49.1878 249.897 49.0403C249.699 49.2159 249.49 49.3784 249.262 49.5163C249.04 49.6454 248.777 49.7914 248.495 49.7449C248.229 49.713 247.97 49.6615 247.714 49.5951C247.459 49.5259 247.201 49.4537 246.968 49.3281Z" fill="#B16668"/>
<path d="M249.496 48.487C249.281 48.598 249.069 48.714 248.839 48.7985C248.725 48.8416 248.604 48.8769 248.471 48.8735C248.342 48.8619 248.228 48.8343 248.108 48.8101C247.637 48.6963 247.171 48.5723 246.714 48.4109C247.191 48.495 247.659 48.6141 248.129 48.7167C248.245 48.7436 248.365 48.7743 248.476 48.7866C248.586 48.7939 248.702 48.7601 248.815 48.729C249.043 48.6591 249.268 48.5657 249.496 48.487Z" fill="#B16668"/>
<path d="M249.119 47.8194C248.911 47.8948 248.698 48.0165 248.454 47.9839C248.22 47.9574 248.008 47.8782 247.788 47.8183C247.357 47.6777 246.927 47.5325 246.511 47.3503C246.953 47.4568 247.384 47.5966 247.817 47.7265C248.032 47.7933 248.248 47.8713 248.463 47.9105C248.679 47.9555 248.897 47.8632 249.119 47.8194Z" fill="#B16668"/>
<path d="M245.716 4.66467C245.668 5.11226 245.266 5.43614 244.818 5.38773C244.37 5.33933 244.046 4.93707 244.095 4.48909C244.143 4.04111 244.545 3.71762 244.993 3.76603C245.441 3.81444 245.765 4.21669 245.716 4.66467Z" fill="#37474F"/>
<path d="M245.535 3.13488C245.587 3.58209 245.266 3.98703 244.819 4.03928C244.371 4.09115 243.966 3.77073 243.914 3.32314C243.781 2.17323 244.424 0.645264 244.424 0.645264C244.424 0.645264 245.401 1.98458 245.535 3.13488Z" fill="#37474F"/>
<path d="M244.62 5.33398C240.002 12.1612 232.241 10.1296 226.041 10.3985C219.323 10.6897 215.484 13.2646 213.763 16.4032C215.637 15.6912 221.096 15.6186 222.948 16.8554C222.948 16.8554 216.605 22.0052 217.35 29.2908C219.01 26.0001 222.213 23.3195 229.019 23.9999C234.997 24.5974 242.685 26.5234 246.282 21.5975L244.62 5.33398Z" fill="#275ADE"/>
<path opacity="0.1" d="M239.799 22.2794C234.589 24.4666 219.189 18.8335 217.35 29.2906C219.01 25.9999 222.213 23.3194 229.019 23.9998C234.997 24.5972 242.685 26.5232 246.282 21.5974L244.62 5.33423C245.259 11.7365 245.009 20.0921 239.799 22.2794Z" fill="black"/>
<path opacity="0.7" d="M233.277 12.7786L234.487 15.4826L237.447 15.5744C237.625 15.5798 237.706 15.7992 237.574 15.9187L235.376 17.9042L236.203 20.7481C236.253 20.919 236.069 21.0635 235.915 20.9747L233.348 19.4983L230.899 21.1642C230.752 21.2644 230.558 21.1342 230.594 20.9601L231.205 18.0617L228.864 16.2472C228.723 16.1381 228.787 15.9133 228.963 15.8945L231.909 15.5798L232.911 12.7924C232.971 12.6249 233.205 12.6161 233.277 12.7786Z" fill="white"/>
<path d="M258.353 46.4729C258.353 46.4729 255.65 47.6589 253.925 48.4377C252.604 49.0316 252.592 49.2295 252.165 49.7036C251.69 50.2311 249.977 50.4198 249.977 50.4198L249.927 49.9541C250.112 49.7347 250.328 49.4812 250.305 49.3002C250.271 49.0343 249.898 49.0389 249.898 49.0389C249.898 49.0389 249.937 49.0167 250.078 48.8734C250.25 48.692 250.047 48.4807 249.774 48.4488L249.716 47.8867C249.516 47.6908 249.35 47.4879 249.227 47.282V47.2782C249.171 47.1925 249.127 47.1033 249.09 47.0142C249.063 47.0138 248.483 47.0069 248 47.3435C247.785 47.7661 247.449 48.2863 246.849 48.3059C246.36 48.3197 246.353 48.093 246.574 47.5859C246.871 46.892 246.974 46.5559 247.222 46.2032C247.467 45.8466 248.839 45.2419 249.269 45.0502C249.699 44.8585 250.048 44.8612 250.858 44.9491C251.663 45.0333 251.908 44.9188 252.302 44.7839C252.693 44.6529 254.733 43.3997 254.733 43.3997L258.353 46.4729Z" fill="#FFA8A7"/>
<path d="M249.718 47.886C250.162 48.4415 251.161 48.6867 251.921 48.6233C250.671 48.9306 249.782 48.5103 249.782 48.5103L249.718 47.886Z" fill="#F28F8F"/>
<path d="M266.56 27.835C263.319 28.6863 262.832 29.9239 261.353 34.2311C260.028 38.0908 259.313 40.2435 259.313 40.2435L253.833 43.9149C253.833 43.9149 255.001 44.701 255.271 47.8756C255.271 47.8756 258.283 46.5728 261.146 45.3556C262.801 44.6522 263.181 44.1492 263.938 42.39C264.803 40.3775 266.531 36.1302 266.531 36.1302L266.56 27.835Z" fill="#37474F"/>
<path d="M278.897 24.5637C280.298 23.5067 281.498 26.0194 281.971 27.8071C282.444 29.5948 282.299 31.9584 281.245 36.3137C281.006 37.2984 280.805 39.5436 280.966 42.4167C281.134 45.4242 281.169 46.9145 281.323 49.0683C281.323 49.0683 277.567 51.7873 270.676 51.1392C265.265 50.6301 263.989 48.1493 263.989 48.1493C263.989 48.1493 264.081 40.2605 264.296 36.2676C264.579 31.0228 265.373 28.7296 266.56 27.8348C266.56 27.8348 268.991 27.0398 272.632 26.2123C276 25.447 277.444 25.6598 278.897 24.5637Z" fill="#455A64"/>
<path d="M268.451 15.3145C268.451 15.3145 267.649 15.4366 267.196 16.4943C266.969 17.0257 266.849 17.9727 267.777 20.5841C268.375 22.265 268.994 22.9708 269.281 23.4295C269.568 23.8883 270.092 23.9832 270.092 23.9832L269.885 21.9377L269.701 20.5154C269.701 20.5154 270.774 19.3835 270.796 18.35C270.824 17.0199 270.252 16.3107 270.252 16.3107L268.451 15.3145Z" fill="#37474F"/>
<path d="M268.178 15.4042C268.291 14.237 269.648 12.7525 272.456 12.3898C274.756 12.0928 276.166 12.7851 277.072 14.0711C277.977 15.357 277.579 17.1408 277.579 17.1408L270.286 17.213L268.178 15.4042Z" fill="#37474F"/>
<path d="M268.057 22.6788C269.158 23.1152 269.579 22.2385 269.579 22.2385L269.991 26.971C268.211 29.6866 272.361 30.3643 275.022 26.9945C275.212 26.7547 275.312 26.4554 275.293 26.1508L275.205 24.7926C275.205 24.7926 275.561 24.7665 276.118 24.6336C277.046 24.4142 277.58 23.6231 277.784 22.5839C278.095 20.9898 278.063 18.443 277.217 15.8216C277.075 15.382 276.758 15.0047 276.32 14.8584C275.198 14.4834 274.229 15.3332 272.752 16.0409C272.12 16.3437 270.55 16.5742 270.119 16.4102C270.713 16.9742 270.707 18.8671 270.192 19.6924C270.014 19.9782 269.844 20.1734 269.737 20.2825C269.416 20.6075 269.076 19.8568 268.764 19.5763C268.45 19.2986 267.346 19.1099 266.954 20.1392C266.559 21.1869 267.037 22.2746 268.057 22.6788Z" fill="#FFA8A7"/>
<path d="M275.205 24.793C273.971 24.8786 272.865 24.8087 272.114 24.5567C271.363 24.3046 270.643 23.3684 270.358 22.4075C270.417 23.1935 270.867 24.5617 272.014 25.0577C273.161 25.5537 274.448 25.488 275.257 25.4446L275.205 24.793Z" fill="#F28F8F"/>
<path d="M272.862 17.4951L272.017 18.2519C271.811 18.0068 271.832 17.6384 272.066 17.4294C272.299 17.2204 272.656 17.2499 272.862 17.4951Z" fill="#37474F"/>
<path d="M276.757 17.3333L275.665 17.0263C275.761 16.7201 276.083 16.5406 276.385 16.6256C276.687 16.7105 276.853 17.0274 276.757 17.3333Z" fill="#37474F"/>
<path d="M272.481 18.9478C272.509 19.2013 272.738 19.3842 272.992 19.3562C273.246 19.3277 273.428 19.0991 273.4 18.8456C273.372 18.592 273.143 18.4091 272.889 18.4372C272.635 18.4656 272.453 18.6942 272.481 18.9478Z" fill="#263238"/>
<path d="M275.877 18.3975C275.905 18.651 276.134 18.8339 276.388 18.8059C276.641 18.7774 276.824 18.5488 276.796 18.2953C276.768 18.0417 276.539 17.8588 276.286 17.8869C275.994 17.9195 275.845 18.1059 275.877 18.3975Z" fill="#263238"/>
<path d="M274.135 17.8972L274.736 20.8029L276.243 20.1137C275.613 19.1205 274.91 18.3817 274.135 17.8972Z" fill="#F28F8F"/>
<path d="M273.61 21.5452L274.839 21.8514C274.762 22.2025 274.424 22.4184 274.084 22.3339C273.745 22.2494 273.533 21.8963 273.61 21.5452Z" fill="#B16668"/>
<path d="M273.753 21.7521C273.701 21.7448 273.65 21.7452 273.6 21.749C273.624 22.0237 273.811 22.2662 274.084 22.3342C274.153 22.3511 274.221 22.353 274.287 22.3469C274.315 22.0625 274.081 21.7986 273.753 21.7521Z" fill="#F28F8F"/>
<path d="M288.812 0.000534145C289.159 -0.0194442 289.61 0.524198 289.363 1.0955C289.838 0.586439 289.987 0.463494 290.417 0.774312C290.708 0.984469 290.616 1.46626 290.616 1.46626C290.616 1.46626 290.934 1.16735 291.265 1.45588C291.596 1.74403 291.481 2.10979 291.481 2.10979C291.481 2.10979 291.726 1.9223 291.99 2.23274C292.219 2.50167 292.275 2.8075 292.234 3.10986L291.947 2.96079C291.947 2.96079 291.884 3.08912 291.736 3.194C291.588 3.29889 291.452 3.64006 291.334 3.91745C291.215 4.19484 291.114 4.53409 290.831 4.57635C290.548 4.61862 290.345 4.44265 290.339 4.26093C290.332 4.0792 290.39 3.90324 290.39 3.90324C290.39 3.90324 290.196 4.30933 289.817 4.20944C289.437 4.10955 289.475 3.76262 289.483 3.53709C289.25 3.60433 289.009 3.64313 288.902 3.45756C288.795 3.27238 288.876 2.52319 288.876 2.52319L288.266 2.33801C288.266 2.33801 287.718 2.21698 287.751 1.80358C287.811 1.06054 288.436 0.0220493 288.812 0.000534145Z" fill="#FFA8A7"/>
<path d="M286.812 7.17667C286.845 6.56272 286.741 6.03906 286.523 5.43548C286.2 4.54106 286.486 3.84028 286.57 3.49104C286.744 2.77182 287.103 1.75715 287.233 1.58925C287.439 1.32416 287.96 1.23694 287.96 1.23694C288.422 1.18047 288.599 1.24655 288.599 1.24655L289.589 2.11907C289.589 2.11907 289.55 2.46485 289.288 2.54361C289.025 2.62237 288.863 2.55782 288.863 2.55782C288.863 2.55782 288.764 3.25169 288.906 3.40882C289.048 3.56596 289.163 3.62052 289.439 3.43034C289.452 3.68929 289.458 4.08617 289.757 4.1607C290.056 4.23524 290.39 3.90291 290.39 3.90291C290.39 3.90291 290.38 4.59216 290.606 4.62712C290.832 4.66247 291.619 2.54399 291.619 2.54399L292.233 3.10953C292.064 3.68122 291.578 5.452 291.261 6.14394C290.945 6.83589 290.687 7.1759 290.588 8.39228C290.489 9.60866 290.037 16.8785 290.037 16.8785L285.724 15.4139C285.724 15.4139 286.78 7.79024 286.812 7.17667Z" fill="#FFA8A7"/>
<path d="M287.692 2.76163C287.692 2.76163 288.281 3.06361 288.806 3.63261C289.428 4.30765 289.724 5.17171 289.724 5.17171C289.672 4.5958 289.432 4.09634 289.151 3.69408C289.226 3.69562 289.305 3.67756 289.387 3.63069C289.352 3.95226 289.374 4.26154 289.777 4.30842C290.027 4.33761 290.157 4.26193 290.27 4.14167C290.257 4.31264 290.285 4.47324 290.469 4.59618C290.633 4.70568 290.877 4.69761 291.007 4.5397C291.033 4.5082 291.056 4.47439 291.076 4.43904C291.079 4.4329 291.082 4.42675 291.083 4.41983C291.084 4.41676 291.082 4.4133 291.072 4.41215C291.056 4.42483 291.039 4.43712 291.022 4.4498C290.923 4.52434 290.724 4.60809 290.602 4.54547C290.499 4.49283 290.462 4.36105 290.445 4.25616C290.417 4.0852 290.478 3.90001 290.509 3.73096C290.51 3.72366 290.512 3.71598 290.508 3.70983C290.499 3.69331 290.473 3.70368 290.46 3.71636C290.381 3.78706 290.323 3.87734 290.25 3.95303C290.147 4.05984 290.02 4.10479 289.873 4.08673C289.585 4.05177 289.553 3.69101 289.586 3.4601C289.596 3.38365 289.612 3.30796 289.62 3.23073C289.621 3.21998 289.619 3.20499 289.607 3.20461C289.604 3.20461 289.601 3.20615 289.598 3.20768C289.553 3.23189 289.523 3.273 289.491 3.31218C289.456 3.35522 289.416 3.39133 289.372 3.42514C289.316 3.46779 289.251 3.50198 289.181 3.50582C289.025 3.51466 288.976 3.36828 288.936 3.24495C288.871 3.04209 288.867 2.82617 288.911 2.61832C288.913 2.61179 288.912 2.60526 288.913 2.59873C288.932 2.60334 288.948 2.60756 288.968 2.61217C289.516 2.74587 289.768 2.22106 289.606 2.06123C289.443 1.9014 288.748 1.24942 288.56 1.19985C288.423 1.16374 288.337 1.17988 287.96 1.23751L288.524 1.27132C288.524 1.27132 289.532 2.08736 289.506 2.21107C289.478 2.34016 289.34 2.52419 289.051 2.50076C288.762 2.47732 288.253 2.25756 288.253 2.25756C288.209 2.47386 287.692 2.76163 287.692 2.76163ZM288.054 2.59719C288.179 2.56107 288.265 2.42007 288.265 2.42007C288.265 2.42007 288.392 2.46733 288.814 2.57337C288.756 2.65405 288.723 2.74972 288.677 2.83731C288.651 2.88572 288.619 2.93221 288.577 2.96871C288.565 2.97985 288.551 2.98485 288.538 2.99215C288.265 2.73665 288.054 2.59719 288.054 2.59719Z" fill="#F28F8F"/>
<path d="M278.897 24.5636C280.129 23.038 281.157 22.537 281.781 21.7613C282.798 20.4972 284.993 17.0852 284.993 17.0852L286.403 9.82764C286.772 11.1147 289.622 12.177 290.424 11.5246C290.424 11.5246 290.351 14.0761 290.06 18.4007C289.956 19.9352 289.904 20.2145 287.916 23.1448C286.977 24.5287 286.036 26.0201 284.531 28.333C283.445 30.0039 282.461 31.5595 281.919 33.2131C281.773 33.9158 280.302 33.9008 279.311 31.644C278.217 29.1544 278.691 25.4296 278.897 24.5636Z" fill="#37474F"/>
</svg>
